<svg width="41" height="40" viewBox="0 0 41 40" fill="none" xmlns="http://www.w3.org/2000/svg">
<rect x="0.954407" width="40" height="40" rx="20" fill="url(#paint0_linear_1_9868)"/>
<g clip-path="url(#clip0_1_9868)">
<path d="M27.5291 26.2672C27.6211 26.3765 27.6799 26.5099 27.6987 26.6516C27.7174 26.7933 27.6953 26.9373 27.6349 27.0669C27.5746 27.1964 27.4784 27.306 27.3579 27.3827C27.2373 27.4595 27.0973 27.5001 26.9544 27.5H11.2044C11.0616 27.5 10.9217 27.4591 10.8013 27.3823C10.6809 27.3055 10.5849 27.1959 10.5246 27.0665C10.4644 26.937 10.4423 26.7929 10.4611 26.6514C10.4799 26.5098 10.5387 26.3765 10.6307 26.2672C12.0313 24.6003 13.7732 23.4162 15.7091 22.7825C14.5334 22.0502 13.6282 20.9549 13.1304 19.6624C12.6326 18.3698 12.5693 16.9503 12.9501 15.6185C13.3309 14.2868 14.1351 13.1153 15.241 12.2814C16.3469 11.4474 17.6943 10.9962 19.0794 10.9962C20.4645 10.9962 21.812 11.4474 22.9178 12.2814C24.0237 13.1153 24.8279 14.2868 25.2087 15.6185C25.5896 16.9503 25.5263 18.3698 25.0285 19.6624C24.5307 20.9549 23.6254 22.0502 22.4497 22.7825C24.3857 23.4162 26.1275 24.6003 27.5291 26.2672ZM32.1275 22.4375C32.0616 22.5517 31.9668 22.6465 31.8525 22.7123C31.7383 22.7781 31.6088 22.8127 31.4769 22.8125C31.3452 22.8129 31.2158 22.7783 31.1019 22.7122L30.6641 22.4591C30.4546 22.6388 30.2137 22.7783 29.9535 22.8706V23.375C29.9535 23.5739 29.8745 23.7647 29.7338 23.9053C29.5932 24.046 29.4024 24.125 29.2035 24.125C29.0046 24.125 28.8138 24.046 28.6731 23.9053C28.5325 23.7647 28.4535 23.5739 28.4535 23.375V22.8706C28.1933 22.7783 27.9524 22.6388 27.7429 22.4591L27.305 22.7122C27.1911 22.7783 27.0617 22.8129 26.93 22.8125C26.7649 22.8126 26.6043 22.7581 26.4733 22.6576C26.3422 22.5571 26.248 22.4161 26.2053 22.2566C26.1626 22.0971 26.1737 21.9279 26.2369 21.7753C26.3001 21.6228 26.412 21.4953 26.555 21.4128L26.9919 21.1606C26.9407 20.8893 26.9407 20.6107 26.9919 20.3394L26.555 20.0872C26.4697 20.0379 26.3949 19.9724 26.335 19.8942C26.275 19.8161 26.231 19.7269 26.2055 19.6317C26.18 19.5366 26.1735 19.4373 26.1863 19.3397C26.1991 19.242 26.2311 19.1478 26.2804 19.0625C26.3296 18.9772 26.3952 18.9024 26.4733 18.8424C26.5515 18.7824 26.6407 18.7384 26.7358 18.7129C26.831 18.6874 26.9302 18.6809 27.0279 18.6938C27.1255 18.7066 27.2197 18.7386 27.305 18.7878L27.7429 19.0409C27.9524 18.8612 28.1933 18.7216 28.4535 18.6294V18.125C28.4535 17.9261 28.5325 17.7353 28.6731 17.5947C28.8138 17.454 29.0046 17.375 29.2035 17.375C29.4024 17.375 29.5932 17.454 29.7338 17.5947C29.8745 17.7353 29.9535 17.9261 29.9535 18.125V18.6294C30.2137 18.7216 30.4546 18.8612 30.6641 19.0409L31.1019 18.7878C31.1872 18.7386 31.2814 18.7066 31.3791 18.6938C31.4768 18.6809 31.576 18.6874 31.6711 18.7129C31.7663 18.7384 31.8555 18.7824 31.9336 18.8424C32.0118 18.9024 32.0774 18.9772 32.1266 19.0625C32.1758 19.1478 32.2078 19.242 32.2207 19.3397C32.2335 19.4373 32.227 19.5366 32.2015 19.6317C32.176 19.7269 32.132 19.8161 32.072 19.8942C32.012 19.9724 31.9372 20.0379 31.8519 20.0872L31.415 20.3394C31.4663 20.6107 31.4663 20.8893 31.415 21.1606L31.8519 21.4128C31.9373 21.462 32.0122 21.5275 32.0723 21.6056C32.1324 21.6837 32.1765 21.7729 32.2021 21.868C32.2277 21.9632 32.2343 22.0625 32.2215 22.1602C32.2087 22.2579 32.1768 22.3521 32.1275 22.4375ZM29.2044 21.5C29.3528 21.5 29.4978 21.456 29.6211 21.3736C29.7444 21.2912 29.8406 21.1741 29.8973 21.037C29.9541 20.9 29.9689 20.7492 29.94 20.6037C29.9111 20.4582 29.8396 20.3246 29.7347 20.2197C29.6299 20.1148 29.4962 20.0433 29.3507 20.0144C29.2052 19.9855 29.0544 20.0003 28.9174 20.0571C28.7804 20.1139 28.6632 20.21 28.5808 20.3333C28.4984 20.4567 28.4544 20.6017 28.4544 20.75C28.4544 20.9489 28.5334 21.1397 28.6741 21.2803C28.8147 21.421 29.0055 21.5 29.2044 21.5Z" fill="white"/>
</g>
<defs>
<linearGradient id="paint0_linear_1_9868" x1="6.00113" y1="2.85715" x2="43.8767" y2="13.6482" gradientUnits="userSpaceOnUse">
<stop stop-color="#EE269D"/>
<stop offset="1" stop-color="#9743A6"/>
</linearGradient>
<clipPath id="clip0_1_9868">
<rect width="24" height="24" fill="white" transform="translate(8.95441 8)"/>
</clipPath>
</defs>
</svg>
