<svg width="41" height="40" viewBox="0 0 41 40" fill="none" xmlns="http://www.w3.org/2000/svg">
<rect x="1.90875" y="1" width="38" height="38" rx="19" fill="white"/>
<path d="M30.6588 11C30.6588 10.8011 30.5797 10.6103 30.4391 10.4697C30.2984 10.329 30.1077 10.25 29.9088 10.25C25.7762 10.25 21.5359 14.9103 19.1809 17.9966C18.3399 17.739 17.4501 17.6822 16.5832 17.8309C15.7162 17.9795 14.8962 18.3294 14.189 18.8525C13.4817 19.3755 12.9071 20.0571 12.511 20.8426C12.115 21.628 11.9087 22.4954 11.9087 23.375C11.9087 26.27 10.0769 27.5684 9.98969 27.6284C9.85665 27.7183 9.75594 27.8484 9.70238 27.9998C9.64882 28.1511 9.64523 28.3156 9.69213 28.4692C9.73904 28.6227 9.83397 28.7571 9.96297 28.8527C10.092 28.9482 10.2482 28.9999 10.4087 29H17.5337C18.4134 29 19.2807 28.7937 20.0662 28.3977C20.8516 28.0017 21.5332 27.427 22.0563 26.7198C22.5793 26.0126 22.9292 25.1926 23.0779 24.3256C23.2265 23.4586 23.1698 22.5689 22.9122 21.7278C25.9994 19.3728 30.6588 15.1325 30.6588 11ZM20.5731 18.6453C20.8944 18.2291 21.2097 17.8369 21.5191 17.4688C22.2763 17.9804 22.9284 18.6324 23.44 19.3897C23.0712 19.6984 22.6791 20.0138 22.2634 20.3356C21.8264 19.6586 21.2502 19.0824 20.5731 18.6453ZM24.5763 18.3941C24.01 17.5951 23.3127 16.8978 22.5138 16.3316C25.4931 13.0944 27.7403 12.1128 29.0669 11.84C28.7997 13.1675 27.8134 15.4147 24.5763 18.3941Z" fill="url(#paint0_linear_1_8796)"/>
<rect x="1.90875" y="1" width="38" height="38" rx="19" stroke="url(#paint1_linear_1_8796)" stroke-width="2"/>
<defs>
<linearGradient id="paint0_linear_1_8796" x1="12.3089" y1="11.5893" x2="31.8204" y2="17.8152" gradientUnits="userSpaceOnUse">
<stop stop-color="#EE269D"/>
<stop offset="1" stop-color="#9743A6"/>
</linearGradient>
<linearGradient id="paint1_linear_1_8796" x1="-7.51791" y1="-2.88177" x2="3.31908" y2="48.1581" gradientUnits="userSpaceOnUse">
<stop stop-color="white" stop-opacity="0.2"/>
<stop offset="1" stop-color="white" stop-opacity="0"/>
</linearGradient>
</defs>
</svg>
