<svg width="141" height="160" viewBox="0 0 141 160" fill="none" xmlns="http://www.w3.org/2000/svg">
<g clip-path="url(#clip0_71_12075)">
<path d="M58.607 140.17C90.4727 140.17 116.305 114.338 116.305 82.472C116.305 50.6063 90.4727 24.774 58.607 24.774C26.7413 24.774 0.908981 50.6063 0.908981 82.472C0.908981 114.338 26.7413 140.17 58.607 140.17Z" fill="url(#paint0_radial_71_12075)"/>
<path d="M58.607 133.594C86.8407 133.594 109.729 110.706 109.729 82.472C109.729 54.2383 86.8407 31.3503 58.607 31.3503C30.3732 31.3503 7.48523 54.2383 7.48523 82.472C7.48523 110.706 30.3732 133.594 58.607 133.594Z" fill="url(#paint1_linear_71_12075)"/>
<path d="M84.9231 93.9354C84.9231 95.6356 84.7744 97.2931 84.4865 98.9079V98.9111C82.8812 108.102 76.8902 115.782 68.7529 119.725C64.9824 121.548 60.7516 122.575 56.2836 122.575C47.8917 122.575 40.3412 118.962 35.1045 113.213V113.21C30.4673 108.121 27.6426 101.361 27.6426 93.9354C27.6426 87.8874 29.5184 82.2775 32.7179 77.6561C33.1149 77.0836 33.534 76.5268 33.9705 75.9859C37.0752 72.1237 41.1652 69.0886 45.8578 67.254C49.089 65.9903 52.6033 65.296 56.2836 65.296C59.2032 65.296 62.0216 65.7325 64.674 66.5454C72.0363 68.796 78.1364 73.9346 81.6586 80.6421C83.7432 84.6151 84.9215 89.1369 84.9215 93.9354H84.9231Z" fill="#19B5FE"/>
<path d="M65.2623 101.728C63.3945 101.728 61.699 100.317 61.0411 98.5663C60.7769 97.8609 60.6615 97.116 60.6662 96.3663C60.6662 96.3869 60.6662 96.4058 60.6662 96.4264C60.6646 95.4695 60.7706 94.6629 60.9367 93.986C61.3226 92.4187 62.0327 91.5425 62.4819 91.0743C62.3981 91.2356 62.3174 91.4001 62.2431 91.5678C61.4697 93.2854 61.1976 95.3019 61.8603 97.0701C62.523 98.8352 64.2406 100.255 66.1274 100.232C68.2563 100.203 69.9407 98.5252 71.4716 97.0464C72.5772 95.9757 73.8757 94.6661 75.4778 94.4953C76.0266 94.4383 76.5849 94.5 77.11 94.6661C77.0894 94.8733 77.0673 95.0805 77.0452 95.2877C77.246 95.3588 77.4406 95.4474 77.6256 95.5518C77.5829 95.9567 77.5386 96.3616 77.4912 96.7649C76.7905 96.254 75.9254 95.9693 75.0587 95.9693C74.9243 95.9693 74.7898 95.9757 74.657 95.9899C73.8614 96.0753 73.1402 96.4406 72.4807 96.9183C72.8634 96.5561 73.2652 96.1971 73.6875 95.895C73.0896 96.3236 72.5329 96.8645 72.011 97.3706L71.7832 97.592C71.1379 98.2152 70.4578 98.8747 69.7177 99.433C68.4334 100.622 67.0147 101.703 65.3082 101.726C65.294 101.726 65.2781 101.726 65.2623 101.726V101.728ZM60.6662 96.2999C60.6662 96.2809 60.6662 96.2619 60.6678 96.2429C60.6678 96.2619 60.6662 96.2809 60.6662 96.2999ZM60.6694 96.1765C60.6694 96.156 60.671 96.1354 60.6725 96.1148C60.6725 96.1354 60.671 96.156 60.6694 96.1765ZM60.6741 96.05C60.6757 96.031 60.6757 96.012 60.6773 95.9931C60.6757 96.012 60.6741 96.031 60.6741 96.05ZM60.6773 95.9867C60.6789 95.9678 60.6805 95.9488 60.6805 95.9282C60.6789 95.9472 60.6773 95.9662 60.6773 95.9867ZM60.6868 95.8649C60.6884 95.8444 60.6899 95.8238 60.6915 95.8048C60.6899 95.8254 60.6884 95.846 60.6868 95.8649ZM60.6979 95.7384C60.6994 95.7179 60.701 95.6973 60.7042 95.6783C60.7026 95.6989 60.6994 95.7194 60.6979 95.7384ZM60.7184 95.5502C60.7232 95.5107 60.7279 95.4711 60.7342 95.43C60.7295 95.4695 60.7232 95.5091 60.7184 95.5502ZM60.7421 95.3652C60.7453 95.3446 60.7485 95.3256 60.7516 95.3051C60.7485 95.324 60.7453 95.3446 60.7421 95.3652ZM60.7516 95.3035C60.7548 95.2829 60.758 95.2624 60.7611 95.2434C60.758 95.2639 60.7548 95.2845 60.7516 95.3035ZM60.7611 95.2402C60.7674 95.1991 60.7753 95.1595 60.7817 95.1184C60.7738 95.1595 60.7674 95.1991 60.7611 95.2402ZM60.7817 95.1169C60.7848 95.0979 60.7896 95.0773 60.7927 95.0568C60.7896 95.0757 60.7848 95.0963 60.7817 95.1169ZM60.8165 94.9302C60.8196 94.9112 60.8244 94.8923 60.8275 94.8749C60.8228 94.8938 60.8196 94.9128 60.8165 94.9302ZM60.8291 94.8654C60.8323 94.8464 60.837 94.8274 60.8418 94.8084C60.837 94.8274 60.8339 94.8464 60.8291 94.8654ZM60.856 94.7436C60.8608 94.7246 60.8639 94.7056 60.8687 94.6867C60.8639 94.7056 60.8592 94.7246 60.856 94.7436ZM60.6694 96.1164C60.671 96.0959 60.671 96.0753 60.6725 96.0563L60.6694 96.1164ZM60.8038 94.9935C60.807 94.9729 60.8117 94.9524 60.8165 94.9318L60.8038 94.9935ZM66.2461 100.842C66.2571 100.842 66.2666 100.842 66.2761 100.841C66.2666 100.841 66.2556 100.842 66.2461 100.842ZM66.477 100.828C67.1602 100.769 67.7944 100.567 68.3891 100.271C67.7944 100.567 67.1586 100.769 66.477 100.828ZM68.3955 100.268C68.416 100.259 68.435 100.249 68.4555 100.238C68.4366 100.248 68.416 100.259 68.3955 100.268ZM68.5109 100.21C68.522 100.205 68.5331 100.198 68.5441 100.192L68.5109 100.21ZM73.7365 95.8618L73.746 95.8539L73.7744 95.8333C73.7618 95.8428 73.7476 95.8507 73.7349 95.8602L73.7365 95.8618ZM73.7855 95.827C73.7982 95.8175 73.8108 95.8096 73.8235 95.8001C73.8108 95.808 73.7982 95.8175 73.7855 95.827ZM73.8314 95.7954C73.844 95.7874 73.8567 95.7795 73.8678 95.7701C73.8551 95.778 73.8424 95.7859 73.8314 95.7954ZM73.9263 95.7337C73.9405 95.7242 73.9532 95.7163 73.9674 95.7068C73.9532 95.7147 73.9405 95.7242 73.9263 95.7337ZM74.0212 95.6736C74.0354 95.6641 74.0496 95.6562 74.0639 95.6467C74.0496 95.6546 74.0354 95.6641 74.0212 95.6736ZM74.067 95.6451C74.0813 95.6372 74.0939 95.6293 74.1082 95.6198C74.0939 95.6277 74.0813 95.6356 74.067 95.6451ZM74.4102 95.4537C74.4245 95.4458 74.4387 95.4395 74.4529 95.4332C74.4387 95.4395 74.4245 95.4474 74.4102 95.4537ZM74.4593 95.43C74.4751 95.4221 74.4893 95.4158 74.5051 95.4079C74.4893 95.4142 74.4751 95.4221 74.4593 95.43ZM74.6079 95.362C74.6222 95.3557 74.638 95.3493 74.6538 95.343C74.638 95.3493 74.6238 95.3557 74.6079 95.362ZM74.7582 95.2987C74.774 95.2924 74.7882 95.2877 74.8041 95.2813C74.7882 95.2861 74.774 95.2924 74.7582 95.2987ZM74.861 95.2608C74.8752 95.256 74.891 95.2497 74.9053 95.245C74.891 95.2497 74.8752 95.2544 74.861 95.2608ZM75.0128 95.2117C75.0286 95.207 75.0429 95.2023 75.0587 95.1991C75.0429 95.2038 75.0286 95.207 75.0128 95.2117ZM75.1156 95.1833C75.1314 95.1785 75.1457 95.1754 75.1615 95.1722C75.1457 95.1754 75.1314 95.1801 75.1156 95.1833ZM75.171 95.169C75.1868 95.1659 75.201 95.1611 75.2153 95.158C75.201 95.1611 75.1852 95.1643 75.171 95.169ZM75.2216 95.158C75.2532 95.1516 75.2864 95.1437 75.3181 95.139C75.2864 95.1453 75.2532 95.1516 75.2216 95.158ZM75.3782 95.1279C75.394 95.1248 75.4082 95.1232 75.424 95.12C75.4082 95.1216 75.394 95.1248 75.3782 95.1279ZM75.4841 95.1137C75.5 95.1121 75.5173 95.1089 75.5332 95.1074C75.5173 95.1089 75.5 95.1105 75.4841 95.1137ZM75.5695 95.1042C76.0187 95.0631 76.4774 95.1153 76.9107 95.2513C76.5739 95.1469 76.2212 95.09 75.87 95.09C75.7688 95.09 75.6692 95.0947 75.5695 95.1042ZM76.9123 95.2513L76.9297 95.256L76.9345 95.2576L76.9123 95.2497V95.2513Z" fill="#168AD3"/>
<path d="M84.9231 93.9354C84.9231 95.634 84.776 97.2947 84.4897 98.9079V98.9111C83.555 99.2005 82.9129 99.3966 82.9129 99.3966C81.9576 99.5406 81.0608 98.8731 80.4804 98.1013C79.8984 97.3311 79.4998 96.4201 78.8308 95.7242C77.9767 94.8353 76.7051 94.3703 75.4778 94.4969C73.8757 94.6677 72.5756 95.9788 71.4716 97.0496C69.9407 98.5283 68.2579 100.206 66.1275 100.235C64.2406 100.259 62.523 98.8383 61.8603 97.0733C61.1976 95.3066 61.4697 93.2901 62.2431 91.5709C63.0987 89.6667 64.5142 88.2354 65.8507 86.6759C67.282 85.0073 68.4682 83.1062 69.3745 81.104C69.9786 79.7738 70.4246 78.11 69.5484 76.9444C68.9791 76.1836 67.9858 75.8626 67.0432 75.7519C66.0974 75.6427 65.131 75.6949 64.2058 75.4719C62.3854 75.0386 60.8876 73.4791 60.527 71.6413C60.168 69.8067 61.0458 67.1401 62.5657 66.0488C62.5657 66.0488 63.3486 66.6419 64.6787 66.547C76.4015 70.1309 84.9262 81.0375 84.9262 93.937L84.9231 93.9354Z" fill="#0CAE97"/>
<path d="M84.9231 93.9354C84.9231 95.634 84.776 97.2947 84.4897 98.9079V98.9111C83.555 99.2005 82.9129 99.3966 82.9129 99.3966C81.9576 99.5406 81.0608 98.8731 80.4804 98.1013C79.8984 97.3311 79.4998 96.4201 78.8308 95.7242C77.9767 94.8353 76.7051 94.3703 75.4778 94.4969C73.8757 94.6677 72.5756 95.9788 71.4716 97.0496C69.9407 98.5283 68.2579 100.206 66.1275 100.235C64.2406 100.259 62.523 98.8383 61.8603 97.0733C61.1976 95.3066 61.4697 93.2901 62.2431 91.5709C63.0987 89.6667 64.5142 88.2354 65.8507 86.6759C67.282 85.0073 68.4682 83.1062 69.3745 81.104C69.9786 79.7738 70.4246 78.11 69.5484 76.9444C68.9791 76.1836 67.9858 75.8626 67.0432 75.7519C66.0974 75.6427 65.131 75.6949 64.2058 75.4719C62.3854 75.0386 60.8876 73.4791 60.527 71.6413C60.168 69.8067 61.0458 67.1401 62.5657 66.0488C62.5657 66.0488 63.3486 66.6419 64.6787 66.547C76.4015 70.1309 84.9262 81.0375 84.9262 93.937L84.9231 93.9354Z" fill="#3EDC81"/>
<path d="M64.549 97.6727C65.275 98.2136 66.1401 98.5457 67.0463 98.5457C67.0622 98.5457 67.0764 98.5457 67.0922 98.5457C68.416 98.5268 69.569 97.872 70.6176 97.0227C70.7235 96.9214 70.8295 96.8186 70.9355 96.7158L71.1616 96.496C71.6077 96.0626 72.0979 95.5866 72.6388 95.1611C73.6985 94.1331 74.9353 92.969 76.441 92.8077C76.5754 92.7935 76.7083 92.7872 76.8427 92.7872C77.1938 92.7872 77.5465 92.8346 77.8866 92.9248C77.8454 93.3692 77.8027 93.8136 77.7585 94.2549C77.5671 94.1726 77.371 94.1015 77.1701 94.0445C77.1495 94.2517 77.129 94.4573 77.1084 94.6645C76.5833 94.5 76.025 94.4368 75.4762 94.4937C73.8741 94.6645 72.574 95.9741 71.4701 97.0448C69.9391 98.5236 68.2563 100.202 66.1259 100.23C64.239 100.254 62.5214 98.8336 61.8587 97.0685C61.196 95.3019 61.4681 93.2854 62.2415 91.5662C62.3174 91.3985 62.3965 91.234 62.4803 91.0727C62.6416 90.7643 62.8156 90.467 63.0022 90.1791C62.7666 91.0063 62.6179 91.7512 62.5483 92.4281C62.3032 94.8432 63.0829 96.3837 64.5474 97.6711L64.549 97.6727ZM75.3623 93.8959C74.5447 93.9939 73.8092 94.3403 73.1434 94.791C73.8092 94.3403 74.5447 93.9923 75.3623 93.8959Z" fill="#30A57C"/>
<path d="M45.4228 73.2308C44.0943 74.7839 42.1015 75.6411 40.085 75.9796C38.0716 76.3149 36.0108 76.1789 33.9753 76.0413L33.9721 75.9859C37.0768 72.1237 41.1668 69.0886 45.8594 67.2556L46.3718 67.5244C47.2717 69.3591 46.7514 71.6777 45.4228 73.2324V73.2308Z" fill="#3EDC81"/>
<path d="M51.697 91.9015C51.0185 91.9015 50.3337 91.5741 49.9762 90.9826C49.7074 90.5366 49.622 89.9941 49.3199 89.5686C48.45 88.3429 46.3797 88.7399 45.3327 87.6628C44.9515 87.2706 44.7712 86.7249 44.7696 86.1745C44.9231 86.2125 45.078 86.252 45.233 86.29C45.2299 86.2837 45.2251 86.2758 45.222 86.2694C45.5335 86.3422 45.8451 86.4149 46.1567 86.4845C47.2306 87.4414 49.2013 87.1077 50.0442 88.2939C50.1755 88.4805 50.2672 88.6877 50.3495 88.9012C50.427 89.1005 50.4982 89.3029 50.5883 89.4959C50.6231 89.5686 50.6595 89.6382 50.7006 89.7078C51.1893 90.5192 52.2948 90.8339 53.1584 90.4891C53.1916 90.4765 53.2248 90.4622 53.258 90.4464C53.5965 90.2867 53.8432 90.0447 54.0156 89.7537C53.7752 90.2345 53.538 90.7184 53.2438 91.1059C53.0746 91.3621 52.8421 91.5772 52.5337 91.7228C52.2727 91.8461 51.9849 91.9046 51.697 91.9046V91.9015Z" fill="#168AD3"/>
<path d="M50.9426 81.8062C49.9146 81.1704 48.0182 81.5389 47.0487 82.2585C46.405 82.7377 45.8467 83.372 45.6095 84.1375C45.3706 84.9029 45.4988 85.8108 46.0571 86.3865C47.1041 87.4635 49.176 87.0681 50.0458 88.2923C50.3463 88.7177 50.4333 89.2602 50.7022 89.7062C51.2099 90.5492 52.3834 90.8561 53.2596 90.4448C54.2845 89.9625 54.4569 88.7225 54.3509 87.7087C54.2291 86.5557 53.859 85.4312 53.2897 84.4221C52.782 83.5254 51.9263 82.2285 50.9442 81.8062H50.9426Z" fill="#3EDC81"/>
<path d="M58.0787 106.324C56.4671 106.324 54.3952 105.636 52.54 104.224C49.4448 101.867 48.1273 98.3892 49.2787 96.8772C49.5508 96.5213 49.8892 96.3647 50.2894 96.3647C51.5879 96.3647 53.5332 98.008 55.8993 99.8078C58.996 102.164 61.6389 103.898 60.4891 105.41C60.0288 106.016 59.1574 106.324 58.0787 106.324Z" fill="#53C8FE"/>
<path d="M66.2033 109.225C65.8095 109.225 65.3872 109.166 64.9618 109.041C63.4023 108.584 62.3712 107.42 62.659 106.439C62.8361 105.838 63.4277 105.585 64.2185 105.585C64.7167 105.585 65.2924 105.685 65.8949 105.862C67.4544 106.319 68.5931 107.116 68.3069 108.095C68.0981 108.807 67.2504 109.225 66.2049 109.225H66.2033Z" fill="#53C8FE"/>
<path d="M68.7545 119.723C64.9855 121.548 60.7564 122.573 56.2852 122.573C47.8933 122.573 40.3412 118.962 35.1061 113.212V113.209L35.1378 112.451C36.868 111.994 37.8802 110.238 38.6473 108.62C39.4144 107.001 40.2732 105.212 41.9275 104.53C43.6451 103.822 45.6617 104.603 47.0455 105.843C48.4247 107.083 49.3657 108.733 50.514 110.194C52.4151 112.609 54.6941 113.342 57.6422 113.735C59.9482 114.042 62.3269 114.131 64.4905 114.988C66.5624 115.804 68.4571 117.539 68.7545 119.723Z" fill="#3EDC81"/>
<path d="M40.7935 106.133C40.4519 106.256 40.0865 106.417 39.6927 106.62C40.2589 105.713 40.9564 104.931 41.9291 104.529C43.6467 103.82 45.6632 104.602 47.0471 105.842C48.4263 107.082 49.3673 108.731 50.5156 110.193C52.4166 112.608 54.6957 113.34 57.6438 113.734C59.9497 114.041 62.3285 114.129 64.4921 114.986C65.5391 115.399 66.5402 116.046 67.3136 116.867C67.089 116.932 66.8629 116.992 66.6367 117.049C66.6699 117.082 66.7031 117.114 66.7363 117.147C66.2856 117.275 65.8301 117.389 65.3699 117.487C64.8084 117.076 64.1884 116.737 63.551 116.487C61.3874 115.632 59.0087 115.541 56.7043 115.235C53.7562 114.841 51.4772 114.109 49.5761 111.693C48.4279 110.232 47.4884 108.583 46.1077 107.343C45.086 106.427 43.7195 105.761 42.383 105.761C41.9101 105.761 41.4404 105.845 40.9896 106.03C40.9327 106.054 40.852 106.106 40.7967 106.133H40.7935Z" fill="#ACF0C9"/>
<path d="M68.59 118.989C68.3448 118.202 67.8925 117.485 67.3105 116.868C66.8281 116.356 66.2555 115.91 65.6387 115.548C65.9772 115.53 66.3125 115.507 66.6446 115.477C69.5168 115.224 72.1865 114.457 74.8183 113.27C74.6807 113.906 74.5415 114.537 74.3976 115.163L68.5884 118.989H68.59ZM40.6006 104.621C39.378 103.129 38.2661 101.472 37.2966 99.6418C35.462 95.8665 34.4324 91.6278 34.4324 87.144C34.4324 87.1298 34.4324 87.114 34.4324 87.0998C34.4355 85.3616 35.8732 84.0663 37.488 84.0663C37.8344 84.0663 38.1902 84.1264 38.5413 84.2545C39.4365 84.5819 40.4108 84.914 41.4562 85.2398C41.5179 85.2588 41.5796 85.2778 41.6413 85.2967H41.6428L41.7377 85.3268H41.7393L41.7599 85.3331L41.8326 85.3553L41.839 85.3568L41.8453 85.3584L41.9338 85.3853L41.9386 85.3869L41.9576 85.3932L42.0366 85.4169H42.0382L42.1157 85.4407L42.1363 85.447L42.141 85.4486C42.1727 85.4581 42.2043 85.4676 42.2359 85.477H42.2375L42.3166 85.5008L42.3387 85.5071L42.3577 85.5118L42.4384 85.5356H42.44L42.519 85.5593L42.5412 85.5656L42.5602 85.5704L42.6424 85.5941H42.6456L42.7436 85.6225L42.7484 85.6241L42.7658 85.6289L42.8322 85.6479L42.8654 85.6573L42.9492 85.6811L42.954 85.6827L42.9714 85.6874L43.0536 85.7111L43.0568 85.7127L43.0631 85.7143C43.1295 85.7333 43.1944 85.7507 43.2608 85.7696L43.2655 85.7712L43.2687 85.7728L43.3541 85.7965L43.3826 85.8044L43.4696 85.8282L43.4743 85.8297L43.5787 85.8582H43.5803L43.6799 85.8851L43.6862 85.8867C43.7543 85.9057 43.8238 85.9231 43.8919 85.942L43.8982 85.9436L43.9093 85.9468L44.0057 85.9721L44.0627 85.9879H44.0642C44.2952 86.0496 44.5292 86.1097 44.7665 86.1698V86.1571V86.154V86.1508V86.1461V86.1445V86.1429V86.1397V86.135V86.1318V86.1302V86.1287V86.1255V86.1223V86.1192V86.116V86.1128V86.1097V86.1049V86.1033V86.1002V86.097V86.0939V86.0907V86.0891V86.086V86.0828V86.0796V86.0765V86.0749V86.0733V86.0701V86.067V86.0638V86.0607V86.0591V86.0559V86.0527V86.0496V86.0464V86.0433V86.0401V86.0369V86.0338V86.0322V86.029V86.0259V86.0227V86.0195V86.0179V86.0164V86.0132V86.0053V86.0037V86.0006V85.9974V85.9942V85.9911V85.9879V85.9847V85.9816V85.9784V85.9768V85.9737V85.9705V85.9642V85.961V85.9515V85.9436V85.9404V85.9357V85.9294V85.9262V85.9167V85.9088V85.9057V85.9009V85.8946V85.893V85.8835V85.8819V85.874V85.8709V85.8661L44.7681 85.8598V85.8582L44.7696 85.8487V85.8471L44.7712 85.8392V85.8361V85.8313V85.825V85.8234L44.7728 85.8139V85.8123L44.7744 85.8044V85.7997V85.7949L44.776 85.787V85.7855L44.7775 85.776V85.7744L44.7791 85.7665V85.7617V85.757L44.7807 85.7491V85.7475L44.7823 85.738V85.7364L44.7839 85.7285V85.7238V85.719L44.7855 85.7111V85.7095L44.787 85.7V85.6985L44.7886 85.6906L44.7902 85.6858V85.6811L44.7918 85.6732V85.6716L44.7934 85.6621V85.6605L44.7949 85.6526V85.6479L44.7965 85.6447L44.7981 85.6368V85.6352L44.7997 85.6257V85.6241L44.8013 85.6178L44.8028 85.6099L44.8044 85.602V85.6004L44.806 85.5925V85.5909L44.8076 85.5846L44.8092 85.5767L44.8108 85.5688L44.8123 85.5609V85.5593L44.8139 85.553L44.8155 85.5435L44.8171 85.5356L44.8187 85.5277V85.5245L44.8202 85.5182L44.8218 85.5134V85.5103L44.8234 85.5023L44.825 85.4944V85.4913L44.8266 85.485L44.8282 85.477L44.8313 85.4691L44.8345 85.4612V85.4581L44.8361 85.4517L44.8376 85.4454V85.4422L44.8408 85.4343L44.844 85.4264L44.8471 85.4185L44.8487 85.4138V85.4106L44.855 85.3901C44.8645 85.36 44.874 85.33 44.8851 85.2999L44.8835 85.292C45.0559 84.7416 45.3453 84.3652 45.6253 83.9745C45.7297 83.693 45.8752 83.4305 46.0539 83.1885C46.3196 82.8247 46.6549 82.5052 47.0187 82.2364C47.1009 82.1763 47.1895 82.1177 47.2828 82.0624C47.5374 81.9121 47.8316 81.784 48.1463 81.6828C45.3485 81.1419 42.508 80.397 39.6121 79.4496V81.4804V82.0323C39.6121 82.5037 39.2309 82.8848 38.7596 82.8848C38.2883 82.8848 37.9071 82.5037 37.9071 82.0323V78.8707V78.0958C37.1875 77.8395 36.4663 77.5723 35.7419 77.2923C35.0666 77.0314 34.5035 76.5869 34.0971 76.0286C34.0465 76.0255 33.9958 76.0223 33.9452 76.0191L33.9421 75.9638C33.8013 76.1378 33.6637 76.3133 33.5277 76.4904C33.2715 76.8226 33.0216 77.1626 32.7812 77.5058C32.7891 77.4963 32.7954 77.4868 32.8033 77.4758C32.7669 77.5264 32.7306 77.5802 32.6942 77.6339H32.691C29.4915 82.2538 27.6157 87.8652 27.6157 93.9132C27.6157 101.339 30.4404 108.097 35.0776 113.187L35.1093 112.429C35.182 112.41 35.2516 112.388 35.3228 112.366C36.9234 111.826 37.885 110.15 38.6188 108.6C38.9351 107.932 39.2673 107.235 39.6627 106.599C40.028 106.014 40.4487 105.479 40.9627 105.067C40.8315 104.913 40.7018 104.758 40.5721 104.6L40.6006 104.621ZM34.048 77.0693C33.5925 77.6656 33.1655 78.2776 32.7638 78.9008C32.7986 78.847 32.8334 78.7917 32.8698 78.7379C33.2414 78.1701 33.6337 77.6134 34.0496 77.0693H34.048ZM74.3976 115.163L74.1224 116.339C72.4712 117.655 70.6713 118.793 68.7529 119.723C68.7181 119.473 68.6627 119.227 68.5884 118.989L74.3976 115.163ZM32.2529 79.7232C32.226 79.7691 32.1976 79.815 32.1707 79.8624C32.1976 79.8165 32.226 79.7691 32.2529 79.7232ZM31.7199 80.6611C31.6851 80.7244 31.6503 80.7892 31.6171 80.8525C31.6519 80.7892 31.6851 80.7244 31.7199 80.6611ZM31.5934 80.8968C31.5523 80.9758 31.5096 81.0549 31.4685 81.134C31.5096 81.0549 31.5507 80.9758 31.5934 80.8968ZM31.4352 81.2004C31.4052 81.2574 31.3767 81.3143 31.3483 81.3712C31.3767 81.3143 31.4068 81.2574 31.4352 81.2004ZM31.3024 81.4614C31.2771 81.5104 31.2534 81.5594 31.2281 81.6101C31.2518 81.561 31.2771 81.5104 31.3024 81.4614ZM31.1806 81.7081C31.1569 81.7556 31.1347 81.803 31.111 81.8505C31.1332 81.803 31.1569 81.7556 31.1806 81.7081ZM31.062 81.9517C31.0398 81.9991 31.0161 82.0466 30.994 82.094C31.0161 82.0466 31.0383 81.9991 31.062 81.9517ZM30.6207 82.9228C30.5859 83.0034 30.5511 83.0857 30.5163 83.1679C30.5511 83.0857 30.5859 83.005 30.6207 82.9228ZM30.4847 83.2438C30.461 83.3008 30.4373 83.3577 30.4151 83.4146C30.4388 83.3577 30.4626 83.3008 30.4847 83.2438ZM30.2759 83.761C30.257 83.81 30.2364 83.8607 30.2174 83.9113C30.2364 83.8607 30.2554 83.8116 30.2759 83.761ZM30.1795 84.0125C30.1605 84.0615 30.1415 84.1121 30.1241 84.1612C30.1431 84.1121 30.1621 84.0615 30.1795 84.0125ZM30.0846 84.2655C30.0656 84.3162 30.0482 84.3652 30.0292 84.4158C30.0466 84.3652 30.0656 84.3162 30.0846 84.2655ZM29.9944 84.5154C29.9754 84.5708 29.9549 84.6246 29.9359 84.6799C29.9549 84.6246 29.9739 84.5708 29.9944 84.5154ZM29.8204 85.0184C29.792 85.1022 29.7651 85.186 29.7366 85.2699C29.7635 85.186 29.792 85.1022 29.8204 85.0184ZM29.6259 85.621C29.6101 85.6732 29.5927 85.7253 29.5769 85.7775C29.5927 85.7253 29.6085 85.6732 29.6259 85.621ZM29.5452 85.8835C29.5294 85.9341 29.5152 85.9847 29.501 86.0353C29.5152 85.9847 29.531 85.9341 29.5452 85.8835ZM29.4693 86.1413C29.4551 86.1919 29.4393 86.2425 29.425 86.2947C29.4393 86.2441 29.4535 86.1935 29.4693 86.1413ZM29.3254 86.6569C29.3096 86.7138 29.2954 86.7708 29.2795 86.8293C29.2938 86.7724 29.3096 86.7138 29.3254 86.6569ZM29.2574 86.9147C29.2384 86.989 29.2194 87.0618 29.202 87.1361C29.221 87.0618 29.2384 86.989 29.2574 86.9147ZM29.191 87.1741C29.1688 87.2595 29.1483 87.3465 29.1277 87.4319C29.1483 87.3449 29.1688 87.2595 29.191 87.1741ZM29.1103 87.511C29.0961 87.5711 29.0818 87.6327 29.0676 87.6944C29.0818 87.6327 29.0961 87.5726 29.1103 87.511ZM29.0455 87.7925C29.0328 87.8463 29.0217 87.9 29.0091 87.9538C29.0202 87.9 29.0328 87.8463 29.0455 87.7925ZM28.8794 88.5912C28.8683 88.645 28.8588 88.6972 28.8493 88.7509C28.8588 88.6972 28.8699 88.645 28.8794 88.5912ZM28.7829 89.1194C28.7687 89.2001 28.756 89.2792 28.7418 89.3598C28.7545 89.2792 28.7687 89.1985 28.7829 89.1194ZM28.7386 89.3851C28.7244 89.4737 28.7102 89.5623 28.6975 89.6509C28.7117 89.5623 28.7244 89.4737 28.7386 89.3851ZM28.6849 89.7347C28.6754 89.7948 28.6675 89.8549 28.658 89.9166C28.6659 89.8565 28.6754 89.7964 28.6849 89.7347ZM28.6437 90.021C28.6358 90.0747 28.6279 90.1301 28.6216 90.1839C28.6295 90.1301 28.6358 90.0747 28.6437 90.021ZM28.5156 91.1043C28.5093 91.1644 28.5046 91.2245 28.4982 91.2846C28.503 91.2245 28.5093 91.1644 28.5156 91.1043ZM28.4903 91.3732C28.4824 91.457 28.4761 91.5409 28.4682 91.6263C28.4745 91.5424 28.4824 91.4586 28.4903 91.3732ZM28.4682 91.6263L28.4666 91.6437V91.6452C28.4603 91.7338 28.4524 91.824 28.446 91.9141L28.4682 91.6279V91.6263ZM28.4397 92.0058C28.435 92.0659 28.4318 92.1245 28.4286 92.1846C28.4318 92.1245 28.4366 92.0659 28.4397 92.0058ZM28.4081 92.5689C28.4049 92.6242 28.4033 92.678 28.4002 92.7318C28.4033 92.678 28.4049 92.6227 28.4081 92.5689ZM28.397 92.8441C28.3954 92.8995 28.3938 92.9532 28.3907 93.0086C28.3923 92.9532 28.3939 92.8995 28.397 92.8441ZM28.3828 94.5617C28.3844 94.606 28.3859 94.6503 28.3859 94.6945C28.3844 94.6503 28.3828 94.606 28.3828 94.5617ZM28.4018 95.1801C28.4033 95.226 28.4065 95.2718 28.4081 95.3177C28.4049 95.2718 28.4033 95.226 28.4018 95.1801ZM28.4176 95.4885C28.4207 95.5375 28.4239 95.5866 28.4271 95.634C28.4239 95.585 28.4207 95.536 28.4176 95.4885ZM28.4366 95.7969C28.4397 95.8475 28.4429 95.8966 28.4476 95.9472C28.4445 95.8966 28.4397 95.8475 28.4366 95.7969ZM28.4587 96.1038C28.4619 96.1544 28.4666 96.205 28.4713 96.2556C28.4666 96.205 28.4634 96.1544 28.4587 96.1038ZM28.5441 97.0227C28.5504 97.0733 28.5552 97.1239 28.5615 97.1745C28.5552 97.1239 28.5488 97.0733 28.5441 97.0227ZM28.6184 97.6316C28.6248 97.6822 28.6327 97.7328 28.639 97.7834C28.6311 97.7328 28.6248 97.6822 28.6184 97.6316ZM28.6611 97.9352C28.669 97.9858 28.6754 98.0349 28.6833 98.0855C28.6754 98.0349 28.6675 97.9858 28.6611 97.9352ZM28.707 98.2389C28.7149 98.2895 28.7228 98.3385 28.7307 98.3892C28.7228 98.3401 28.7149 98.2895 28.707 98.2389ZM28.756 98.541C28.7639 98.5916 28.7734 98.6422 28.7829 98.6928C28.7734 98.6422 28.7655 98.5916 28.756 98.541ZM28.8082 98.8431C28.8177 98.8937 28.8272 98.9427 28.8351 98.9933C28.8256 98.9427 28.8161 98.8937 28.8082 98.8431ZM28.8636 99.1436C28.8731 99.1926 28.8826 99.2416 28.892 99.2922C28.8826 99.2432 28.8731 99.1942 28.8636 99.1436ZM28.9221 99.4441C28.9316 99.4931 28.9411 99.5405 28.9522 99.5896C28.9427 99.5405 28.9316 99.4931 28.9221 99.4441ZM29.2621 100.931C29.2748 100.98 29.2874 101.027 29.3001 101.076C29.2874 101.027 29.2748 100.978 29.2621 100.931ZM29.3396 101.225C29.3523 101.274 29.3665 101.323 29.3792 101.37C29.3649 101.321 29.3523 101.274 29.3396 101.225ZM29.5041 101.81C29.5184 101.859 29.5326 101.908 29.5484 101.957C29.5342 101.908 29.5184 101.859 29.5041 101.81ZM29.5911 102.101C29.6069 102.15 29.6212 102.201 29.637 102.25C29.6212 102.201 29.6053 102.15 29.5911 102.101ZM29.8711 102.971C29.8885 103.02 29.9043 103.069 29.9217 103.117C29.9043 103.067 29.8885 103.018 29.8711 102.971ZM30.0735 103.544C30.0909 103.593 30.1099 103.642 30.1289 103.691C30.1099 103.642 30.0925 103.593 30.0735 103.544ZM30.1795 103.83C30.1984 103.879 30.2158 103.928 30.2348 103.975C30.2158 103.926 30.1969 103.877 30.1795 103.83ZM30.4009 104.394C30.4214 104.443 30.442 104.494 30.461 104.543C30.4404 104.494 30.4199 104.443 30.4009 104.394ZM30.5163 104.676C30.5369 104.725 30.5575 104.774 30.578 104.825C30.5575 104.776 30.5369 104.727 30.5163 104.676ZM30.635 104.954C30.6571 105.005 30.6792 105.054 30.6998 105.105C30.6777 105.054 30.6555 105.005 30.635 104.954ZM30.7567 105.233C30.7789 105.283 30.801 105.332 30.8232 105.383C30.801 105.334 30.7789 105.283 30.7567 105.233ZM31.0098 105.786C31.0335 105.835 31.0572 105.886 31.0794 105.935C31.0557 105.886 31.0319 105.835 31.0098 105.786ZM31.2755 106.335C31.3008 106.384 31.3245 106.435 31.3498 106.484C31.3245 106.435 31.2992 106.384 31.2755 106.335ZM31.4115 106.606C31.4368 106.656 31.4637 106.707 31.4906 106.757C31.4637 106.707 31.4384 106.656 31.4115 106.606ZM31.5507 106.876C31.5776 106.927 31.6029 106.977 31.6298 107.026C31.6029 106.976 31.576 106.925 31.5507 106.876ZM31.9888 107.679C32.0173 107.73 32.0457 107.781 32.0758 107.831C32.0473 107.781 32.0173 107.73 31.9888 107.679ZM32.1406 107.944C32.1707 107.994 32.1992 108.045 32.2292 108.095C32.1992 108.045 32.1691 107.994 32.1406 107.944ZM32.4522 108.469C32.4823 108.519 32.5139 108.568 32.5439 108.619C32.5139 108.57 32.4823 108.519 32.4522 108.469ZM32.7749 108.986C32.8081 109.036 32.8397 109.087 32.8729 109.138C32.8397 109.087 32.8065 109.036 32.7749 108.986ZM32.9409 109.242C32.9741 109.293 33.0089 109.345 33.0421 109.395C33.0089 109.345 32.9741 109.294 32.9409 109.242ZM33.1102 109.497C33.1449 109.547 33.1797 109.599 33.2145 109.65C33.1797 109.599 33.1449 109.549 33.1102 109.497ZM33.2825 109.75C33.3173 109.802 33.3537 109.853 33.3901 109.905C33.3537 109.853 33.3189 109.802 33.2825 109.75ZM33.4565 110C33.4929 110.052 33.5293 110.104 33.5672 110.155C33.5309 110.102 33.4929 110.052 33.4565 110ZM33.814 110.495C33.8519 110.547 33.8915 110.599 33.9294 110.651C33.8899 110.599 33.8519 110.547 33.814 110.495ZM34.1841 110.983C34.2252 111.036 34.2647 111.088 34.3058 111.14C34.2647 111.088 34.2236 111.036 34.1841 110.983ZM34.3723 111.224C34.415 111.278 34.4561 111.33 34.4988 111.383C34.4561 111.331 34.4134 111.278 34.3723 111.224ZM34.5636 111.463C34.6063 111.516 34.649 111.569 34.6933 111.622C34.649 111.57 34.6063 111.516 34.5636 111.463ZM34.7582 111.7C34.8025 111.754 34.8467 111.807 34.891 111.86C34.8467 111.806 34.8025 111.754 34.7582 111.7ZM39.0221 106.563C38.7232 107.07 38.4654 107.597 38.2282 108.094C38.4654 107.596 38.7232 107.07 39.0221 106.563ZM34.9733 111.874C34.9638 111.877 34.9543 111.879 34.9448 111.882C34.9543 111.879 34.9638 111.875 34.9733 111.874Z" fill="#168AD3"/>
<path d="M45.2346 86.2884C45.0781 86.2505 44.9246 86.2109 44.7712 86.1729C44.7712 85.9151 44.8092 85.6574 44.8851 85.4138C44.8946 85.3837 44.9041 85.3537 44.9152 85.3236C44.9152 85.3205 44.9152 85.3189 44.9136 85.3157C45.086 84.7653 45.3754 84.3889 45.6553 83.9983C45.6379 84.0441 45.6221 84.0916 45.6079 84.139C45.5842 84.2165 45.5636 84.294 45.5478 84.3731C45.4671 84.759 45.4766 85.1671 45.5826 85.5435C45.6712 85.8582 45.8277 86.1508 46.0571 86.3865C46.0903 86.4197 46.1235 86.4529 46.1583 86.4829C45.8467 86.4118 45.5351 86.3406 45.2236 86.2678C45.2267 86.2742 45.2315 86.2821 45.2346 86.2884Z" fill="#146CB5"/>
<path d="M58.3144 87.9364C57.3828 87.9364 56.4623 87.9095 55.5561 87.8589C55.1544 87.8431 54.7558 87.8194 54.3572 87.7909C54.3541 87.7625 54.3525 87.7356 54.3493 87.7087C54.2892 87.1314 54.1659 86.562 53.9872 86.0116C53.8084 85.4597 53.5728 84.9267 53.2881 84.4221C52.9101 83.7531 52.3391 82.8627 51.667 82.2791C51.436 82.0782 51.1941 81.9137 50.9442 81.8062C50.2388 81.3697 49.1222 81.406 48.178 81.7065C45.3801 81.1656 42.5396 80.4207 39.6437 79.4733V78.7047C48.1922 81.5357 56.4528 82.646 64.7562 81.754C66.061 81.6132 67.3642 81.425 68.6659 81.1862C68.911 81.1419 69.1562 81.0945 69.3997 81.0454C69.3918 81.0644 69.3824 81.0834 69.3744 81.1024C68.4682 83.1047 67.282 85.0057 65.8507 86.6743C65.6245 86.9384 65.3967 87.1978 65.169 87.4572C64.8717 87.4952 64.5727 87.5284 64.2738 87.5568C62.2525 87.821 60.2597 87.938 58.316 87.938L58.3144 87.9364ZM67.2867 83.7009C67.2725 83.7231 67.2599 83.7452 67.2456 83.7674C67.2599 83.7452 67.2741 83.7231 67.2867 83.7009ZM67.2456 83.7674L67.2077 83.8259L67.2172 83.8101L67.244 83.7674H67.2456ZM67.0669 84.0425L67.0274 84.1027C67.04 84.0821 67.0542 84.0631 67.0669 84.0425ZM66.8439 84.3747L66.8059 84.4316C66.8186 84.4126 66.8312 84.3937 66.8439 84.3747ZM66.7506 84.5107C66.7363 84.5297 66.7237 84.5502 66.7095 84.5708C66.7237 84.5518 66.7363 84.5313 66.7506 84.5107ZM66.5687 84.7685C66.5545 84.7891 66.5386 84.8096 66.5244 84.8318C66.5386 84.8112 66.5545 84.7906 66.5687 84.7685ZM66.5228 84.8333C66.5086 84.8539 66.4944 84.8745 66.4785 84.8934C66.4928 84.8729 66.507 84.8539 66.5228 84.8333ZM66.3773 85.031L66.3378 85.0848C66.352 85.0674 66.3647 85.0484 66.3773 85.031ZM66.3283 85.0975C66.3141 85.1164 66.2998 85.1354 66.2872 85.1528C66.3014 85.1338 66.3156 85.1164 66.3283 85.0975ZM66.235 85.2208C66.2208 85.2398 66.2065 85.2572 66.1939 85.2762C66.2081 85.2572 66.2223 85.2398 66.235 85.2208ZM66.1844 85.2873L66.1464 85.3379C66.1591 85.3205 66.1717 85.3047 66.1844 85.2873ZM65.9424 85.6004C65.9282 85.6194 65.9123 85.6384 65.8981 85.6558C65.9123 85.6368 65.9282 85.6178 65.9424 85.6004ZM65.6925 85.9104C65.6783 85.9278 65.664 85.9468 65.6482 85.9642C65.6624 85.9468 65.6783 85.9278 65.6925 85.9104ZM65.5407 86.0923C65.5264 86.1097 65.5106 86.1287 65.4948 86.1461C65.5106 86.1287 65.5248 86.1097 65.5407 86.0923ZM65.4853 86.1571C65.4711 86.1745 65.4553 86.1919 65.441 86.2093C65.4568 86.1919 65.4711 86.1745 65.4853 86.1571ZM67.1539 83.9034C67.1397 83.9255 67.127 83.9461 67.1128 83.9666L67.1539 83.9034ZM66.8866 84.3067C66.8724 84.3272 66.8581 84.3494 66.8439 84.3699L66.8866 84.3067ZM66.6082 84.7068C66.594 84.7258 66.5798 84.7464 66.5671 84.7653L66.6082 84.7068ZM65.887 85.6668C65.8728 85.6858 65.857 85.7048 65.8428 85.7222L65.887 85.6668ZM65.5834 86.0385C65.5691 86.0559 65.5533 86.0749 65.5391 86.0923L65.5834 86.0385Z" fill="#168AD3"/>
<path d="M68.6548 83.799C68.6675 83.7768 68.6801 83.7563 68.6928 83.7357C68.6801 83.7579 68.6675 83.7784 68.6548 83.799ZM68.7544 83.6313C68.7703 83.6044 68.7861 83.5776 68.8003 83.5523C68.7845 83.5791 68.7687 83.606 68.7544 83.6313ZM68.8035 83.5475C69.1451 82.956 69.4646 82.3471 69.7603 81.7208C69.4646 82.3471 69.1451 82.9576 68.8035 83.5475ZM70.1241 80.8968C72.778 80.3337 75.4303 79.5651 78.0953 78.5861C78.0906 78.847 78.0842 79.1096 78.0779 79.3705C78.2835 79.2962 78.4876 79.2203 78.6932 79.1444C78.6631 80.4065 78.6204 81.667 78.5682 82.9244C76.5169 84.0536 74.4418 84.9583 72.3684 85.67C72.419 85.6526 72.4696 85.6352 72.5186 85.6178C70.4262 86.3801 68.291 86.9717 66.0958 87.3228C65.789 87.3718 65.4806 87.4161 65.1706 87.4556C65.3983 87.1962 65.6261 86.9369 65.8522 86.6727C67.2836 85.0042 68.4698 83.1031 69.376 81.1008C69.3839 81.0818 69.3934 81.0628 69.4013 81.0438C69.6433 80.9964 69.8837 80.9474 70.1257 80.8952L70.1241 80.8968ZM66.1211 87.2911L66.1401 87.2706C66.6541 87.1804 67.1697 87.0808 67.6853 86.9701C67.1681 87.0808 66.6541 87.1804 66.1401 87.2706L66.1211 87.2927V87.2911ZM72.3415 85.6779C72.2846 85.6969 72.2276 85.7175 72.1707 85.7364C72.2276 85.7175 72.2846 85.6985 72.3415 85.6779ZM71.9493 85.8092C71.8939 85.8282 71.837 85.8471 71.7816 85.8645C71.837 85.8456 71.8939 85.8282 71.9493 85.8092ZM71.7531 85.874C71.6962 85.893 71.6408 85.9104 71.5839 85.9294C71.6408 85.912 71.6962 85.893 71.7531 85.874ZM71.5602 85.9357C71.5032 85.9547 71.4447 85.9721 71.3878 85.9911C71.4447 85.9737 71.5032 85.9547 71.5602 85.9357ZM71.3641 85.9974C71.3071 86.0148 71.2502 86.0338 71.1917 86.0512C71.2486 86.0338 71.3056 86.0148 71.3641 85.9974ZM71.1695 86.0575C71.111 86.0749 71.0541 86.0939 70.9956 86.1113C71.0541 86.0939 71.111 86.0765 71.1695 86.0575ZM70.7789 86.1761C70.7219 86.1935 70.6634 86.2109 70.6049 86.2267C70.6634 86.2093 70.7204 86.1935 70.7789 86.1761ZM70.2111 86.3406L70.2048 86.3422C70.1415 86.3596 70.0798 86.377 70.0166 86.3944H70.0134L70.2095 86.339L70.2111 86.3406ZM69.6227 86.5019C69.5595 86.5193 69.4962 86.5351 69.4345 86.5509C69.4978 86.5351 69.5595 86.5177 69.6227 86.5019ZM69.4298 86.5525C69.3697 86.5683 69.3096 86.5842 69.2479 86.6C69.308 86.5842 69.3681 86.5683 69.4298 86.5525ZM69.0376 86.6522C68.9759 86.668 68.9158 86.6822 68.8541 86.698C68.9158 86.6838 68.9759 86.668 69.0376 86.6522ZM68.843 86.7012C68.7813 86.717 68.7196 86.7312 68.658 86.7455C68.7196 86.7312 68.7813 86.7154 68.843 86.7012ZM68.4555 86.7945C68.3954 86.8088 68.3337 86.823 68.2736 86.8372C68.3337 86.823 68.3938 86.8088 68.4555 86.7945ZM68.0649 86.8847C68.0032 86.8989 67.9431 86.9115 67.8814 86.9258C67.9431 86.9131 68.0032 86.8989 68.0649 86.8847ZM67.8719 86.9274C67.8087 86.9416 67.7454 86.9543 67.6837 86.9685C67.747 86.9543 67.8102 86.9416 67.8719 86.9274Z" fill="#30A57C"/>
<path d="M35.3734 112.413L35.3513 112.388C36.9518 111.848 37.9134 110.172 38.6473 108.622C38.9636 107.955 39.2958 107.257 39.6911 106.621C39.824 106.792 39.9584 106.961 40.0945 107.129L40.0929 107.132L40.1087 107.105C40.2542 107.298 40.4013 107.49 40.5484 107.676C46.3844 114.561 54.1453 117.866 61.4839 117.732C62.7365 117.71 63.9765 117.587 65.1911 117.363C65.2496 117.405 65.3082 117.446 65.3667 117.488C66.1496 118.061 66.8202 118.777 67.2678 119.598C67.2393 119.611 67.2108 119.622 67.1824 119.635C67.2092 119.624 67.2345 119.613 67.2614 119.601C67.3753 119.813 67.4749 120.035 67.5572 120.269C64.0967 121.752 60.2866 122.573 56.2836 122.573C51.1355 122.573 46.3038 121.215 42.1284 118.836C39.4982 117.337 37.129 115.434 35.1045 113.212V113.209L35.1362 112.451C35.2089 112.432 35.2785 112.41 35.3497 112.388L35.3718 112.413H35.3734ZM66.7775 119.804C66.7395 119.82 66.7015 119.834 66.6652 119.85C66.7031 119.834 66.7411 119.82 66.7775 119.804ZM66.613 119.87C66.5766 119.885 66.5402 119.899 66.5054 119.913C66.5418 119.899 66.5782 119.885 66.613 119.87ZM66.4485 119.935C66.4184 119.946 66.3884 119.959 66.3599 119.97C66.39 119.959 66.42 119.946 66.4485 119.935ZM66.2824 120C66.2619 120.008 66.2429 120.016 66.2223 120.022C66.2413 120.014 66.2619 120.006 66.2824 120ZM64.791 120.525C64.7594 120.535 64.7277 120.546 64.6961 120.555C64.7277 120.546 64.7594 120.536 64.791 120.525ZM64.6218 120.579C64.5996 120.585 64.5759 120.593 64.5537 120.599C64.5759 120.593 64.598 120.585 64.6218 120.579ZM64.4541 120.631C64.432 120.637 64.4098 120.645 64.3861 120.652C64.4082 120.645 64.4304 120.637 64.4541 120.631ZM64.1188 120.731C64.0982 120.737 64.0761 120.743 64.0555 120.75C64.0777 120.743 64.0982 120.737 64.1188 120.731ZM63.2742 120.963C63.241 120.971 63.2094 120.981 63.1762 120.988C63.2094 120.981 63.241 120.973 63.2742 120.963ZM62.5926 121.131C62.5752 121.136 62.5562 121.139 62.5388 121.144C62.5562 121.14 62.5752 121.136 62.5926 121.131ZM61.0458 121.441C61.0031 121.449 60.9604 121.455 60.9177 121.463C60.9604 121.457 61.0031 121.449 61.0458 121.441ZM38.3088 110.529C38.4006 110.386 38.4876 110.237 38.573 110.088C38.4876 110.237 38.4006 110.384 38.3088 110.529ZM38.6157 110.014C38.7137 109.84 38.8086 109.663 38.8988 109.486C38.8086 109.663 38.7137 109.838 38.6157 110.014ZM39.0506 109.182C39.0759 109.131 39.0996 109.081 39.1249 109.03L39.0506 109.182ZM40.5832 107.719C40.6243 107.771 40.667 107.823 40.7097 107.877C40.667 107.825 40.6259 107.773 40.5832 107.719ZM40.8441 108.043C40.8868 108.095 40.9295 108.148 40.9722 108.198C40.9295 108.146 40.8868 108.095 40.8441 108.043ZM41.3755 108.677C41.4182 108.726 41.4609 108.777 41.5052 108.826C41.4625 108.777 41.4198 108.728 41.3755 108.677ZM41.918 109.289C41.9623 109.339 42.0066 109.386 42.0509 109.433C42.0066 109.386 41.9623 109.337 41.918 109.289ZM42.1948 109.587C42.2391 109.634 42.2834 109.682 42.3292 109.729C42.285 109.682 42.2391 109.634 42.1948 109.587ZM42.4732 109.879C42.519 109.927 42.5633 109.973 42.6092 110.02C42.5633 109.974 42.5174 109.927 42.4732 109.879ZM42.7563 110.167C42.8021 110.213 42.8464 110.257 42.8923 110.303C42.8464 110.259 42.8021 110.213 42.7563 110.167ZM43.0425 110.45C43.0884 110.495 43.1327 110.539 43.1786 110.583C43.1327 110.539 43.0868 110.495 43.0425 110.45ZM43.3288 110.727C43.3747 110.771 43.4205 110.814 43.4664 110.858C43.4205 110.816 43.3747 110.771 43.3288 110.727ZM43.9108 111.266C43.9567 111.308 44.0041 111.35 44.0516 111.391C44.0041 111.35 43.9583 111.308 43.9108 111.266ZM44.2066 111.529C44.254 111.57 44.2999 111.611 44.3473 111.651C44.2999 111.61 44.254 111.57 44.2066 111.529ZM45.4133 112.522C45.4608 112.56 45.5082 112.597 45.5557 112.633C45.5082 112.597 45.4608 112.559 45.4133 112.522ZM45.7218 112.758C45.7692 112.794 45.8166 112.831 45.8641 112.865C45.8166 112.829 45.7692 112.794 45.7218 112.758ZM46.3449 113.215C46.3923 113.248 46.4382 113.283 46.4857 113.316C46.4382 113.283 46.3908 113.25 46.3449 113.215ZM46.9791 113.653C47.025 113.683 47.0708 113.715 47.1167 113.745C47.0708 113.715 47.025 113.685 46.9791 113.653ZM47.3144 113.873C47.354 113.898 47.3935 113.925 47.4346 113.95C47.3951 113.925 47.3555 113.898 47.3144 113.873ZM47.6655 114.096C47.6956 114.115 47.724 114.134 47.7541 114.151C47.724 114.132 47.6956 114.113 47.6655 114.096ZM48.0752 114.347C48.1052 114.366 48.1368 114.384 48.1669 114.401C48.1368 114.382 48.1052 114.365 48.0752 114.347ZM49.0478 114.904C49.0969 114.931 49.1443 114.956 49.1933 114.982C49.1443 114.956 49.0969 114.929 49.0478 114.904ZM49.3752 115.08C49.4243 115.105 49.4749 115.132 49.5239 115.157C49.4749 115.132 49.4243 115.107 49.3752 115.08ZM49.7042 115.25C49.7548 115.276 49.807 115.301 49.8576 115.328C49.807 115.303 49.7548 115.277 49.7042 115.25ZM50.3669 115.575C50.4191 115.6 50.4713 115.624 50.5235 115.647C50.4713 115.624 50.4191 115.598 50.3669 115.575ZM50.7006 115.73C50.7528 115.753 50.805 115.777 50.8572 115.799C50.805 115.776 50.7528 115.752 50.7006 115.73ZM51.0359 115.878C51.0881 115.902 51.1419 115.924 51.1941 115.946C51.1419 115.924 51.0881 115.901 51.0359 115.878ZM51.7081 116.161C51.7618 116.184 51.814 116.204 51.8678 116.225C51.814 116.204 51.7618 116.182 51.7081 116.161ZM52.0465 116.296C52.1003 116.316 52.1525 116.337 52.2063 116.356C52.1525 116.335 52.1003 116.315 52.0465 116.296ZM52.385 116.424C52.4388 116.445 52.4925 116.464 52.5463 116.483C52.4925 116.464 52.4388 116.443 52.385 116.424ZM52.7234 116.547C52.7772 116.566 52.831 116.585 52.8864 116.604C52.8326 116.585 52.7788 116.566 52.7234 116.547ZM53.0635 116.666C53.1173 116.685 53.171 116.702 53.2248 116.72C53.171 116.702 53.1173 116.683 53.0635 116.666ZM53.4035 116.778C53.4573 116.796 53.5127 116.813 53.5664 116.831C53.5111 116.813 53.4573 116.796 53.4035 116.778ZM53.7452 116.886C53.8005 116.903 53.8543 116.919 53.9096 116.936C53.8543 116.921 53.8005 116.903 53.7452 116.886ZM54.43 117.087C54.4853 117.103 54.5407 117.117 54.5961 117.133C54.5407 117.118 54.4853 117.103 54.43 117.087ZM55.118 117.267C55.1733 117.281 55.2287 117.294 55.284 117.307C55.2287 117.294 55.1733 117.28 55.118 117.267ZM55.4628 117.349C55.5181 117.362 55.5735 117.375 55.6273 117.387C55.5719 117.375 55.5181 117.362 55.4628 117.349ZM55.8091 117.427C55.8645 117.438 55.9183 117.45 55.972 117.462C55.9167 117.45 55.8629 117.438 55.8091 117.427ZM56.4987 117.564C56.5525 117.574 56.6078 117.585 56.6616 117.594C56.6063 117.585 56.5525 117.574 56.4987 117.564ZM57.1899 117.681C57.2452 117.689 57.299 117.699 57.3543 117.707C57.299 117.699 57.2452 117.691 57.1899 117.681ZM57.5346 117.732C57.59 117.74 57.6438 117.748 57.6976 117.754C57.6422 117.746 57.5884 117.74 57.5346 117.732ZM57.8826 117.778C57.9364 117.784 57.9886 117.792 58.0423 117.797C57.9886 117.791 57.9364 117.784 57.8826 117.778ZM58.2274 117.819C58.2812 117.825 58.3334 117.832 58.3871 117.836C58.3334 117.83 58.2796 117.825 58.2274 117.819ZM58.5722 117.855C58.6259 117.86 58.6797 117.866 58.7319 117.871C58.6781 117.866 58.6244 117.862 58.5722 117.855ZM58.9217 117.885C58.9739 117.89 59.0245 117.893 59.0767 117.898C59.0245 117.895 58.9739 117.89 58.9217 117.885ZM59.2697 117.911C59.3203 117.914 59.3709 117.917 59.4199 117.92C59.3693 117.917 59.3187 117.914 59.2697 117.911ZM59.6208 117.931C59.6682 117.934 59.7172 117.936 59.7647 117.939C59.7172 117.938 59.6698 117.934 59.6208 117.931ZM59.9719 117.947C60.0177 117.949 60.0636 117.95 60.1079 117.952C60.062 117.95 60.0162 117.949 59.9719 117.947ZM60.3341 117.957C60.3736 117.958 60.4116 117.958 60.4511 117.96C60.4116 117.96 60.3736 117.958 60.3341 117.957Z" fill="#30A57C"/>
<path d="M66.6351 117.05C66.8613 116.993 67.0875 116.932 67.312 116.868C67.8941 117.485 68.3448 118.202 68.5916 118.989C68.6659 119.228 68.7212 119.472 68.7545 119.723C68.3606 119.915 67.9621 120.096 67.5588 120.269C67.475 120.035 67.3769 119.813 67.263 119.601C67.2646 119.6 67.2678 119.6 67.2693 119.598C66.8233 118.777 66.1512 118.063 65.3683 117.488C65.3113 117.446 65.2528 117.405 65.1927 117.363C65.6292 117.284 66.0626 117.191 66.4912 117.085C66.5387 117.074 66.5877 117.061 66.6351 117.049V117.05Z" fill="#7DB3AE"/>
<path d="M32.7211 77.6561H32.7179C32.7543 77.6023 32.7907 77.5485 32.8302 77.4979C32.7938 77.5485 32.7575 77.6023 32.7211 77.6561Z" fill="#17296E"/>
<path d="M81.0798 77.4015C65.7842 83.9065 51.3253 83.3245 35.772 77.3129C34.279 76.7356 33.3347 75.2552 33.4107 73.6547L34.0275 65.4842L34.086 64.7076L34.3343 61.4068L34.6649 57.0464L35.0017 52.5689H81.5037L81.9022 57.1017L82.2739 61.3531L82.5602 64.6396L82.6535 65.7214L83.3557 73.7274C83.4522 75.3074 82.5396 76.7767 81.0798 77.3967V77.4015Z" fill="#6157A4"/>
<path d="M64.1868 81.0723C64.0556 81.047 63.9243 81.0233 63.7914 80.998C68.7276 80.3005 73.6859 78.9008 78.7327 76.7641C78.7296 77.0314 78.7264 77.3018 78.7217 77.5691C73.8867 79.4291 69.0692 80.5978 64.1868 81.0739V81.0723ZM80.6338 67.7965L80.4092 65.3371L80.3159 64.2537L80.0296 60.9671L79.9379 59.9249L80.2178 59.6101L81.3566 59.2717L82.0477 67.1575C81.5242 67.3346 81.0498 67.5497 80.6338 67.798V67.7965Z" fill="#BBB7D8"/>
<path d="M39.6421 77.9329V60.6334L56.1081 65.5348C56.7961 65.7404 57.503 65.8416 58.2116 65.8416C58.9186 65.8416 59.6271 65.7388 60.3151 65.5348L79.9173 59.7003L79.9363 59.9265L78.7991 61.2028C77.8597 62.2577 76.6434 63.0311 75.288 63.4344L59.0388 68.2725C58.7683 68.3532 58.4884 68.3927 58.2068 68.3927C57.9269 68.3927 57.647 68.3532 57.3765 68.2725L52.4878 66.8174C52.2411 66.7431 51.9944 66.7099 51.7524 66.7099C50.4523 66.7099 49.2993 67.7095 49.1949 69.0854L48.8502 73.6578C48.7742 75.2584 49.72 76.7388 51.2115 77.316C55.4739 78.9625 59.654 80.2024 63.7899 80.9996C63.0734 81.1008 62.3569 81.1878 61.6405 81.2589C62.4898 81.2178 63.3391 81.1561 64.1837 81.0739C65.8016 80.9157 67.4117 80.6832 69.0186 80.3733C69.2511 80.329 69.4852 80.2815 69.7177 80.2341C69.9454 80.1866 70.1732 80.1376 70.4025 80.0886C73.1798 79.4765 75.9475 78.6382 78.7201 77.5707C78.7153 77.8332 78.7106 78.0958 78.7058 78.3583C75.8226 79.4528 72.9647 80.2958 70.121 80.8983C69.879 80.949 69.6386 80.9996 69.3966 81.047C69.1514 81.096 68.9063 81.1419 68.6627 81.1878C59.0324 82.9544 49.5287 81.9802 39.6406 78.7063V77.9344L39.6421 77.9329ZM35.2263 59.3191L34.5099 59.1056L34.3343 61.41L34.086 64.7108L34.0275 65.4873L33.4107 73.6578C33.3711 74.4755 33.6005 75.2631 34.0307 75.9132C34.0623 75.9606 34.0939 76.0065 34.1271 76.0508C34.5336 76.6091 35.0966 77.0535 35.772 77.3145C36.4964 77.5944 37.2176 77.8617 37.9372 78.1179V77.3413V60.1257L35.2263 59.3191ZM36.0345 76.6328C36.0155 76.6265 35.9982 76.6186 35.9792 76.6107C35.9966 76.6186 36.0155 76.6249 36.0345 76.6328ZM35.9776 76.6107C35.9602 76.6027 35.9412 76.5964 35.9238 76.5885C35.9412 76.5964 35.9602 76.6043 35.9776 76.6107ZM35.9222 76.5869C35.9048 76.579 35.8859 76.5711 35.8685 76.5632C35.8859 76.5711 35.9033 76.579 35.9222 76.5869ZM35.8685 76.5632C35.8511 76.5553 35.8321 76.5474 35.8147 76.5379C35.8321 76.5458 35.8511 76.5553 35.8685 76.5632ZM35.7609 76.511C35.7435 76.5031 35.7277 76.4936 35.7103 76.4841C35.7277 76.4936 35.7435 76.5015 35.7609 76.511ZM35.7087 76.4841C35.6739 76.4651 35.6407 76.4462 35.6075 76.4272C35.6407 76.4462 35.6755 76.4651 35.7087 76.4841ZM35.6059 76.4272C35.5901 76.4177 35.5727 76.4082 35.5569 76.3971C35.5727 76.4066 35.5901 76.4177 35.6059 76.4272ZM35.5553 76.3971C35.5395 76.3876 35.5221 76.3766 35.5063 76.3671C35.5221 76.3782 35.5395 76.3876 35.5553 76.3971ZM35.5063 76.3655C35.4905 76.356 35.4746 76.3449 35.4588 76.3339C35.4746 76.3449 35.4905 76.3544 35.5063 76.3655ZM35.4572 76.3339C35.4414 76.3228 35.4256 76.3133 35.4098 76.3022C35.4256 76.3133 35.4414 76.3244 35.4572 76.3339ZM35.3608 76.2674C35.345 76.2564 35.3307 76.2453 35.3165 76.2342C35.3307 76.2453 35.3465 76.2564 35.3608 76.2674ZM35.3133 76.2326C35.2833 76.2105 35.2532 76.1868 35.2232 76.1615C35.2532 76.1852 35.2817 76.2089 35.3133 76.2326ZM35.2232 76.1615C35.2089 76.1488 35.1947 76.1378 35.1789 76.1251C35.1931 76.1378 35.2074 76.1504 35.2232 76.1615ZM35.1789 76.1235L35.1726 76.1172C35.1599 76.1061 35.1488 76.0966 35.1362 76.0856C35.1504 76.0982 35.1647 76.1109 35.1789 76.1235ZM35.0903 76.046C35.0761 76.0334 35.0634 76.0207 35.0508 76.0081C35.0634 76.0207 35.0777 76.0334 35.0903 76.046ZM35.0492 76.0081C35.035 75.9954 35.0223 75.9812 35.0081 75.9685C35.0207 75.9812 35.035 75.9954 35.0492 76.0081ZM35.0081 75.9669C34.9954 75.9543 34.9812 75.9401 34.9685 75.9274C34.9812 75.9401 34.9938 75.9543 35.0081 75.9669ZM34.967 75.9258C34.9543 75.9132 34.9416 75.8989 34.929 75.8863C34.9416 75.9005 34.9543 75.9132 34.967 75.9258ZM34.8135 75.755C34.7898 75.7265 34.7661 75.6965 34.7439 75.668C34.7661 75.6981 34.7898 75.7265 34.8135 75.755ZM34.551 75.3818C34.5415 75.3659 34.532 75.3501 34.5225 75.3327C34.532 75.3485 34.5415 75.3659 34.551 75.3818ZM34.5225 75.3327L34.5178 75.3248C34.5099 75.3122 34.5035 75.2995 34.4956 75.2869C34.5035 75.3027 34.513 75.3185 34.5225 75.3343V75.3327ZM34.4941 75.2821C34.4846 75.2663 34.4767 75.2489 34.4672 75.2331C34.4751 75.2489 34.4846 75.2663 34.4941 75.2821ZM34.4672 75.2331C34.4593 75.2173 34.4498 75.1999 34.4419 75.1841C34.4498 75.1999 34.4577 75.2173 34.4672 75.2331ZM34.4403 75.1793C34.4324 75.1635 34.4245 75.1477 34.4181 75.1319C34.426 75.1477 34.4324 75.1635 34.4403 75.1793ZM34.415 75.1271C34.4071 75.1113 34.4007 75.0955 34.3928 75.0797C34.3992 75.0955 34.4071 75.1113 34.415 75.1271ZM34.3913 75.0765C34.3833 75.0607 34.377 75.0433 34.3691 75.0259C34.3754 75.0433 34.3833 75.0591 34.3913 75.0765ZM34.3691 75.0243C34.3612 75.0069 34.3549 74.9895 34.347 74.9721C34.3533 74.9895 34.3612 75.0069 34.3691 75.0243ZM34.347 74.9705C34.3406 74.9547 34.3343 74.9373 34.328 74.9199C34.3343 74.9373 34.3406 74.9531 34.347 74.9705ZM34.3264 74.9152C34.3201 74.8994 34.3138 74.882 34.309 74.8662C34.3153 74.882 34.3201 74.8994 34.3264 74.9152ZM34.3058 74.8614C34.2995 74.8456 34.2948 74.8282 34.2885 74.8124C34.2932 74.8282 34.2995 74.8456 34.3058 74.8614ZM34.2869 74.8076C34.2805 74.7902 34.2758 74.7728 34.2695 74.7554C34.2742 74.7728 34.2805 74.7902 34.2869 74.8076ZM34.2521 74.6953C34.2473 74.6795 34.2426 74.6621 34.2378 74.6463C34.2426 74.6637 34.2473 74.6795 34.2521 74.6953ZM34.2363 74.64C34.2315 74.6226 34.2268 74.6068 34.2236 74.5894C34.2284 74.6068 34.2315 74.6226 34.2363 74.64ZM34.2078 74.5293C34.203 74.5103 34.1999 74.4929 34.1951 74.4739C34.1983 74.4929 34.203 74.5103 34.2078 74.5293ZM34.173 74.3569C34.1698 74.3395 34.1667 74.3221 34.1651 74.3047C34.1683 74.3221 34.1698 74.3395 34.173 74.3569ZM34.1635 74.3015C34.1603 74.2825 34.1588 74.2652 34.1556 74.2462C34.1588 74.2652 34.1603 74.2841 34.1635 74.3015ZM34.1556 74.2446C34.1524 74.2256 34.1509 74.2082 34.1493 74.1892C34.1509 74.2082 34.154 74.2256 34.1556 74.2446ZM34.1477 74.1845C34.1461 74.1671 34.1445 74.1497 34.1429 74.1307C34.1445 74.1481 34.1461 74.1655 34.1477 74.1845ZM34.1366 74.0675C34.135 74.0485 34.1335 74.0311 34.1335 74.0121C34.135 74.0311 34.135 74.0501 34.1366 74.0675ZM34.1335 74.0105C34.1319 73.9915 34.1319 73.9726 34.1303 73.952C34.1303 73.971 34.1319 73.99 34.1335 74.0105ZM34.1303 73.9504C34.1303 73.9314 34.1287 73.9125 34.1287 73.8951C34.1287 73.914 34.1287 73.933 34.1303 73.9504ZM34.1287 73.8302C34.1287 73.8128 34.1287 73.7938 34.1303 73.7764C34.1303 73.7938 34.1303 73.8128 34.1287 73.8302ZM34.1303 73.7701C34.1303 73.7511 34.1319 73.7322 34.1319 73.7132C34.1303 73.7322 34.1303 73.7511 34.1303 73.7701Z" fill="#494994"/>
<path d="M61.6436 81.2574C62.3601 81.1862 63.075 81.0992 63.793 80.998C63.9243 81.0233 64.0571 81.0486 64.1884 81.0723C63.3422 81.1546 62.4945 81.2163 61.6452 81.2574H61.6436ZM79.9379 59.9249L79.9189 59.6987L80.2194 59.6086L79.9395 59.9233L79.9379 59.9249Z" fill="#878CB9"/>
<path d="M93.0825 49.4532V55.0188L58.2116 65.3972L23.3391 55.0188V49.4532H93.0825Z" fill="#6157A4"/>
<path d="M90.8161 54.9318V50.8893L92.3518 50.4322V54.4731L90.8161 54.9318Z" fill="#BBB7D8"/>
<path d="M57.6754 64.3549C57.3765 64.328 57.0792 64.2774 56.785 64.2031C57.0792 64.2758 57.3765 64.3264 57.6754 64.3549ZM24.0698 50.4322L23.3391 50.2155V55.0204L33.8488 58.1488L34.5652 58.3623L35.2817 58.5758L37.9356 59.365V58.6027V54.5601L24.0698 50.4338V50.4322ZM34.3833 57.5446L33.9057 57.4022L24.0698 54.4747L34.3833 57.5446ZM56.7296 64.192C56.7138 64.1873 56.6964 64.1841 56.6806 64.1794C56.6964 64.1841 56.7138 64.1888 56.7296 64.192ZM56.5936 64.1556L56.5841 64.1525L56.5889 64.1541L56.5936 64.1556ZM56.5224 64.1351L39.6405 59.1104V55.0678L56.8925 60.2017C57.3243 60.3298 57.7656 60.3946 58.21 60.3946V64.3818V65.3624V65.4004L58.0503 65.3529L39.6421 59.8743V59.1119L56.524 64.1367L56.5224 64.1351Z" fill="#494994"/>
<path d="M93.0825 49.4516L58.2116 59.83L23.3391 49.4516L58.2116 35.7076L93.0825 49.4516Z" fill="#6157A4"/>
<path d="M57.2294 59.5374L23.3391 49.4532L46.9427 40.1487C37.2856 47.356 43.0821 53.6823 57.2294 59.539V59.5374Z" fill="#6157A4"/>
<path d="M58.21 58.9301C57.9079 58.9301 57.6042 58.8858 57.3101 58.7988L55.8518 58.3654L84.4818 49.8454C85.4798 49.5481 85.5399 48.1594 84.5719 47.7767L57.0776 36.9412C57.4429 36.8005 57.8272 36.7293 58.2116 36.7293C58.6038 36.7293 58.996 36.8036 59.3693 36.9507L90.8445 49.3567L59.1115 58.8004C58.8173 58.8889 58.5136 58.9316 58.21 58.9316V58.9301Z" fill="#BBB7D8"/>
<path d="M62.5704 46.4893C62.5704 47.5458 60.6188 48.403 58.2116 48.403C55.8044 48.403 53.8527 47.5458 53.8527 46.4893C53.8527 45.4312 55.8044 44.5755 58.2116 44.5755C60.6188 44.5755 62.5704 45.4312 62.5704 46.4893Z" fill="#102770"/>
<path d="M38.7896 82.907C38.3183 82.907 37.9372 82.5258 37.9372 82.0545V54.0493C37.9372 53.6981 38.1523 53.3818 38.4812 53.2553L57.9032 45.6953C58.3428 45.5245 58.8363 45.7428 59.0071 46.1809C59.1779 46.619 58.9612 47.114 58.5216 47.2848L39.6437 54.6329V82.0545C39.6437 82.5258 39.2625 82.907 38.7912 82.907H38.7896Z" fill="#102770"/>
<path d="M37.1306 89.3456H40.5942C41.4436 89.3456 42.0841 88.5722 41.9244 87.7371L40.9469 82.6049C40.8252 81.9659 40.2669 81.5025 39.6152 81.5025H38.3516C37.7237 81.5025 37.178 81.9327 37.0325 82.5432L35.8099 87.677C35.6075 88.5279 36.2528 89.3456 37.1274 89.3456H37.1306Z" fill="#FEDC34"/>
<path d="M52.3265 57.3153L41.23 54.0129L45.01 52.542C46.7419 54.1726 49.2218 55.7621 52.3249 57.3153H52.3265Z" fill="#494994"/>
<path d="M38.5682 53.2205L25.5786 49.3551L45.1476 41.6417C43.12 43.5491 42.1758 45.3932 42.1758 47.1852C42.1758 48.5517 42.7262 49.8881 43.7653 51.1961L38.5682 53.2189V53.2205Z" fill="#494994"/>
<path d="M40.1214 54.4463L37.972 53.8073C38.0463 53.559 38.2298 53.3534 38.4797 53.2553L38.5666 53.2221L43.7638 51.1992C44.1228 51.65 44.5387 52.0976 45.0116 52.5436L41.2316 54.0145L40.1229 54.4463H40.1214Z" fill="#102770"/>
<path d="M91.4898 101.47L82.7958 96.0706L85.513 91.6911L94.2117 97.0907L91.0327 98.0665L91.4898 101.47Z" fill="#FF5722"/>
<path d="M90.5567 100.026L89.6504 99.4631L89.3293 97.0733L91.648 96.3616L92.453 96.8613L90.8176 97.3627C90.4744 97.4687 90.2577 97.8071 90.3068 98.1614L90.5582 100.025L90.5567 100.026Z" fill="#FFB7A0"/>
<path d="M85.6015 94.4589L83.9994 89.5576L93.7309 86.3786L92.3866 89.6509L95.3315 91.2799L85.6015 94.4589Z" fill="#FF5722"/>
<path d="M92.9908 91.2736L90.8588 90.0937L91.8093 87.7783L92.4483 87.5695L91.7081 89.3725C91.5657 89.7173 91.7049 90.1127 92.0307 90.293L93.5016 91.1059L92.9908 91.2736Z" fill="#FFB7A0"/>
<path d="M90.3416 63.0248C90.3416 63.0248 93.4969 63.8093 97.3891 67.2698C88.276 83.4605 85.4054 100.936 90.3147 120.014L87.1752 118.82L83.3241 86.0654L90.3416 63.0264V63.0248Z" fill="white"/>
<path d="M88.9798 117.583C88.6034 117.503 88.2144 117.422 87.8348 117.341C87.732 115.051 87.6972 112.696 87.7288 110.289C88.0214 112.71 88.4374 115.143 88.9798 117.583ZM91.5199 78.1511C92.2632 74.6495 93.1141 71.1336 94.0678 67.6288C94.1643 67.3931 94.2291 67.1464 94.2592 66.8918C94.3066 66.4916 94.2703 66.0915 94.1532 65.6993C94.6704 66.0377 95.2208 66.4315 95.7949 66.8855C96.1824 67.1923 96.2931 67.73 96.059 68.1634C94.2813 71.4483 92.7677 74.7839 91.5199 78.1511Z" fill="#B7BED4"/>
<path d="M85.3422 69.8335C81.0845 69.3211 77.8439 67.1322 78.108 64.9464C78.3721 62.7591 82.0382 61.4021 86.2959 61.9145C90.5535 62.4285 93.7926 64.6159 93.5285 66.8048C93.3545 68.2488 91.6939 69.3322 89.3578 69.7513C88.159 69.968 86.783 70.0075 85.3406 69.8335H85.3422Z" fill="white"/>
<path d="M89.119 69.0491L89.6425 67.1701H89.6409L89.9968 65.8954C88.3187 64.8104 86.2453 64.3454 84.2952 64.3454C82.1379 64.3454 80.1324 64.9132 78.9763 65.8353C78.8545 65.5601 78.8055 65.2912 78.8371 65.035C78.8529 64.9021 78.8909 64.7709 78.9494 64.6412C80.0691 63.6812 82.0762 63.1007 84.4201 63.1007C84.9974 63.1007 85.5936 63.1355 86.2026 63.2098C89.1348 63.5641 91.5863 64.7139 92.7393 66.1089C92.8057 66.3161 92.8263 66.5217 92.8025 66.7194C92.6776 67.7569 91.2747 68.6647 89.2297 69.0317C89.1933 69.038 89.1554 69.0443 89.119 69.0507V69.0491Z" fill="#B7BED4"/>
<path d="M78.108 64.9464C78.1111 65.1299 78.1127 65.3149 78.1143 65.4952C78.089 65.3134 78.0858 65.1299 78.108 64.9464Z" fill="white"/>
<path d="M93.5301 66.8048C93.5063 67.0041 93.4541 67.197 93.3751 67.3821C93.4257 67.1907 93.4779 66.9977 93.5301 66.8048Z" fill="white"/>
<path d="M78.4243 66.3841C80.1292 64.1952 86.1187 63.387 89.9968 65.8938L88.9007 69.8241C85.0211 70.4867 81.5274 69.3433 78.4243 66.3841Z" fill="white"/>
<path d="M89.1174 69.0491L89.6409 67.1701C89.6409 67.1701 89.6409 67.1701 89.6425 67.1701L89.119 69.0491H89.1174Z" fill="#8590B6"/>
<path d="M87.1214 69.2088C86.5663 69.2088 86.0001 69.174 85.4307 69.106C82.6835 68.7739 80.6148 67.7759 79.5757 66.7004C80.7508 66.0836 82.3783 65.7214 84.1022 65.7214C85.9906 65.7214 87.9945 66.1563 89.6425 67.1701L89.119 69.0491C88.4895 69.1566 87.8158 69.2088 87.123 69.2088H87.1214Z" fill="#B7BED4"/>
<path d="M71.7832 117.439C72.9694 113.427 73.9848 109.179 74.8341 104.787C76.4046 96.651 77.4057 88.0187 77.8581 79.4354C78.0289 76.2374 78.119 73.0458 78.1349 69.8889C78.1444 68.4307 78.1364 66.9677 78.1127 65.4968C78.3942 67.488 81.442 69.3654 85.3406 69.8351C86.7814 70.0091 88.159 69.9696 89.3578 69.7513C91.3696 69.3907 92.8832 68.5382 93.3735 67.3821C92.1683 71.801 91.1086 76.3102 90.2182 80.8446C88.6082 89.023 87.5422 97.2852 87.1499 105.255C86.9127 110.069 86.9206 114.779 87.2037 119.299C86.9538 121.381 83.6151 122.711 79.62 122.39C79.4207 122.374 79.2183 122.355 79.0158 122.33C74.7566 121.816 71.5175 119.625 71.7816 117.439H71.7832Z" fill="white"/>
<path d="M76.4821 121.03C75.5869 120.735 74.7819 120.356 74.1145 119.905C73.0295 119.171 72.4475 118.328 72.5044 117.582C74.3738 111.235 75.8621 104.17 76.9297 96.7032C77.042 96.7443 77.1559 96.7854 77.2681 96.825C77.2697 96.825 77.2697 96.825 77.2697 96.825C77.2776 96.8281 77.284 96.8297 77.2919 96.8329C77.2935 96.8345 77.2966 96.8345 77.2982 96.8345C77.3029 96.836 77.3061 96.8376 77.3109 96.8392C77.3172 96.8408 77.3235 96.8439 77.3298 96.8455C77.3314 96.8455 77.333 96.8471 77.3346 96.8471C77.3393 96.8487 77.3441 96.8503 77.3488 96.8518C77.4991 96.9025 77.6493 96.9531 77.7996 97.0005C77.8011 97.0005 77.8011 97.0005 77.8027 97.0005C77.8106 97.0037 77.8185 97.0053 77.828 97.0084C77.8296 97.0084 77.8312 97.01 77.8344 97.01C77.8375 97.01 77.8407 97.0116 77.8454 97.0132C77.8502 97.0148 77.8549 97.0163 77.8597 97.0179C77.8612 97.0179 77.8628 97.0195 77.8644 97.0195C77.8723 97.0211 77.8786 97.0242 77.8865 97.0258C77.8881 97.0258 77.8881 97.0274 77.8897 97.0274C78.2835 97.1508 78.6821 97.2615 79.0854 97.3595C79.0822 97.3595 79.0791 97.3595 79.0775 97.358C80.8394 97.7897 82.6756 97.9906 84.5751 97.9906C85.3596 97.9906 86.1551 97.9574 86.9601 97.891C86.7403 100.161 86.5711 102.403 86.4524 104.611C84.322 102.743 82.3023 101.81 80.3918 101.81C80.1324 101.81 79.873 101.828 79.6184 101.862C78.796 101.973 78.1443 102.617 77.9973 103.433C77.8834 104.067 77.7648 104.697 77.6446 105.324C76.7953 109.717 75.7799 113.963 74.5937 117.977C74.464 119.061 75.1947 120.147 76.4837 121.028L76.4821 121.03ZM80.202 89.6651C80.0945 89.6414 79.5441 89.5243 79.4349 89.5006C79.4381 89.5006 79.4413 89.5022 79.4444 89.5022C79.1692 89.4405 78.894 89.3757 78.6188 89.3077C78.6157 89.3061 78.6125 89.3061 78.6093 89.3045C78.3579 89.2412 78.1048 89.1764 77.8533 89.1068C78.4876 82.8421 78.8339 76.3797 78.8687 69.8889C78.8719 69.2768 78.8719 68.66 78.8703 68.0384C79.4349 68.5351 80.1372 68.9842 80.9469 69.3654C80.9469 69.7181 80.9469 70.0708 80.9438 70.4235C80.9279 73.5803 80.8378 76.772 80.667 79.97C80.6591 80.1297 80.6496 80.2879 80.6417 80.446C80.5927 81.3396 81.1209 82.1763 81.9623 82.4847C82.7183 82.7615 83.5123 82.9086 84.3537 82.9086C85.8657 82.9086 87.5279 82.4309 89.3705 81.3649C88.7916 84.3699 88.2887 87.3607 87.8695 90.3199C87.743 90.323 87.6165 90.3262 87.49 90.3278C87.3793 90.3294 87.267 90.331 87.1563 90.331C87.1088 90.331 87.0614 90.331 87.0139 90.331C86.8573 90.331 86.7008 90.3294 86.5442 90.3278L80.2036 89.6619L80.202 89.6651ZM80.2226 89.6699L80.3143 89.6888C82.3972 90.1064 84.4122 90.3057 86.541 90.3325L80.221 89.6699H80.2226Z" fill="#B7BED4"/>
<path d="M76.2449 96.4343L77.1511 88.9107C80.9058 90.0178 84.7364 90.4796 88.6461 90.2961L87.7399 97.8198C83.6198 98.2595 79.7576 97.8909 76.2449 96.4343Z" fill="#FF5722"/>
<path d="M79.446 89.5038C79.4428 89.5038 79.4397 89.5022 79.4365 89.5022C79.1645 89.4421 78.8925 89.3773 78.6204 89.3092C78.8956 89.3773 79.1692 89.4421 79.446 89.5038Z" fill="#E0E3EC"/>
<path d="M84.5767 97.9938C82.6772 97.9938 80.8394 97.7929 79.0791 97.3611C79.0822 97.3611 79.0854 97.3611 79.087 97.3627C80.8473 97.7929 82.6804 97.9938 84.5767 97.9938C85.3611 97.9938 86.1551 97.9606 86.9617 97.8925C86.1567 97.959 85.3611 97.9922 84.5767 97.9922V97.9938ZM87.49 90.331C87.6165 90.3294 87.743 90.3262 87.8696 90.3231C87.743 90.3262 87.6165 90.3278 87.49 90.331Z" fill="#E0E3EC"/>
<path d="M86.9617 97.8941C87.2195 97.8736 87.4805 97.8483 87.7399 97.8198C87.4789 97.8483 87.2195 97.872 86.9601 97.8941H86.9617Z" fill="#98A2C1"/>
<path d="M86.9807 90.3357C86.8352 90.3357 86.6881 90.3357 86.5426 90.3325C86.6992 90.3357 86.8558 90.3357 87.0123 90.3357C87.0598 90.3357 87.1072 90.3357 87.1547 90.3357C87.0977 90.3357 87.0392 90.3357 86.9807 90.3357Z" fill="#E0E3EC"/>
<path d="M84.5767 97.9938C82.6788 97.9938 80.8457 97.7929 79.087 97.3627H79.0886C80.2874 97.6553 81.5195 97.8419 82.7847 97.9289C82.3055 97.8277 81.8295 97.7075 81.3613 97.5715C81.7456 97.5889 82.1347 97.5968 82.5254 97.5968C83.5613 97.5968 84.6162 97.5367 85.6885 97.4228L86.5442 90.331C86.6897 90.3341 86.8368 90.3341 86.9823 90.3341C87.0408 90.3341 87.0977 90.3341 87.1563 90.3341C87.267 90.3341 87.3793 90.3325 87.49 90.331C87.6165 90.3294 87.743 90.3262 87.8696 90.323C88.1289 90.3167 88.3883 90.3072 88.6477 90.2946L87.7414 97.8182C87.4805 97.8467 87.2211 97.8704 86.9633 97.8925C86.1583 97.959 85.3627 97.9938 84.5783 97.9938H84.5767Z" fill="#FFB7A0"/>
<path d="M77.8913 97.0306C77.8897 97.0306 77.8897 97.0306 77.8882 97.029C77.8897 97.029 77.8897 97.0306 77.8913 97.0306ZM77.8454 97.0163C77.8423 97.0163 77.8391 97.0148 77.8344 97.0132C77.8375 97.0132 77.8407 97.0148 77.8454 97.0163ZM77.8296 97.0116C77.8217 97.0084 77.8138 97.0069 77.8043 97.0037C77.8122 97.0069 77.8201 97.0084 77.8296 97.0116ZM77.333 96.8487C77.3267 96.8455 77.3204 96.8439 77.314 96.8424C77.3204 96.8439 77.3267 96.8471 77.333 96.8487ZM77.3014 96.8376C77.2982 96.8376 77.2966 96.836 77.2951 96.836C77.2966 96.8376 77.2998 96.8376 77.3014 96.8376ZM77.2729 96.8281H77.2713C77.2729 96.8281 77.2729 96.8281 77.2729 96.8281Z" fill="#8590B6"/>
<path d="M76.7431 92.2953L77.1511 88.9091L77.1464 88.9439L76.7431 92.2953Z" fill="#102770"/>
<path d="M80.2226 89.6698C79.9505 89.6161 79.6801 89.5591 79.4096 89.4974C79.4175 89.499 79.427 89.5006 79.4349 89.5022C79.5425 89.5259 79.6516 89.5496 79.7591 89.5734C79.9126 89.6066 80.0676 89.6382 80.221 89.6683V89.6698H80.2226ZM78.6093 89.3061C78.3579 89.2428 78.1048 89.178 77.8533 89.1084C78.1048 89.1764 78.3579 89.2428 78.6093 89.3061Z" fill="#8590B6"/>
<path d="M77.8549 89.11C77.6209 89.0451 77.3852 88.9787 77.1511 88.9107C77.3852 88.9787 77.6193 89.0467 77.8549 89.11Z" fill="#102770"/>
<path d="M81.3613 97.5731C80.5927 97.5398 79.8351 97.4703 79.0886 97.3643C78.6853 97.2662 78.2867 97.1555 77.8913 97.0322C77.8897 97.0322 77.8897 97.0322 77.8881 97.0306C77.8802 97.029 77.8739 97.0258 77.866 97.0243C77.8644 97.0243 77.8628 97.0227 77.8613 97.0227C77.8565 97.0211 77.8518 97.0195 77.847 97.0179C77.8439 97.0179 77.8407 97.0163 77.836 97.0148C77.8344 97.0132 77.8328 97.0132 77.8296 97.0132C77.8217 97.01 77.8138 97.0084 77.8043 97.0053C77.8027 97.0053 77.8027 97.0053 77.8012 97.0053C77.6509 96.9578 77.5007 96.9072 77.3504 96.8566C77.3457 96.855 77.3409 96.8534 77.3362 96.8519C77.3346 96.8519 77.333 96.8503 77.3314 96.8503C77.3251 96.8471 77.3188 96.8455 77.3124 96.8439C77.3077 96.8424 77.3045 96.8408 77.2998 96.8392C77.2966 96.8376 77.295 96.8376 77.2935 96.8376C77.2856 96.8345 77.2792 96.8329 77.2713 96.8297H77.2697C76.925 96.7095 76.5833 96.5782 76.2449 96.4391L76.7431 92.3L77.1464 88.9502L77.1337 89.0546C77.8881 89.2318 78.6473 89.3804 79.4096 89.5038C79.6801 89.5639 79.9505 89.6224 80.2226 89.6762L79.3559 96.8756C80.0122 97.1476 80.6797 97.3817 81.3613 97.5794V97.5731Z" fill="#B7493A"/>
<path d="M79.4365 89.5006C79.4286 89.499 79.4191 89.4974 79.4112 89.4959C78.8909 89.3788 78.3721 89.2507 77.8549 89.11V89.1084C78.1064 89.1764 78.3594 89.2428 78.6109 89.3061C78.6141 89.3076 78.6172 89.3077 78.6204 89.3092C78.8924 89.3772 79.1629 89.4405 79.4365 89.5022V89.5006Z" fill="#A1AAC7"/>
<path d="M77.8549 89.11C77.6193 89.0451 77.3852 88.9787 77.1511 88.9107L77.1479 88.9439L77.1511 88.9091C77.3852 88.9771 77.6193 89.0451 77.8549 89.1084V89.11Z" fill="#6F7DA9"/>
<path d="M79.4096 89.4974C78.6489 89.3741 77.8881 89.2254 77.1337 89.0483L77.1464 88.9439L77.1495 88.9107C77.3836 88.9787 77.6177 89.0467 77.8533 89.11C78.3705 89.2507 78.8893 89.3788 79.4096 89.4959V89.4974Z" fill="#B78C92"/>
<path d="M82.7847 97.9289C81.521 97.8403 80.2874 97.6553 79.0886 97.3627C79.8335 97.4687 80.5927 97.5383 81.3613 97.5715C81.831 97.7075 82.3055 97.8261 82.7847 97.9289Z" fill="#B78C92"/>
<path d="M80.2226 89.6683C80.0692 89.6382 79.9142 89.605 79.7607 89.5734C79.9142 89.6066 80.0692 89.6366 80.2226 89.6683Z" fill="#A1AAC7"/>
<path fill-rule="evenodd" clip-rule="evenodd" d="M36.6071 86.891C36.4046 87.7419 37.0499 88.5596 37.9245 88.5596H41.3882C41.5543 88.5596 41.714 88.5295 41.8595 88.4757C41.6666 88.9787 41.1794 89.3456 40.5942 89.3456H37.1306C36.2559 89.3456 35.6091 88.5295 35.8131 87.677L36.403 85.1955L37.0341 82.5432C37.1416 82.0925 37.4659 81.7397 37.8802 81.5863C37.8597 81.6417 37.8423 81.6986 37.828 81.7571L37.0594 84.9852L36.6055 86.8894L36.6071 86.891Z" fill="#FAA933"/>
<path fill-rule="evenodd" clip-rule="evenodd" d="M41.6761 88.2338L40.958 84.1533L40.6986 82.6824C40.6037 82.1462 40.2463 81.7239 39.7861 81.5626C39.7038 81.5341 39.6184 81.5136 39.5314 81.5009H39.6152C39.6722 81.5009 39.7307 81.5041 39.7861 81.512C40.3618 81.5848 40.8346 82.0197 40.9454 82.6033L41.2569 84.2434L41.9228 87.7371C41.9718 87.9965 41.9449 88.2496 41.8579 88.4742C41.8057 88.4931 41.7536 88.509 41.6998 88.5216C41.6998 88.4267 41.6919 88.3302 41.6761 88.2322V88.2338Z" fill="#FFF0A8"/>
<path fill-rule="evenodd" clip-rule="evenodd" d="M46.0555 86.3865C47.1025 87.4635 49.1744 87.0681 50.0442 88.2923C50.1755 88.4789 50.2672 88.6861 50.3495 88.8996C50.4491 89.0989 50.5235 89.3013 50.5883 89.4943C50.6231 89.567 50.6595 89.6366 50.7006 89.7062C51.1893 90.5176 52.2948 90.8323 53.1584 90.4875C53.1347 90.4875 53.1109 90.4891 53.0888 90.4891C52.317 90.4891 51.5594 90.1158 51.1925 89.4453C50.9141 88.9391 50.8493 88.3223 50.533 87.8399C49.6188 86.4513 47.2448 86.9005 46.1203 85.6763C46.0444 85.5941 45.9764 85.5039 45.9147 85.409C45.7107 85.088 45.6 84.7084 45.5747 84.3146C45.5652 84.3336 45.5557 84.3541 45.5478 84.3747C45.4671 84.7606 45.4766 85.1686 45.5826 85.5451C45.6711 85.8598 45.8277 86.1524 46.057 86.388L46.0555 86.3865Z" fill="#30A57C"/>
<path fill-rule="evenodd" clip-rule="evenodd" d="M50.4539 82.8089C51.523 83.2644 52.4593 84.6088 53.0635 85.6368C53.1094 85.7143 53.1536 85.7902 53.1948 85.8645C53.7293 86.8119 54.1137 87.8431 54.3177 88.9107C54.343 88.7683 54.3604 88.6244 54.3683 88.4789C54.3841 88.218 54.3746 87.957 54.3477 87.7087C54.226 86.5557 53.8559 85.4312 53.2865 84.4221C52.9085 83.7531 52.3375 82.8627 51.6654 82.2791C51.5689 82.2664 51.474 82.2538 51.3775 82.2395C50.34 82.0956 49.2961 81.9216 48.2476 81.7208C48.2238 81.716 48.2001 81.7113 48.1764 81.7065C47.8616 81.8062 47.5675 81.9359 47.3128 82.0861C47.2195 82.1415 47.131 82.2 47.0487 82.2601C46.6865 82.529 46.3512 82.8485 46.0839 83.2122C46.8146 82.7409 47.887 82.4262 48.8675 82.4262C49.4622 82.4262 50.0237 82.5416 50.4539 82.8089Z" fill="#ACF0C9"/>
<path fill-rule="evenodd" clip-rule="evenodd" d="M45.8641 85.3236C45.6917 85.0215 45.5968 84.6736 45.5747 84.313C45.5652 84.332 45.5557 84.3525 45.5478 84.3731C45.4671 84.759 45.4766 85.1671 45.5826 85.5435C45.6711 85.466 45.766 85.3932 45.8657 85.3252L45.8641 85.3236Z" fill="#287D7A"/>
<path fill-rule="evenodd" clip-rule="evenodd" d="M45.5747 84.313C45.5984 84.6736 45.6933 85.0216 45.8641 85.3236C47.5596 84.158 50.786 84.2482 52.793 85.1924C52.1968 84.2513 51.3744 83.2011 50.4555 82.8089C50.0253 82.5416 49.4638 82.4262 48.8691 82.4262C47.8885 82.4262 46.8162 82.7409 46.0855 83.2122C45.9084 83.4542 45.7613 83.7167 45.6569 83.9983C45.6395 84.0441 45.6237 84.0916 45.6095 84.139C45.5857 84.2165 45.5652 84.294 45.5494 84.3731C45.5573 84.3525 45.5668 84.3336 45.5763 84.313H45.5747Z" fill="#31A67C"/>
<path fill-rule="evenodd" clip-rule="evenodd" d="M50.4539 82.8089C51.3744 83.2011 52.1952 84.2513 52.7915 85.1924C53.2723 85.4185 53.6819 85.6937 53.9856 86.0116C53.8068 85.4597 53.5712 84.9267 53.2865 84.4221C52.9085 83.7531 52.3375 82.8627 51.6654 82.2791C51.4345 82.0782 51.1925 81.9137 50.9426 81.8062C50.2372 81.3697 49.1206 81.406 48.1764 81.7065C47.8616 81.8062 47.5675 81.9359 47.3128 82.0861C47.2195 82.1415 47.131 82.2 47.0487 82.2601C46.6865 82.529 46.3512 82.8484 46.0839 83.2122C46.8146 82.7409 47.887 82.4262 48.8675 82.4262C49.4622 82.4262 50.0237 82.5416 50.4539 82.8089Z" fill="#81AFAD"/>
<path fill-rule="evenodd" clip-rule="evenodd" d="M81.3566 59.2717L82.0714 59.0582L82.0066 58.3148L81.2917 58.5283L59.0909 65.1362C58.4504 65.3086 57.9158 65.2928 57.3148 65.1315L39.6421 59.8711V60.6334L55.36 65.3118L56.1081 65.5348C56.7961 65.7388 57.503 65.8416 58.21 65.8416H58.2116C58.8853 65.8416 59.5575 65.7483 60.2139 65.5633C60.2471 65.5538 60.2819 65.5443 60.3151 65.5332L79.9173 59.6987L80.2178 59.6086L81.3566 59.2701V59.2717ZM35.2817 58.5742L34.5652 58.3607L34.5083 59.1056L35.2247 59.3191L36.4473 59.6829L37.9356 60.1257V59.3634L35.2817 58.5742Z" fill="#32328A"/>
<path d="M26.545 74.2699C26.9072 74.2493 27.2709 74.2399 27.6315 74.2399C27.8166 74.2399 28 74.243 28.1835 74.2478C28.1993 74.2478 28.2136 74.2478 28.2294 74.2478H28.2278C28.2136 74.2478 28.1977 74.2478 28.1835 74.2478C28 74.243 27.815 74.2399 27.6299 74.2399C27.2693 74.2399 26.9056 74.2493 26.5434 74.2699H26.545ZM29.4472 73.6246C29.6575 73.3368 29.7603 72.9825 29.7382 72.6266C29.7635 72.9857 29.6607 73.3352 29.4472 73.6246ZM29.5516 71.6318L29.5437 71.5907C29.5405 71.578 29.5389 71.5654 29.5358 71.5511C29.5389 71.5638 29.5421 71.578 29.5437 71.5907L29.5516 71.6302V71.6318Z" fill="#250C60"/>
<path d="M28.7355 74.379C28.9015 74.3268 29.0581 74.2509 29.202 74.1513C29.0581 74.2509 28.9015 74.3284 28.7355 74.379Z" fill="#000072"/>
<path d="M29.7477 71.5575L29.7461 71.5496C29.743 71.5337 29.7398 71.5195 29.7366 71.5037C29.7398 71.5195 29.7445 71.5353 29.7477 71.5511L29.7493 71.559L29.7477 71.5575Z" fill="#0D50B6"/>
<path fill-rule="evenodd" clip-rule="evenodd" d="M23.173 45.6225C31.9161 38.6367 42.9999 34.4597 55.0611 34.4597C83.2956 34.4597 106.183 57.3469 106.183 85.5814C106.183 100.058 100.165 113.13 90.495 122.431C102.218 113.063 109.729 98.6438 109.729 82.472C109.729 54.2375 86.8415 31.3503 58.607 31.3503C44.8503 31.3503 32.3621 36.7846 23.173 45.6225Z" fill="#EC239B" fill-opacity="0.2"/>
<path fill-rule="evenodd" clip-rule="evenodd" d="M64.1647 127.549C37.8201 127.549 16.4623 106.191 16.4623 79.8466C16.4623 60.5037 27.9763 43.848 44.5229 36.3623C24.7736 42.3866 10.4064 60.752 10.4064 82.472C10.4064 109.092 31.9856 130.671 58.6054 130.671C68.446 130.671 77.5987 127.721 85.2267 122.659C78.8751 125.79 71.7247 127.549 64.1631 127.549H64.1647Z" fill="#EC239B" fill-opacity="0.2"/>
<path fill-rule="evenodd" clip-rule="evenodd" d="M46.3481 39.5999C44.912 40.2578 42.3324 43.2771 42.1632 44.8476C41.763 48.5501 42.5111 53.6333 45.5225 56.1686C52.3961 61.9556 62.9769 62.3384 69.7208 68.0495C79.4887 76.3228 74.0907 93.8911 76.3761 105.87C77.5196 111.86 82.7927 120.56 89.6251 115.698C102.248 106.718 106.094 82.5258 99.3298 67.303C88.5781 43.1062 58.6101 33.9789 46.3481 39.5983V39.5999Z" fill="url(#paint2_radial_71_12075)" fill-opacity="0.34902"/>
<path fill-rule="evenodd" clip-rule="evenodd" d="M75.1678 46.0274C79.8762 46.203 86.0112 50.4369 88.8723 55.4822C91.7334 60.5275 90.2372 64.4735 85.5304 64.298C80.822 64.1208 74.687 59.8885 71.8259 54.8432C68.9648 49.798 70.461 45.8519 75.1678 46.0274Z" fill="url(#paint3_radial_71_12075)" fill-opacity="0.2"/>
<path d="M79.8383 16.0342C80.8253 16.0342 81.6255 15.234 81.6255 14.247C81.6255 13.2599 80.8253 12.4598 79.8383 12.4598C78.8512 12.4598 78.0511 13.2599 78.0511 14.247C78.0511 15.234 78.8512 16.0342 79.8383 16.0342Z" fill="#232851"/>
<path d="M92.1921 32.9762C92.7057 32.9762 93.122 32.5598 93.122 32.0462C93.122 31.5326 92.7057 31.1162 92.1921 31.1162C91.6784 31.1162 91.2621 31.5326 91.2621 32.0462C91.2621 32.5598 91.6784 32.9762 92.1921 32.9762Z" fill="#232851"/>
<path d="M107.075 40.3511C108.062 40.3511 108.862 39.551 108.862 38.5639C108.862 37.5769 108.062 36.7767 107.075 36.7767C106.088 36.7767 105.288 37.5769 105.288 38.5639C105.288 39.551 106.088 40.3511 107.075 40.3511Z" fill="#232851"/>
<path d="M32.3905 29.348C33.0194 29.348 33.5293 28.8382 33.5293 28.2092C33.5293 27.5803 33.0194 27.0705 32.3905 27.0705C31.7616 27.0705 31.2518 27.5803 31.2518 28.2092C31.2518 28.8382 31.7616 29.348 32.3905 29.348Z" fill="#2C1538"/>
<path d="M20.5381 35.2742C20.8648 35.2742 21.1296 35.0094 21.1296 34.6827C21.1296 34.356 20.8648 34.0912 20.5381 34.0912C20.2114 34.0912 19.9466 34.356 19.9466 34.6827C19.9466 35.0094 20.2114 35.2742 20.5381 35.2742Z" fill="#2C1538"/>
<path d="M10.4539 35.3106C11.0278 35.3106 11.493 34.8454 11.493 34.2715C11.493 33.6976 11.0278 33.2324 10.4539 33.2324C9.88 33.2324 9.41478 33.6976 9.41478 34.2715C9.41478 34.8454 9.88 35.3106 10.4539 35.3106Z" fill="#2C1538"/>
<path fill-rule="evenodd" clip-rule="evenodd" d="M21.2577 41.0011C22.5657 41.0011 23.6269 42.0624 23.6269 43.3704C23.6269 44.6783 22.5657 45.7396 21.2577 45.7396C19.9498 45.7396 18.8885 44.6783 18.8885 43.3704C18.8885 42.0624 19.9498 41.0011 21.2577 41.0011Z" fill="#431D53" fill-opacity="0.501961"/>
<path fill-rule="evenodd" clip-rule="evenodd" d="M28.1313 43.2533C29.3317 43.2533 30.3044 42.2806 30.3044 41.0802C30.3044 40.8714 30.4752 40.7006 30.684 40.7006C30.8928 40.7006 31.0636 40.8714 31.0636 41.0802C31.0636 42.2806 32.0363 43.2533 33.2367 43.2533C33.4455 43.2533 33.6163 43.4241 33.6163 43.6329C33.6163 43.8417 33.4455 44.0125 33.2367 44.0125C32.0363 44.0125 31.0636 44.9852 31.0636 46.1856C31.0636 46.3944 30.8928 46.5652 30.684 46.5652C30.4752 46.5652 30.3044 46.3944 30.3044 46.1856C30.3044 44.9852 29.3317 44.0125 28.1313 44.0125C27.9226 44.0125 27.7517 43.8417 27.7517 43.6329C27.7517 43.4241 27.9226 43.2533 28.1313 43.2533ZM94.1532 112.933C95.5593 112.933 96.698 111.795 96.698 110.389C96.698 110.144 96.8989 109.944 97.1424 109.944C97.3876 109.944 97.5869 110.145 97.5869 110.389C97.5869 111.793 98.7256 112.933 100.132 112.933C100.377 112.933 100.576 113.133 100.576 113.378C100.576 113.623 100.375 113.822 100.132 113.822C98.7256 113.822 97.5869 114.961 97.5869 116.367C97.5869 116.612 97.3876 116.812 97.1424 116.812C96.8973 116.812 96.698 116.611 96.698 116.367C96.698 114.961 95.5593 113.822 94.1532 113.822C93.9081 113.822 93.7088 113.621 93.7088 113.378C93.7088 113.133 93.9097 112.933 94.1532 112.933ZM30.5116 111.14C31.6235 111.14 32.525 110.238 32.525 109.128C32.525 108.934 32.6831 108.775 32.8777 108.775C33.0722 108.775 33.2288 108.934 33.2288 109.128C33.2288 110.24 34.1303 111.14 35.2406 111.14C35.4351 111.14 35.5933 111.298 35.5933 111.491C35.5933 111.686 35.4351 111.844 35.2406 111.844C34.1287 111.844 33.2288 112.745 33.2288 113.856C33.2288 114.05 33.0706 114.208 32.8777 114.208C32.6831 114.208 32.525 114.05 32.525 113.856C32.525 112.744 31.6235 111.844 30.5116 111.844C30.3187 111.844 30.1605 111.686 30.1605 111.491C30.1605 111.297 30.3187 111.14 30.5116 111.14ZM65.498 51.6516C65.9788 51.6516 66.3694 52.0422 66.3694 52.523C66.3694 53.0038 65.9788 53.3945 65.498 53.3945C65.0172 53.3945 64.6265 53.0038 64.6265 52.523C64.6265 52.0422 65.0172 51.6516 65.498 51.6516ZM30.1969 86.4592C31.5049 86.4592 32.5661 87.5205 32.5661 88.8284C32.5661 90.1364 31.5049 91.1977 30.1969 91.1977C28.8889 91.1977 27.8277 90.1364 27.8277 88.8284C27.8277 87.5205 28.8889 86.4592 30.1969 86.4592ZM31.4653 74.7586C31.9683 74.7586 32.3779 74.3506 32.3779 73.846C32.3779 73.7575 32.4491 73.6863 32.5376 73.6863C32.6262 73.6863 32.6974 73.7575 32.6974 73.846C32.6974 74.3506 33.1054 74.7586 33.6099 74.7586C33.6985 74.7586 33.7697 74.8298 33.7697 74.9183C33.7697 75.0069 33.6985 75.0781 33.6099 75.0781C33.107 75.0781 32.6974 75.4861 32.6974 75.9907C32.6974 76.0792 32.6262 76.1504 32.5376 76.1504C32.4491 76.1504 32.3779 76.0792 32.3779 75.9907C32.3779 75.4861 31.9698 75.0781 31.4653 75.0781C31.3767 75.0781 31.3056 75.0069 31.3056 74.9183C31.3056 74.8298 31.3767 74.7586 31.4653 74.7586ZM32.0726 58.6406C32.6847 58.6406 33.1813 58.144 33.1813 57.5319C33.1813 57.4244 33.2683 57.3374 33.3759 57.3374C33.4834 57.3374 33.5704 57.4244 33.5704 57.5319C33.5704 58.144 34.067 58.6406 34.6791 58.6406C34.7867 58.6406 34.8736 58.7276 34.8736 58.8352C34.8736 58.9427 34.7867 59.0297 34.6791 59.0297C34.067 59.0297 33.5704 59.5263 33.5704 60.1384C33.5704 60.2459 33.4834 60.3329 33.3759 60.3329C33.2683 60.3329 33.1813 60.2459 33.1813 60.1384C33.1813 59.5263 32.6847 59.0297 32.0726 59.0297C31.9651 59.0297 31.8781 58.9427 31.8781 58.8352C31.8781 58.7276 31.9651 58.6406 32.0726 58.6406Z" fill="white" fill-opacity="0.25098"/>
<path fill-rule="evenodd" clip-rule="evenodd" d="M93.6597 40.3464C94.5644 40.3464 95.2967 39.6141 95.2967 38.7094C95.2967 38.5513 95.4248 38.4232 95.583 38.4232C95.7411 38.4232 95.8692 38.5513 95.8692 38.7094C95.8692 39.6141 96.6015 40.3464 97.5062 40.3464C97.6643 40.3464 97.7924 40.4745 97.7924 40.6326C97.7924 40.7908 97.6643 40.9189 97.5062 40.9189C96.6015 40.9189 95.8692 41.6528 95.8692 42.5559C95.8692 42.714 95.7411 42.8421 95.583 42.8421C95.4248 42.8421 95.2967 42.714 95.2967 42.5559C95.2967 41.6512 94.5644 40.9189 93.6597 40.9189C93.5016 40.9189 93.3735 40.7908 93.3735 40.6326C93.3735 40.4745 93.5016 40.3464 93.6597 40.3464Z" fill="#292E6B"/>
<path fill-rule="evenodd" clip-rule="evenodd" d="M88.5417 19.1072C90.1328 19.1072 91.4218 17.8182 91.4218 16.2271C91.4218 15.9503 91.648 15.7226 91.9263 15.7226C92.2031 15.7226 92.4293 15.9488 92.4293 16.2271C92.4293 17.8182 93.7183 19.1072 95.3094 19.1072C95.5861 19.1072 95.8139 19.3334 95.8139 19.6117C95.8139 19.8885 95.5877 20.1147 95.3094 20.1147C93.7183 20.1147 92.4293 21.4052 92.4293 22.9947C92.4293 23.2715 92.2031 23.4993 91.9263 23.4993C91.6496 23.4993 91.4218 23.2731 91.4218 22.9947C91.4218 21.4037 90.1328 20.1147 88.5417 20.1147C88.265 20.1147 88.0388 19.8885 88.0388 19.6117C88.0388 19.3349 88.265 19.1072 88.5417 19.1072Z" fill="#3A3E61"/>
<path fill-rule="evenodd" clip-rule="evenodd" d="M125.78 11.8604C128.969 11.8604 131.555 9.27603 131.555 6.08755C131.555 5.53083 132.009 5.07849 132.564 5.07849C133.12 5.07849 133.573 5.53241 133.573 6.08755C133.573 9.27603 136.157 11.8604 139.346 11.8604C139.902 11.8604 140.355 12.3143 140.355 12.8694C140.355 13.4261 139.901 13.8785 139.346 13.8785C136.157 13.8785 133.573 16.4644 133.573 19.6528C133.573 20.208 133.119 20.6619 132.564 20.6619C132.007 20.6619 131.555 20.208 131.555 19.6528C131.555 16.4644 128.97 13.8785 125.78 13.8785C125.225 13.8785 124.771 13.4245 124.771 12.8694C124.771 12.3127 125.225 11.8604 125.78 11.8604Z" fill="#3A3E61"/>
<path fill-rule="evenodd" clip-rule="evenodd" d="M39.0459 22.0806C39.9157 21.8022 40.395 20.8707 40.1166 20.0008C40.0676 19.849 40.153 19.686 40.3032 19.637C40.4551 19.588 40.618 19.6734 40.667 19.8236C40.9454 20.6935 41.8769 21.1727 42.7468 20.8944C42.8986 20.8454 43.0615 20.9308 43.1105 21.081C43.1596 21.2328 43.0742 21.3957 42.9239 21.4448C42.054 21.7231 41.5748 22.6547 41.8532 23.5246C41.9022 23.6764 41.8168 23.8393 41.6666 23.8883C41.5147 23.9374 41.3518 23.852 41.3028 23.7017C41.0244 22.8318 40.0929 22.3526 39.223 22.631C39.0712 22.68 38.9083 22.5946 38.8592 22.4443C38.8102 22.2925 38.8956 22.1296 39.0459 22.0806Z" fill="#2C1538"/>
<path fill-rule="evenodd" clip-rule="evenodd" d="M81.521 3.16634C82.8527 3.00977 83.8049 1.80459 83.6483 0.472895C83.6214 0.240401 83.789 0.0300494 84.02 0.00158076C84.2525 -0.0253063 84.4628 0.142342 84.4913 0.373254C84.6478 1.70337 85.853 2.65707 87.1831 2.50049C87.4156 2.47361 87.6276 2.63967 87.6545 2.87217C87.6813 3.10466 87.5153 3.31501 87.2828 3.34348C85.9511 3.50006 85.0005 4.70523 85.1555 6.03693C85.1824 6.26942 85.0164 6.48136 84.7839 6.50824C84.5514 6.53513 84.3394 6.36906 84.3126 6.13657C84.156 4.80487 82.9508 3.85275 81.6191 4.00933C81.3866 4.03622 81.1763 3.87015 81.1478 3.63766C81.1209 3.40516 81.2886 3.19323 81.5195 3.16634H81.521Z" fill="#3A3E61"/>
<path fill-rule="evenodd" clip-rule="evenodd" d="M41.0482 137.045C41.6966 137.42 42.5269 137.197 42.9002 136.548C42.965 136.436 43.1105 136.396 43.2244 136.461C43.3367 136.526 43.3763 136.672 43.3114 136.785C42.9366 137.434 43.1596 138.264 43.808 138.637C43.9219 138.702 43.9599 138.848 43.895 138.962C43.8302 139.074 43.6847 139.114 43.5708 139.049C42.9223 138.674 42.092 138.897 41.7187 139.545C41.6539 139.658 41.5084 139.697 41.3945 139.632C41.2822 139.567 41.2427 139.422 41.3075 139.308C41.6824 138.66 41.4594 137.829 40.8109 137.456C40.697 137.391 40.6591 137.246 40.7239 137.132C40.7888 137.019 40.9343 136.98 41.0482 137.045Z" fill="#462262"/>
<path d="M65.8285 145.519C66.6933 145.519 67.3943 144.818 67.3943 143.953C67.3943 143.088 66.6933 142.387 65.8285 142.387C64.9638 142.387 64.2628 143.088 64.2628 143.953C64.2628 144.818 64.9638 145.519 65.8285 145.519Z" fill="#4E236C"/>
<path d="M79.7813 145.312C80.1744 145.312 80.493 144.993 80.493 144.6C80.493 144.207 80.1744 143.888 79.7813 143.888C79.3882 143.888 79.0696 144.207 79.0696 144.6C79.0696 144.993 79.3882 145.312 79.7813 145.312Z" fill="#4E236C"/>
<path d="M96.0733 137.347C96.9948 137.347 97.7418 136.6 97.7418 135.678C97.7418 134.757 96.9948 134.01 96.0733 134.01C95.1517 134.01 94.4047 134.757 94.4047 135.678C94.4047 136.6 95.1517 137.347 96.0733 137.347Z" fill="#4E236C"/>
<path d="M80.8995 160C82.5224 160 83.8381 158.684 83.8381 157.061C83.8381 155.438 82.5224 154.123 80.8995 154.123C79.2765 154.123 77.9609 155.438 77.9609 157.061C77.9609 158.684 79.2765 160 80.8995 160Z" fill="#4E236C"/>
</g>
<defs>
<radialGradient id="paint0_radial_71_12075" cx="0" cy="0" r="1" gradientUnits="userSpaceOnUse" gradientTransform="translate(58.607 82.472) scale(56.8898 56.8898)">
<stop stop-color="#EE249C"/>
<stop offset="0.890196" stop-color="#852172"/>
<stop offset="1" stop-color="#1C1E48"/>
</radialGradient>
<linearGradient id="paint1_linear_71_12075" x1="12.1984" y1="103.914" x2="105.016" y2="61.0304" gradientUnits="userSpaceOnUse">
<stop stop-color="#783CA1"/>
<stop offset="1" stop-color="#EE229B"/>
</linearGradient>
<radialGradient id="paint2_radial_71_12075" cx="0" cy="0" r="1" gradientUnits="userSpaceOnUse" gradientTransform="translate(72.3519 77.558) scale(30.2813 39.5619)">
<stop stop-color="#EE249C"/>
<stop offset="1" stop-color="#FFE500"/>
</radialGradient>
<radialGradient id="paint3_radial_71_12075" cx="0" cy="0" r="1" gradientUnits="userSpaceOnUse" gradientTransform="translate(80.3474 55.1062) rotate(2.14616) scale(8.52997 8.9344)">
<stop stop-color="#FCC15B"/>
<stop offset="1" stop-color="white"/>
</radialGradient>
<clipPath id="clip0_71_12075">
<rect width="139.448" height="160" fill="white" transform="translate(0.908752)"/>
</clipPath>
</defs>
</svg>
