<svg width="141" height="160" viewBox="0 0 141 160" fill="none" xmlns="http://www.w3.org/2000/svg">
<g clip-path="url(#clip0_71_12001)">
<path d="M58.5612 140.17C90.4269 140.17 116.259 114.338 116.259 82.4723C116.259 50.6066 90.4269 24.7743 58.5612 24.7743C26.6954 24.7743 0.863098 50.6066 0.863098 82.4723C0.863098 114.338 26.6954 140.17 58.5612 140.17Z" fill="url(#paint0_radial_71_12001)"/>
<path d="M58.5612 133.593C86.7943 133.593 109.682 110.705 109.682 82.4723C109.682 54.2392 86.7943 31.3518 58.5612 31.3518C30.3281 31.3518 7.44061 54.2392 7.44061 82.4723C7.44061 110.705 30.3281 133.593 58.5612 133.593Z" fill="url(#paint1_linear_71_12001)"/>
<path d="M100.841 69.3265L79.3838 121.546C79.2918 121.827 79.1952 122.112 79.0802 122.393C76.8448 127.995 71.0952 131.017 65.4468 130.3C63.9289 130.106 62.4157 129.642 60.9806 128.887L39.5968 118.083L30.6412 113.557L18.8983 107.623C18.5902 107.462 18.3004 107.274 18.0336 107.071C15.9454 105.475 15.0852 102.669 16.0236 100.13L23.6728 79.3675L29.8731 62.542L34.7901 49.1984C36.0642 45.7395 40.0889 44.194 43.3547 45.9143L44.9508 46.756L45.8385 47.2252L47.591 48.1451L84.7148 67.7258C84.8528 67.7994 84.9954 67.8684 85.1425 67.9328C87.2998 68.8941 89.7974 68.7653 91.8534 67.5602L92.502 67.1785C95.2802 65.5456 95.2066 61.4979 92.364 59.9708L59.9364 42.5519C57.8068 41.4066 55.2264 41.4802 53.1611 42.7405L50.9809 44.0744L50.3968 44.4332L48.5431 45.5693L48.8973 44.6034L50.4428 40.4039C51.7169 36.9449 55.7462 35.3995 59.0073 37.1197L59.1361 37.1887L95.9747 56.6131C96.5037 56.8936 97.0005 57.2156 97.465 57.5698C100.988 60.279 102.433 65.0258 100.85 69.3265H100.841Z" fill="#1AA3FF"/>
<path d="M50.015 43.7616L51.1557 40.6707C51.6847 39.231 52.8116 38.0902 54.2467 37.5383C54.863 37.3037 55.5116 37.1841 56.1555 37.1841C56.2843 37.1841 56.4131 37.1887 56.5465 37.1979C54.6008 37.6257 52.8898 39.001 52.1354 41.0432L51.4225 42.9015L50.015 43.7616Z" fill="#98D6FF"/>
<path d="M90.101 69.5887C89.4616 69.5887 88.8223 69.5059 88.2013 69.3403C88.3715 69.3403 88.5417 69.3311 88.7073 69.3219C89.9262 69.2345 91.1313 68.8665 92.2306 68.218L92.8838 67.8362C94.4063 66.9439 95.3032 65.3662 95.3032 63.6091C95.3032 63.5769 95.3032 63.5447 95.3032 63.5171C95.2848 62.68 95.0686 61.8935 94.6822 61.2035C97.1752 62.864 97.1292 66.6357 94.4706 68.1996L93.8175 68.5814C92.6722 69.2529 91.3889 69.5933 90.101 69.5933V69.5887Z" fill="#98D6FF"/>
<path d="M18.5534 106.505C16.6951 105.116 15.9178 102.628 16.7411 100.397L20.177 91.0691L20.7244 93.7461L17.9968 101.156C17.3253 102.987 17.5828 104.955 18.558 106.505H18.5534ZM31.7176 63.9081C31.3772 63.5217 30.9862 63.186 30.5539 62.91L35.5077 49.4652C36.0366 48.0255 37.1636 46.8848 38.5987 46.3328C39.215 46.0982 39.8636 45.9787 40.5075 45.9787C41.0687 45.9787 41.6252 46.066 42.1634 46.2408C39.8222 46.365 37.6419 47.8415 36.7634 50.2195L31.7222 63.9081H31.7176Z" fill="#98D6FF"/>
<path d="M59.0763 120.024C58.7313 120.024 58.3864 119.946 58.0552 119.785L42.1266 111.91C42.1358 111.666 42.1174 111.423 42.0668 111.183L34.16 72.3945C34.505 72.0265 34.6797 71.4975 34.5694 70.9502L34.3992 70.1222C34.3394 69.8233 34.1968 69.5565 34.0036 69.3449L39.5462 54.4052C39.8958 53.4623 40.7835 52.8965 41.7172 52.8965C42.076 52.8965 42.4394 52.9793 42.7797 53.1587L76.7712 70.8398C77.8061 71.3779 78.2799 72.6014 77.8705 73.6962L61.2428 118.52C60.8932 119.458 60.0054 120.028 59.0717 120.028L59.0763 120.024Z" fill="#5FBFFF"/>
<path d="M45.8339 47.2206L47.5864 48.1451L84.7102 67.7212C86.9594 68.9033 89.6548 68.8435 91.8488 67.5556L92.4974 67.1739C95.2756 65.541 95.202 61.4933 92.3594 59.9662L59.9273 42.5473C57.7976 41.402 55.2172 41.4756 53.152 42.7359L48.5293 45.5647L45.8293 47.216L45.8339 47.2206Z" fill="white"/>
<path d="M88.1277 67.804C87.079 67.804 86.0303 67.551 85.0644 67.0405L81.5594 65.1914C81.702 65.2006 81.8446 65.2052 81.9872 65.2052C83.2751 65.2052 84.5584 64.8694 85.7037 64.1933L86.3523 63.8115C88.3071 62.6616 88.8499 60.325 88.0127 58.5081L91.9914 60.6424C93.0769 61.2265 93.7393 62.312 93.7623 63.5447C93.7853 64.7774 93.1643 65.886 92.1018 66.5115L91.4487 66.8933C90.4138 67.5004 89.2684 67.804 88.1231 67.804H88.1277Z" fill="#B2B2D4"/>
<path d="M67.9444 128.046C67.3971 128.046 66.8451 128.009 66.2932 127.94C66.2886 127.94 66.284 127.94 66.2794 127.94C65.6722 127.862 65.3042 127.232 65.5112 126.661L84.2134 75.2646C84.6412 74.0871 85.7359 73.2868 86.987 73.2178C97.4006 72.6244 101.149 66.5391 99.5901 61.2771C100.823 63.6091 101.09 66.4287 100.128 69.0459L78.6754 121.252C78.6662 121.27 78.6616 121.289 78.6524 121.312C78.565 121.579 78.4731 121.845 78.3673 122.108C78.1051 122.761 77.7923 123.386 77.4289 123.97C74.9819 126.588 71.5092 128.046 67.9399 128.046H67.9444ZM78.6892 111.639C77.9533 111.639 77.084 112.37 76.5872 113.483C75.9938 114.808 76.1548 116.169 76.946 116.528C77.0748 116.583 77.2128 116.611 77.3553 116.611C78.0913 116.611 78.9606 115.88 79.4574 114.766C80.0507 113.442 79.8897 112.08 79.0986 111.722C78.9698 111.662 78.8318 111.634 78.6892 111.634V111.639ZM90.5839 83.4244C89.848 83.4244 88.9787 84.1558 88.4819 85.2689C87.8885 86.5936 88.0495 87.9551 88.8407 88.3093C88.9695 88.3691 89.1075 88.3921 89.25 88.3921C89.986 88.3921 90.8553 87.6607 91.3521 86.5476C91.9454 85.2229 91.7845 83.8614 90.9933 83.5026C90.8645 83.4474 90.7265 83.4198 90.5839 83.4198V83.4244Z" fill="#1272D4"/>
<path d="M89.2454 88.3921C89.1028 88.3921 88.9648 88.3645 88.8361 88.3093C88.0449 87.9551 87.8839 86.5936 88.4773 85.2689C88.974 84.1558 89.8434 83.4244 90.5793 83.4244C90.7219 83.4244 90.8599 83.452 90.9887 83.5072C91.7798 83.8614 91.9408 85.2229 91.3475 86.5522C90.8507 87.6653 89.9814 88.3967 89.2454 88.3967V88.3921Z" fill="#6A95D4"/>
<path d="M77.3507 116.611C77.2082 116.611 77.0702 116.583 76.9414 116.528C76.1502 116.174 75.9892 114.812 76.5826 113.483C77.0794 112.37 77.9487 111.639 78.6846 111.639C78.8272 111.639 78.9652 111.666 79.094 111.726C79.8852 112.08 80.0461 113.442 79.4528 114.771C78.956 115.884 78.0867 116.616 77.3507 116.616V116.611Z" fill="#6A95D4"/>
<path d="M88.0633 84.8503C87.47 86.175 87.6309 87.5365 88.4221 87.8953C89.2132 88.2495 90.3401 87.4629 90.9289 86.1382C91.5223 84.8135 91.3613 83.452 90.5701 83.0932C89.779 82.7391 88.6567 83.5256 88.0587 84.8503H88.0633Z" fill="#000072"/>
<path d="M76.1686 113.069C75.5753 114.394 75.7363 115.755 76.5274 116.114C77.3185 116.468 78.4409 115.682 79.0342 114.357C79.6276 113.032 79.4666 111.671 78.6754 111.312C77.8843 110.958 76.762 111.744 76.1686 113.069Z" fill="#000072"/>
<path d="M61.1967 49.272L72.3831 55.155L77.7509 40.6017C78.0361 39.8243 77.4059 39.0194 76.5826 39.1114L71.1734 39.7231L68.3538 35.0821C67.8708 34.2863 66.6795 34.4013 66.3576 35.2753L61.2243 49.2122L61.2013 49.2766L61.1967 49.272Z" fill="#FF4229"/>
<path d="M63.2298 48.8902C62.9124 48.8074 62.5905 48.7108 62.2639 48.5913L67.2959 34.9257C67.3005 34.9119 67.3051 34.9073 67.3235 34.9027H67.3281C67.3465 34.9027 67.3465 34.9073 67.3557 34.9165L67.9813 35.9468L63.2298 48.8902Z" fill="#FFAA9E"/>
<path d="M57.6826 47.2206C58.7497 47.1378 59.5685 47.5241 60.3826 47.9197C61.2013 48.3061 62.0017 48.72 62.802 49.1432C64.3889 50.0033 65.9482 50.9187 67.5489 51.765L69.9407 53.0345C70.741 53.4531 71.5322 53.8901 72.3417 54.2902C73.1604 54.6766 73.9562 55.1044 74.6921 55.6379C75.4327 56.1715 76.1456 56.7464 76.7758 57.4732C76.8172 57.5238 76.8126 57.5974 76.762 57.6388C76.7344 57.6618 76.6976 57.671 76.6654 57.6664C75.7179 57.5146 74.8531 57.211 74.016 56.866C73.5974 56.6958 73.188 56.4981 72.7925 56.2819C72.3969 56.0657 72.0151 55.8219 71.6242 55.6011C70.8422 55.1504 70.0373 54.741 69.2415 54.3132L66.8497 53.0437C65.2582 52.1928 63.6254 51.4154 62.0247 50.5783C61.2289 50.1551 60.4378 49.7228 59.6605 49.2628C58.8785 48.8074 58.1012 48.3475 57.5722 47.4183C57.5354 47.3539 57.5584 47.2757 57.6228 47.239C57.6412 47.2298 57.6596 47.2252 57.678 47.2206H57.6826Z" fill="#B2B2D4"/>
<path d="M39.9003 117.379L37.2095 116.022L37.7155 114.918C38.0743 114.136 38.1755 113.295 38.0099 112.485L37.4211 109.592L42.122 111.915C42.1082 112.315 42.0116 112.715 41.846 113.097C41.846 113.115 41.846 113.129 41.846 113.143L39.9969 117.172L39.9003 117.379ZM30.9218 77.6519L29.9007 72.6337C29.8961 72.5509 29.8869 72.4635 29.8685 72.3807L29.7029 71.5573V71.5481C29.6983 71.5343 29.6983 71.5159 29.6937 71.5021C29.6753 71.4331 29.6569 71.3641 29.6293 71.2952L29.4039 70.182L31.7176 63.9035C32.3201 64.5889 32.7525 65.4306 32.9457 66.3873L33.4654 68.9539C33.6724 69.0459 33.8564 69.1793 34.0082 69.3403L30.9264 77.6473L30.9218 77.6519Z" fill="#1272D4"/>
<path d="M29.404 70.182L28.898 67.6844C28.8842 67.6246 28.875 67.5648 28.8566 67.505L30.5539 62.9008C30.9862 63.1768 31.3772 63.5125 31.7176 63.8989L29.404 70.1774V70.182Z" fill="#6A95D4"/>
<path d="M42.1266 111.91L37.4258 109.587L30.9218 77.6519L34.0036 69.3449C34.2014 69.5565 34.3394 69.8233 34.3992 70.1222L34.5694 70.9502C34.6798 71.4975 34.505 72.0265 34.16 72.3945L42.0668 111.183C42.1128 111.423 42.1358 111.666 42.1266 111.91Z" fill="#4285D4"/>
<path d="M71.9645 54.0649L66.2242 51.0475C65.1755 50.4679 64.1313 49.87 63.0826 49.295L63.2298 48.8902C63.9933 49.0834 64.7247 49.1754 65.433 49.1754C71.9921 49.1754 76.0812 41.4986 76.8862 39.8473L77.1713 39.8151H77.176C77.1805 39.8151 77.1898 39.8151 77.1989 39.8289C77.2081 39.8427 77.2081 39.8519 77.2035 39.8611L71.9645 54.0695V54.0649Z" fill="#B22E3F"/>
<path d="M63.0826 49.295C62.986 49.2444 62.894 49.1892 62.7974 49.1386C62.5905 49.0282 62.3881 48.9224 62.1811 48.812L62.2639 48.5867C62.5905 48.7062 62.9124 48.8028 63.2298 48.8856L63.0826 49.2904V49.295Z" fill="#B27791"/>
<path d="M17.2195 72.721C17.3667 72.5647 17.5461 72.4359 17.753 72.3439C19.3215 71.6493 21.005 71.1066 22.7759 70.7478C24.5467 70.389 26.3084 70.2326 28.0241 70.2648C28.2494 70.2694 28.4656 70.3154 28.6588 70.4074L28.1391 67.8454C27.5503 64.9246 24.7031 63.0388 21.7823 63.6275L20.9176 63.8023C17.9968 64.3911 16.111 67.2383 16.6997 70.159L17.2195 72.7256V72.721Z" fill="#FF4229"/>
<path d="M17.891 72.1599L17.4495 70.0026C17.2057 68.7929 17.4449 67.5556 18.1302 66.5253C18.5258 65.9274 19.0455 65.4398 19.6435 65.0902C18.5396 66.3183 18.0106 68.0294 18.3648 69.7727L18.7742 71.7965C18.4752 71.9115 18.1808 72.0311 17.8864 72.1599H17.891Z" fill="#FFAA9E"/>
<path d="M25.7794 70.2188L25.4115 68.3928C25.0205 66.4655 23.6498 64.989 21.9249 64.3773L21.9387 64.3727C22.2469 64.3083 22.5597 64.2807 22.8679 64.2807C23.7694 64.2807 24.6479 64.5428 25.4161 65.0534C26.4464 65.7388 27.1501 66.7783 27.3939 67.9926L27.8355 70.1498C27.7573 70.1498 27.6791 70.1498 27.5963 70.1498C26.9937 70.1498 26.3912 70.1728 25.784 70.2188H25.7794Z" fill="#B22E3F"/>
<path d="M30.655 120.185L32.1637 121.776C32.7065 122.351 33.7966 122.131 34.0772 121.39L34.8499 119.339L37.0256 114.596C37.3153 113.966 37.3981 113.285 37.2647 112.632L29.3579 73.8433L28.6634 70.4028C28.4656 70.3154 28.2494 70.2648 28.0286 70.2602C26.313 70.228 24.5513 70.3844 22.7804 70.7432C21.0096 71.102 19.3261 71.6447 17.7576 72.3393C17.5506 72.4313 17.3712 72.56 17.2241 72.7164L17.9186 76.1524L25.8254 114.941C25.9542 115.594 26.2992 116.188 26.8097 116.657L30.655 120.18V120.185Z" fill="#1D9CD7"/>
<path d="M30.655 120.185L32.1637 121.776C32.7065 122.351 33.7966 122.131 34.0772 121.39L34.8499 119.339L37.0256 114.596C37.3153 113.966 37.3981 113.285 37.2647 112.632L29.3579 73.8433L28.6634 70.4028C28.4656 70.3154 28.2494 70.2648 28.0286 70.2602C26.313 70.228 24.5513 70.3844 22.7804 70.7432C21.0096 71.102 19.3261 71.6447 17.7576 72.3393C17.5506 72.4313 17.3712 72.56 17.2241 72.7164L17.9186 76.1524L25.8254 114.941C25.9542 115.594 26.2992 116.188 26.8097 116.657L30.655 120.18V120.185Z" fill="#FFC306"/>
<path d="M26.589 114.868C26.5844 114.845 26.5798 114.817 26.5706 114.794L18.7512 76.3916C18.9305 76.3732 19.1099 76.3226 19.2801 76.249C19.3859 76.203 19.4871 76.157 19.5929 76.111L27.3709 114.274C27.3709 114.279 27.3709 114.279 27.3709 114.284C27.2881 114.316 27.2099 114.353 27.1317 114.399L27.1271 114.389L27.0259 114.44C26.9201 114.491 26.8236 114.55 26.7316 114.619L26.7086 114.642C26.658 114.716 26.6166 114.794 26.5844 114.872L26.589 114.868Z" fill="#FFE48F"/>
<path d="M37.044 114.592L35.1949 118.621L34.8683 119.329L34.0956 121.381C34.0174 121.583 33.884 121.744 33.7138 121.864C33.2631 122.177 32.5777 122.181 32.1821 121.767L30.6735 120.176L30.0387 119.592L26.8281 116.652C26.3498 115.903 26.3912 115.254 26.6856 114.812C26.9937 114.348 27.5733 114.109 28.116 114.196C28.5806 114.274 29.036 114.017 29.2476 113.598C29.6247 112.848 30.3331 112.273 31.2208 112.094C32.0947 111.919 32.9595 112.163 33.5988 112.692C33.9438 112.977 34.4406 113.009 34.8315 112.784C35.7147 112.269 37.2188 112.646 37.044 114.582V114.592Z" fill="#FFC76C"/>
<path d="M37.044 114.592C37.136 114.394 37.1314 114.495 37.1084 114.596C37.0854 114.697 37.0348 114.803 37.044 114.592Z" fill="#FCBC41"/>
<path d="M34.2796 112.94C34.2428 112.94 34.206 112.94 34.1692 112.936L26.3498 74.5701L26.3314 74.4919C26.75 74.4643 27.1639 74.4505 27.5825 74.4505C27.7665 74.4505 27.9505 74.4551 28.1345 74.4597C28.1483 74.4597 28.1667 74.4597 28.1805 74.4597C28.3552 74.4597 28.53 74.4321 28.691 74.3815L36.5104 112.789C36.5196 112.83 36.5288 112.876 36.5334 112.917C36.2712 112.687 35.9447 112.586 35.6135 112.586C35.3375 112.586 35.0615 112.66 34.8316 112.793C34.6614 112.894 34.4682 112.94 34.2796 112.94Z" fill="#B28827"/>
<path d="M33.4332 120.912C33.4102 120.893 33.3919 120.875 33.3689 120.852L32.0901 119.504L34.0128 115.318C34.3026 114.688 34.3854 114.008 34.2566 113.354L34.1692 112.931C34.206 112.936 34.2428 112.936 34.2796 112.936C34.4682 112.936 34.6614 112.885 34.8315 112.789C35.0661 112.655 35.3375 112.582 35.6135 112.582C35.9401 112.582 36.2712 112.687 36.5334 112.913C36.5978 113.364 36.5242 113.833 36.3264 114.274L34.1508 119.017C34.1416 119.035 34.137 119.049 34.1324 119.067L33.4378 120.916L33.4332 120.912Z" fill="#B28B6E"/>
<path d="M31.7682 120.245L31.2116 119.656C31.1978 119.642 31.1886 119.628 31.1748 119.619L27.3295 116.096C27.0535 115.843 26.8419 115.544 26.7039 115.213C26.7315 115.056 26.7913 114.904 26.8787 114.766C26.9247 114.73 26.9707 114.702 27.0213 114.67C27.2053 115.13 27.4905 115.539 27.8723 115.889L31.713 119.408L32.0027 119.711L31.8418 120.061L31.7728 120.245H31.7682Z" fill="#FFE6BD"/>
<path d="M32.9641 121.33C32.8767 121.33 32.7801 121.307 32.7203 121.243L31.7728 120.24L31.8418 120.056L32.0027 119.707L33.2217 120.994C33.2631 121.04 33.3091 121.082 33.3596 121.114C33.3137 121.229 33.1757 121.293 33.0699 121.316C33.0377 121.321 33.0009 121.326 32.9641 121.326V121.33Z" fill="#DCCBBE"/>
<path d="M33.3596 121.119C33.3091 121.082 33.2631 121.04 33.2217 120.999L32.0027 119.711L32.0947 119.509L33.3734 120.856C33.3918 120.875 33.4148 120.898 33.4378 120.916L33.3596 121.119Z" fill="#503F70"/>
<path d="M30.0525 119.743L31.9154 121.703C32.5869 122.411 33.9346 122.14 34.275 121.224L35.2271 118.695C34.3854 118.488 33.4608 118.465 32.5271 118.653C31.5888 118.842 30.7516 119.224 30.0525 119.743Z" fill="#000072"/>
<path d="M17.9186 76.157C18.3234 76.3364 18.7971 76.3548 19.2433 76.1524C20.5956 75.536 22.0491 75.0577 23.59 74.7495C25.1263 74.4413 26.6534 74.3125 28.139 74.3539C28.6266 74.3677 29.059 74.1653 29.358 73.8433C29.7029 73.4754 29.8777 72.9464 29.7673 72.3991L29.5971 71.5711C29.4913 71.0422 29.1326 70.6144 28.6588 70.4028C28.461 70.3154 28.2448 70.2648 28.0241 70.2602C26.3084 70.228 24.5467 70.3844 22.7758 70.7432C21.005 71.102 19.3215 71.6447 17.753 72.3393C17.546 72.4313 17.3667 72.56 17.2195 72.7164C16.8653 73.0936 16.6997 73.6226 16.8101 74.1561L16.9803 74.9887C17.0907 75.536 17.4586 75.95 17.9186 76.157Z" fill="#CAD0D7"/>
<path d="M18.5764 76.1984C18.3694 76.1984 18.1578 76.1524 17.96 76.065C17.5092 75.8626 17.1781 75.4532 17.0815 74.9703L16.9113 74.1377C16.8147 73.6548 16.9573 73.1488 17.2977 72.79C17.4357 72.6383 17.6058 72.5233 17.7944 72.4359C18.1946 72.2565 18.604 72.0909 19.0133 71.9345C18.9397 71.9897 18.8753 72.0495 18.8109 72.1185C18.4568 72.4957 18.2958 73.0246 18.4016 73.5582L18.5718 74.3907C18.6822 74.9381 19.0455 75.3521 19.5101 75.559C19.6803 75.6372 19.8689 75.6832 20.0575 75.697C19.7677 75.812 19.4825 75.9362 19.2019 76.065C18.9995 76.157 18.7879 76.203 18.581 76.203L18.5764 76.1984Z" fill="#E7EAED"/>
<path d="M26.2072 74.2895C26.3498 74.1791 26.474 74.0642 26.5614 73.9676C26.9477 73.5582 27.1087 72.9832 26.9983 72.4313L26.8281 71.6033C26.7269 71.0928 26.3958 70.6604 25.945 70.4212C26.4878 70.3844 27.0305 70.366 27.5733 70.366C27.7251 70.366 27.8723 70.366 28.0195 70.3706C28.231 70.3752 28.4288 70.4166 28.6174 70.504C29.059 70.6972 29.3809 71.0882 29.4867 71.5573C29.4913 71.5711 29.4913 71.5849 29.4959 71.5941L29.5051 71.6355L29.6661 72.4267C29.6799 72.4957 29.6891 72.5647 29.6937 72.6337C29.7167 72.9878 29.6109 73.342 29.4039 73.6318C29.3671 73.6824 29.3258 73.733 29.2844 73.779C28.9992 74.0825 28.6036 74.2573 28.1896 74.2573C28.1758 74.2573 28.1574 74.2573 28.1436 74.2573C27.9597 74.2527 27.7757 74.2481 27.5917 74.2481C27.2283 74.2481 26.8649 74.2573 26.5062 74.2757C26.4096 74.2803 26.3084 74.2849 26.2118 74.2941L26.2072 74.2895Z" fill="#B29EA7"/>
<path d="M27.5871 74.2435C27.7711 74.2435 27.955 74.2481 28.139 74.2527C28.1528 74.2527 28.1712 74.2527 28.185 74.2527C28.1712 74.2527 28.1574 74.2527 28.139 74.2527C27.955 74.2481 27.7711 74.2435 27.5871 74.2435ZM29.4039 73.6272C29.6155 73.3374 29.7167 72.9832 29.6937 72.6291C29.7167 72.9878 29.6155 73.3374 29.4039 73.6272ZM29.5097 71.6355L29.5005 71.5941C29.4959 71.5803 29.4959 71.5665 29.4913 71.5573C29.4959 71.5711 29.4959 71.5849 29.5005 71.5987L29.5097 71.6401V71.6355Z" fill="#250C60"/>
<path d="M25.7288 74.5379C25.9312 74.5195 26.129 74.5057 26.3314 74.4919C26.1474 74.5057 25.9634 74.5195 25.7794 74.5333L25.7288 74.5379Z" fill="#B28827"/>
<path d="M26.3314 74.4873C26.7499 74.4597 27.1639 74.4459 27.5779 74.4459C27.7619 74.4459 27.9459 74.4505 28.1298 74.4551C28.1436 74.4551 28.1574 74.4551 28.1712 74.4551C28.346 74.4551 28.5208 74.4275 28.6864 74.3769C28.5208 74.4275 28.3506 74.4551 28.1758 74.4551C28.162 74.4551 28.1436 74.4551 28.1298 74.4551C27.9459 74.4505 27.7619 74.4459 27.5779 74.4459C27.1639 74.4459 26.7454 74.4597 26.3268 74.4873H26.3314Z" fill="#7C5F3E"/>
<path d="M28.691 74.3815C28.8566 74.3309 29.013 74.2527 29.1556 74.1515C29.013 74.2527 28.8566 74.3263 28.691 74.3815Z" fill="#000072"/>
<path d="M29.7029 71.5481C29.6983 71.5343 29.6983 71.5159 29.6937 71.5021C29.6983 71.5159 29.7029 71.5343 29.7029 71.5481Z" fill="#0D50B6"/>
<path d="M24.7721 70.3154H24.7629L24.8595 70.3062C24.8319 70.3108 24.7997 70.3108 24.7721 70.3154Z" fill="#B22E3F"/>
<path d="M24.7905 70.32L24.7721 70.3154C24.7997 70.3108 24.8319 70.3108 24.8595 70.3062L25.1953 70.2786C25.0619 70.2924 24.9239 70.3062 24.7905 70.32Z" fill="#000072"/>
<path d="M22.0813 74.9243C20.2507 73.3512 21.028 71.4331 21.1062 71.2538C21.6627 71.0974 22.2285 70.964 22.7989 70.849C22.923 70.826 23.0472 70.7984 23.1714 70.7754C24.1788 72.3255 24.0914 74.4045 24.0914 74.4045L22.0813 74.9243Z" fill="#E7EAED"/>
<path d="M25.0481 74.5103C25.1631 74.5103 25.2734 74.5149 25.3884 74.5149C25.6092 74.5195 25.8208 74.4827 26.0094 74.4091C25.692 74.4321 25.37 74.4689 25.0481 74.5103Z" fill="#F8BF71"/>
<path fill-rule="evenodd" clip-rule="evenodd" d="M23.1254 45.6245C31.8694 38.6376 42.9545 34.4611 55.0148 34.4611C83.2475 34.4611 106.135 57.349 106.135 85.5817C106.135 100.057 100.119 113.129 90.4459 122.43C102.17 113.06 109.677 98.6447 109.677 82.4677C109.677 54.235 86.7892 31.3472 58.5566 31.3472C44.799 31.3472 32.3109 36.7793 23.1208 45.6199L23.1254 45.6245Z" fill="#EC239B" fill-opacity="0.2"/>
<path fill-rule="evenodd" clip-rule="evenodd" d="M64.1175 127.549C37.7707 127.549 16.4145 106.193 16.4145 79.8459C16.4145 60.5044 27.9275 43.849 44.477 36.3608C24.7261 42.3863 10.3614 60.7481 10.3614 82.4723C10.3614 109.09 31.943 130.672 58.5612 130.672C68.4044 130.672 77.5531 127.724 85.184 122.659C78.8318 125.792 71.684 127.549 64.1221 127.549H64.1175Z" fill="#EC239B" fill-opacity="0.2"/>
<path fill-rule="evenodd" clip-rule="evenodd" d="M46.3031 39.5989C44.868 40.2567 42.2876 43.2787 42.1174 44.8472C41.7172 48.5499 42.467 53.6325 45.4751 56.1669C52.347 61.9533 62.9308 62.335 69.6739 68.0478C79.4436 76.3226 74.0436 93.8887 76.3296 105.871C77.4703 111.86 82.7461 120.562 89.5812 115.7C102.203 106.722 106.048 82.5275 99.2865 67.3027C88.5325 43.1039 58.5658 33.9782 46.3031 39.5989Z" fill="url(#paint2_radial_71_12001)" fill-opacity="0.34902"/>
<path fill-rule="evenodd" clip-rule="evenodd" d="M93.8221 65.1592C96.2691 65.2834 99.0565 68.2548 100.05 71.7965C101.044 75.3382 99.866 78.1072 97.4236 77.983C94.9766 77.8589 92.1892 74.8875 91.1957 71.3457C90.2021 67.804 91.3797 65.035 93.8221 65.1592Z" fill="url(#paint3_radial_71_12001)" fill-opacity="0.2"/>
<path d="M79.7932 16.0395C80.7814 16.0395 81.5824 15.2384 81.5824 14.2502C81.5824 13.2621 80.7814 12.461 79.7932 12.461C78.805 12.461 78.0039 13.2621 78.0039 14.2502C78.0039 15.2384 78.805 16.0395 79.7932 16.0395Z" fill="#232851"/>
<path d="M92.1478 32.9754C92.661 32.9754 93.0769 32.5594 93.0769 32.0463C93.0769 31.5332 92.661 31.1172 92.1478 31.1172C91.6347 31.1172 91.2187 31.5332 91.2187 32.0463C91.2187 32.5594 91.6347 32.9754 92.1478 32.9754Z" fill="#232851"/>
<path d="M107.028 40.3533C108.016 40.3533 108.817 39.5522 108.817 38.564C108.817 37.5758 108.016 36.7747 107.028 36.7747C106.04 36.7747 105.238 37.5758 105.238 38.564C105.238 39.5522 106.04 40.3533 107.028 40.3533Z" fill="#232851"/>
<path d="M32.3431 29.3509C32.9731 29.3509 33.4839 28.8402 33.4839 28.2102C33.4839 27.5802 32.9731 27.0695 32.3431 27.0695C31.7131 27.0695 31.2024 27.5802 31.2024 28.2102C31.2024 28.8402 31.7131 29.3509 32.3431 29.3509Z" fill="#2C1538"/>
<path d="M20.4898 35.2753C20.8175 35.2753 21.0832 35.0096 21.0832 34.6819C21.0832 34.3542 20.8175 34.0885 20.4898 34.0885C20.1621 34.0885 19.8965 34.3542 19.8965 34.6819C19.8965 35.0096 20.1621 35.2753 20.4898 35.2753Z" fill="#2C1538"/>
<path d="M10.4074 35.3121C10.9815 35.3121 11.4469 34.8467 11.4469 34.2725C11.4469 33.6984 10.9815 33.233 10.4074 33.233C9.83327 33.233 9.36786 33.6984 9.36786 34.2725C9.36786 34.8467 9.83327 35.3121 10.4074 35.3121Z" fill="#2C1538"/>
<path fill-rule="evenodd" clip-rule="evenodd" d="M21.212 41.0018C22.5183 41.0018 23.5808 42.0644 23.5808 43.3707C23.5808 44.677 22.5183 45.7395 21.212 45.7395C19.9057 45.7395 18.8431 44.677 18.8431 43.3707C18.8431 42.0644 19.9057 41.0018 21.212 41.0018Z" fill="#431D53" fill-opacity="0.501961"/>
<path fill-rule="evenodd" clip-rule="evenodd" d="M28.0839 43.2557C29.2844 43.2557 30.2549 42.2851 30.2549 41.0846C30.2549 40.8776 30.4251 40.7029 30.6367 40.7029C30.8437 40.7029 31.0184 40.873 31.0184 41.0846C31.0184 42.2851 31.9936 43.2557 33.1895 43.2557C33.3965 43.2557 33.5712 43.4258 33.5712 43.6374C33.5712 43.8444 33.4011 44.0192 33.1895 44.0192C31.989 44.0192 31.0184 44.9943 31.0184 46.1902C31.0184 46.3972 30.8483 46.572 30.6367 46.572C30.4297 46.572 30.2549 46.4018 30.2549 46.1902C30.2549 44.9897 29.2844 44.0192 28.0839 44.0192C27.8769 44.0192 27.7021 43.849 27.7021 43.6374C27.7021 43.4304 27.8723 43.2557 28.0839 43.2557ZM94.1073 112.936C95.5148 112.936 96.6509 111.795 96.6509 110.392C96.6509 110.148 96.8533 109.946 97.0971 109.946C97.3408 109.946 97.5432 110.148 97.5432 110.392C97.5432 111.795 98.6839 112.936 100.087 112.936C100.331 112.936 100.533 113.134 100.533 113.382C100.533 113.626 100.331 113.828 100.087 113.828C98.6793 113.828 97.5432 114.969 97.5432 116.372C97.5432 116.616 97.3454 116.818 97.0971 116.818C96.8533 116.818 96.6509 116.616 96.6509 116.372C96.6509 114.964 95.5102 113.828 94.1073 113.828C93.8635 113.828 93.6611 113.626 93.6611 113.382C93.6611 113.138 93.8635 112.936 94.1073 112.936ZM30.4665 111.142C31.5796 111.142 32.4811 110.24 32.4811 109.127C32.4811 108.934 32.6375 108.773 32.8353 108.773C33.0285 108.773 33.1895 108.93 33.1895 109.127C33.1895 110.24 34.091 111.142 35.2041 111.142C35.3973 111.142 35.5583 111.298 35.5583 111.496C35.5583 111.689 35.4019 111.85 35.2041 111.85C34.091 111.85 33.1895 112.752 33.1895 113.865C33.1895 114.058 33.0331 114.219 32.8353 114.219C32.6421 114.219 32.4811 114.063 32.4811 113.865C32.4811 112.752 31.5796 111.85 30.4665 111.85C30.2733 111.85 30.1123 111.694 30.1123 111.496C30.1123 111.303 30.2687 111.142 30.4665 111.142ZM65.4514 51.6546C65.9344 51.6546 66.3254 52.0456 66.3254 52.5286C66.3254 53.0115 65.9344 53.4025 65.4514 53.4025C64.9685 53.4025 64.5775 53.0115 64.5775 52.5286C64.5775 52.0456 64.9685 51.6546 65.4514 51.6546ZM30.1491 86.4602C31.4554 86.4602 32.5179 87.5227 32.5179 88.829C32.5179 90.1353 31.4554 91.1979 30.1491 91.1979C28.8428 91.1979 27.7803 90.1353 27.7803 88.829C27.7803 87.5227 28.8428 86.4602 30.1491 86.4602ZM31.4186 74.7587C31.92 74.7587 32.3293 74.3493 32.3293 73.848C32.3293 73.7606 32.4029 73.687 32.4903 73.687C32.5777 73.687 32.6513 73.7606 32.6513 73.848C32.6513 74.3539 33.0607 74.7587 33.562 74.7587C33.6494 74.7587 33.723 74.8323 33.723 74.9197C33.723 75.0071 33.6494 75.0807 33.562 75.0807C33.0607 75.0807 32.6513 75.49 32.6513 75.9914C32.6513 76.0788 32.5777 76.1524 32.4903 76.1524C32.4029 76.1524 32.3293 76.0788 32.3293 75.9914C32.3293 75.4854 31.92 75.0807 31.4186 75.0807C31.3312 75.0807 31.2576 75.0071 31.2576 74.9197C31.2576 74.8323 31.3312 74.7587 31.4186 74.7587ZM32.0258 58.6415C32.6375 58.6415 33.1343 58.1447 33.1343 57.533C33.1343 57.4272 33.2217 57.3398 33.3275 57.3398C33.4333 57.3398 33.5206 57.4272 33.5206 57.533C33.5206 58.1447 34.0174 58.6415 34.6292 58.6415C34.735 58.6415 34.8224 58.7289 34.8224 58.8347C34.8224 58.9405 34.735 59.0279 34.6292 59.0279C34.0174 59.0279 33.5206 59.5246 33.5206 60.1364C33.5206 60.2422 33.4333 60.3296 33.3275 60.3296C33.2217 60.3296 33.1343 60.2422 33.1343 60.1364C33.1343 59.5246 32.6375 59.0279 32.0258 59.0279C31.92 59.0279 31.8326 58.9405 31.8326 58.8347C31.8326 58.7289 31.92 58.6415 32.0258 58.6415Z" fill="white" fill-opacity="0.25098"/>
<path fill-rule="evenodd" clip-rule="evenodd" d="M93.6151 40.3441C94.5212 40.3441 95.2526 39.6127 95.2526 38.7066C95.2526 38.5502 95.3814 38.4214 95.5378 38.4214C95.6941 38.4214 95.8229 38.5502 95.8229 38.7066C95.8229 39.6127 96.5543 40.3441 97.4604 40.3441C97.6168 40.3441 97.7456 40.4729 97.7456 40.6293C97.7456 40.7856 97.6168 40.9144 97.4604 40.9144C96.5543 40.9144 95.8229 41.6458 95.8229 42.5519C95.8229 42.7083 95.6941 42.8371 95.5378 42.8371C95.3814 42.8371 95.2526 42.7083 95.2526 42.5519C95.2526 41.6458 94.5212 40.9144 93.6151 40.9144C93.4587 40.9144 93.3299 40.7856 93.3299 40.6293C93.3299 40.4729 93.4587 40.3441 93.6151 40.3441Z" fill="#292E6B"/>
<path fill-rule="evenodd" clip-rule="evenodd" d="M88.4957 19.1075C90.0872 19.1075 91.3751 17.8196 91.3751 16.2281C91.3751 15.9521 91.6005 15.7221 91.881 15.7221C92.157 15.7221 92.3824 15.9475 92.3824 16.2281C92.3824 17.8196 93.6703 19.1075 95.2618 19.1075C95.5378 19.1075 95.7677 19.3329 95.7677 19.6134C95.7677 19.8894 95.5424 20.1148 95.2618 20.1148C93.6703 20.1148 92.3824 21.4027 92.3824 22.9942C92.3824 23.2702 92.157 23.5002 91.881 23.5002C91.6051 23.5002 91.3751 23.2748 91.3751 22.9942C91.3751 21.4027 90.0872 20.1148 88.4957 20.1148C88.2197 20.1148 87.9943 19.8894 87.9943 19.6134C87.9943 19.3375 88.2197 19.1075 88.4957 19.1075Z" fill="#3A3E61"/>
<path fill-rule="evenodd" clip-rule="evenodd" d="M125.734 11.863C128.922 11.863 131.507 9.27802 131.507 6.09046C131.507 5.5339 131.962 5.07854 132.519 5.07854C133.076 5.07854 133.531 5.5339 133.531 6.09046C133.531 9.27802 136.116 11.863 139.303 11.863C139.86 11.863 140.315 12.3184 140.315 12.875C140.315 13.4315 139.86 13.8869 139.303 13.8869C136.116 13.8869 133.531 16.4719 133.531 19.6594C133.531 20.216 133.076 20.6714 132.519 20.6714C131.962 20.6714 131.507 20.216 131.507 19.6594C131.507 16.4719 128.922 13.8869 125.734 13.8869C125.178 13.8869 124.723 13.4315 124.723 12.875C124.723 12.3184 125.178 11.863 125.734 11.863Z" fill="#3A3E61"/>
<path fill-rule="evenodd" clip-rule="evenodd" d="M38.9988 22.0835C39.8682 21.8029 40.3465 20.8737 40.0705 20.0044C40.0199 19.8526 40.1073 19.687 40.2591 19.641C40.4109 19.5904 40.5765 19.6778 40.6225 19.8296C40.9031 20.699 41.8322 21.1773 42.7015 20.9013C42.8533 20.8507 43.0189 20.9381 43.0649 21.0899C43.1155 21.2417 43.0281 21.4073 42.8763 21.4533C42.007 21.7339 41.5286 22.663 41.8046 23.5323C41.8552 23.6841 41.7678 23.8497 41.616 23.8957C41.4642 23.9463 41.2987 23.8589 41.2527 23.7071C40.9721 22.8378 40.0429 22.3594 39.1736 22.6354C39.0218 22.686 38.8562 22.5986 38.8102 22.4468C38.7596 22.295 38.847 22.1294 38.9988 22.0835Z" fill="#2C1538"/>
<path fill-rule="evenodd" clip-rule="evenodd" d="M81.4766 3.16968C82.8059 3.01329 83.758 1.80818 83.6017 0.478882C83.5741 0.2489 83.7396 0.0373156 83.9742 0.00971768C84.2042 -0.0178802 84.4158 0.147707 84.4434 0.38229C84.5998 1.71159 85.8049 2.66372 87.1342 2.50733C87.3642 2.47973 87.5758 2.64532 87.6033 2.8799C87.6309 3.10988 87.4654 3.32147 87.2308 3.34907C85.9015 3.50545 84.9493 4.71056 85.1057 6.03986C85.1333 6.26985 84.9677 6.48143 84.7332 6.50903C84.5032 6.53663 84.2916 6.37104 84.264 6.13646C84.1076 4.80716 82.9025 3.85503 81.5686 4.01142C81.3386 4.03901 81.127 3.87343 81.0994 3.63884C81.0718 3.40886 81.2374 3.19728 81.472 3.16968H81.4766Z" fill="#3A3E61"/>
<path fill-rule="evenodd" clip-rule="evenodd" d="M41.0043 137.047C41.6528 137.42 42.4808 137.199 42.8579 136.55C42.9223 136.435 43.0695 136.399 43.1799 136.463C43.2949 136.527 43.3317 136.675 43.2673 136.785C42.8947 137.434 43.1155 138.262 43.7641 138.639C43.8791 138.703 43.9159 138.85 43.8515 138.961C43.7871 139.076 43.6399 139.112 43.5295 139.048C42.8809 138.675 42.053 138.896 41.6758 139.545C41.6114 139.66 41.4642 139.697 41.3539 139.632C41.2389 139.568 41.2021 139.421 41.2665 139.31C41.639 138.662 41.4183 137.834 40.7697 137.457C40.6547 137.392 40.6179 137.245 40.6823 137.135C40.7467 137.02 40.8939 136.983 41.0043 137.047Z" fill="#462262"/>
<path d="M65.7826 145.52C66.6463 145.52 67.3465 144.82 67.3465 143.956C67.3465 143.092 66.6463 142.392 65.7826 142.392C64.9189 142.392 64.2187 143.092 64.2187 143.956C64.2187 144.82 64.9189 145.52 65.7826 145.52Z" fill="#4E236C"/>
<path d="M79.7334 145.313C80.1271 145.313 80.4463 144.994 80.4463 144.6C80.4463 144.206 80.1271 143.887 79.7334 143.887C79.3396 143.887 79.0204 144.206 79.0204 144.6C79.0204 144.994 79.3396 145.313 79.7334 145.313Z" fill="#4E236C"/>
<path d="M96.0299 137.351C96.9521 137.351 97.6996 136.603 97.6996 135.681C97.6996 134.759 96.9521 134.011 96.0299 134.011C95.1078 134.011 94.3603 134.759 94.3603 135.681C94.3603 136.603 95.1078 137.351 96.0299 137.351Z" fill="#4E236C"/>
<path d="M80.8557 160.004C82.4789 160.004 83.7949 158.688 83.7949 157.065C83.7949 155.442 82.4789 154.126 80.8557 154.126C79.2324 154.126 77.9165 155.442 77.9165 157.065C77.9165 158.688 79.2324 160.004 80.8557 160.004Z" fill="#4E236C"/>
</g>
<defs>
<radialGradient id="paint0_radial_71_12001" cx="0" cy="0" r="1" gradientUnits="userSpaceOnUse" gradientTransform="translate(58.5612 82.4723) scale(56.8885 56.8885)">
<stop stop-color="#EE249C"/>
<stop offset="0.890196" stop-color="#852172"/>
<stop offset="1" stop-color="#1C1E48"/>
</radialGradient>
<linearGradient id="paint1_linear_71_12001" x1="12.1553" y1="103.916" x2="104.972" y2="61.0287" gradientUnits="userSpaceOnUse">
<stop stop-color="#783CA1"/>
<stop offset="1" stop-color="#EE229B"/>
</linearGradient>
<radialGradient id="paint2_radial_71_12001" cx="0" cy="0" r="1" gradientUnits="userSpaceOnUse" gradientTransform="translate(72.101 77.5598) scale(30.2811 39.5616)">
<stop stop-color="#EE249C"/>
<stop offset="1" stop-color="#FFE500"/>
</radialGradient>
<radialGradient id="paint3_radial_71_12001" cx="0" cy="0" r="1" gradientUnits="userSpaceOnUse" gradientTransform="translate(95.5352 71.6183) rotate(2.89882) scale(4.43411 6.31329)">
<stop stop-color="#FCC15B"/>
<stop offset="1" stop-color="white"/>
</radialGradient>
<clipPath id="clip0_71_12001">
<rect width="139.448" height="160" fill="white" transform="translate(0.863098)"/>
</clipPath>
</defs>
</svg>
