<svg width="141" height="160" viewBox="0 0 141 160" fill="none" xmlns="http://www.w3.org/2000/svg">
<g clip-path="url(#clip0_71_12188)">
<path d="M58.6527 140.171C90.5186 140.171 116.351 114.338 116.351 82.4722C116.351 50.6063 90.5186 24.7738 58.6527 24.7738C26.7867 24.7738 0.954315 50.6063 0.954315 82.4722C0.954315 114.338 26.7867 140.171 58.6527 140.171Z" fill="url(#paint0_radial_71_12188)"/>
<path d="M58.6527 133.594C86.8866 133.594 109.775 110.706 109.775 82.4722C109.775 54.2383 86.8866 31.3502 58.6527 31.3502C30.4188 31.3502 7.53067 54.2383 7.53067 82.4722C7.53067 110.706 30.4188 133.594 58.6527 133.594Z" fill="url(#paint1_linear_71_12188)"/>
<path fill-rule="evenodd" clip-rule="evenodd" d="M58.1852 62.4311C56.8163 61.9985 55.3509 62.0942 54.0506 62.7051C52.706 63.3367 51.6761 64.4561 51.1486 65.8483C50.7936 66.7842 50.3424 67.1841 49.2961 67.0889C48.4629 67.0129 47.6033 66.831 46.8336 66.4917C45.8746 66.0674 45.5095 65.5743 44.9642 64.708L40.889 58.2338C39.9529 56.7466 40.3943 54.7661 41.8699 53.8356L64.7153 39.4248C64.8384 39.3356 64.9782 39.2519 65.109 39.1761C65.2177 39.1088 65.3308 39.0472 65.447 38.9926C68.3835 37.4982 71.2308 38.2821 73.0499 41.1171C73.0651 41.1393 73.0788 41.1616 73.0937 41.1838L75.5653 45.1093C76.3339 43.7234 77.5202 42.5983 78.9925 41.9169C81.4631 40.7734 84.0733 40.7951 86.4882 42.1023C88.4766 43.1796 90.1172 45.0317 91.0784 47.0732C92.8967 50.936 91.2604 55.53 87.4241 57.3323C86.2491 57.8846 84.9719 58.1217 83.7053 58.0435L87.8289 64.5932C88.7648 66.0799 88.3236 68.0599 86.847 68.9914L80.7293 72.8504C82.3357 73.6075 83.6598 74.909 84.4408 76.5682C86.2623 80.437 84.5969 84.9793 80.7966 86.8222C77.4767 88.4332 73.4243 88.718 70.28 86.4867C69.0822 85.6372 68.1532 84.4998 67.5279 83.1713C67.2806 82.6458 67.0925 82.0957 66.9684 81.531L63.705 83.5894C62.9433 84.1055 61.8419 84.4707 60.9409 84.5616C58.6554 84.7915 56.8779 83.5975 55.6664 81.7087C55.6517 81.6861 55.6385 81.6659 55.6241 81.643L50.8446 74.0499L50.8377 74.0382C50.5075 73.4809 50.1281 72.8206 50.64 72.2136C51.0657 71.7087 51.6685 71.8035 52.1967 72.0303C52.8937 72.3298 53.6424 72.4974 54.3994 72.5092H54.414C55.276 72.521 56.1217 72.3354 56.9008 71.9695C59.7568 70.6277 60.9746 67.2096 59.6206 64.3336C59.2775 63.6049 58.7913 62.9588 58.185 62.4313L58.1852 62.4311Z" fill="#9E0F4D"/>
<path fill-rule="evenodd" clip-rule="evenodd" d="M48.4136 65.9623C47.8999 65.8464 47.5494 65.7319 47.225 65.589C46.5087 65.272 46.278 64.953 45.7941 64.184L41.7186 57.7101C41.0719 56.6823 41.3768 55.3149 42.3964 54.6718L65.2717 40.2423C65.2717 40.2423 65.3956 40.1518 65.6178 40.0236L65.6236 40.0198C65.7071 39.9673 65.7932 39.9211 65.8795 39.8817C66.7682 39.4259 68.5017 38.8044 70.2089 39.6939C69.6913 39.7216 69.1735 39.8775 68.7071 40.1714L45.4794 54.8236C44.0041 55.7552 43.5622 57.7347 44.4983 59.2221L48.4961 65.5729C48.6996 65.8961 48.7071 66.0284 48.4136 65.9623Z" fill="#FA5C98"/>
<path fill-rule="evenodd" clip-rule="evenodd" d="M48.0569 65.8752C47.7262 65.7874 47.4681 65.696 47.225 65.589C46.5087 65.272 46.278 64.953 45.7941 64.1841L41.7186 57.7101C41.0719 56.6823 41.3768 55.3149 42.3964 54.6718L65.2717 40.2423C65.2717 40.2423 65.3956 40.1519 65.6178 40.0236L65.6236 40.0198C65.707 39.9673 65.7932 39.9211 65.8795 39.8817C66.5919 39.5166 67.8477 39.0443 69.1965 39.33C69.1232 39.3179 68.3826 39.2525 66.0255 40.739C63.5329 42.3117 47.8674 52.1937 44.958 54.0287C42.0487 55.8646 41.9953 56.8945 43.621 59.4765C45.2466 62.0595 46.1183 63.444 46.7295 64.4152C47.3409 65.3862 48.0569 65.8752 48.0569 65.8752Z" fill="#CF4782"/>
<path fill-rule="evenodd" clip-rule="evenodd" d="M55.037 73.4739C55.8086 73.4113 56.5812 73.2117 57.322 72.8637C60.6684 71.2916 62.0952 67.285 60.5091 63.9162C60.4844 63.8633 60.4581 63.8108 60.4319 63.7586C60.9339 64.238 61.3589 64.8162 61.6725 65.4827C63.0265 68.3584 61.8087 71.7768 58.953 73.1184C57.8639 73.63 56.6543 73.7832 55.4697 73.5571L55.0371 73.4739H55.037Z" fill="#FEDC34"/>
<path fill-rule="evenodd" clip-rule="evenodd" d="M55.037 73.4739C55.8086 73.4113 56.5812 73.2117 57.322 72.8637C60.6684 71.2916 62.0952 67.285 60.5091 63.9162C60.4844 63.8633 60.4581 63.8108 60.4319 63.7586C60.4319 63.7586 62.4745 66.9891 60.9505 70.0195C59.4256 73.0506 56.6081 73.5155 55.037 73.4739V73.4739Z" fill="#FAA933"/>
<path fill-rule="evenodd" clip-rule="evenodd" d="M60.1794 83.597C58.9912 83.5386 57.6365 82.9662 56.4876 81.1709C56.4765 81.1542 56.4654 81.1377 56.4544 81.1196L54.4973 78.0103L51.6819 73.5378C50.8324 72.1043 52.4035 73.2276 53.4041 73.8118C53.7196 73.9957 53.924 74.1959 54.2613 74.7318L59.2341 82.632C59.485 83.0301 59.8092 83.3531 60.1794 83.597Z" fill="#FEDC34"/>
<path fill-rule="evenodd" clip-rule="evenodd" d="M60.1794 83.597C58.9912 83.5386 57.6365 82.9662 56.4876 81.1709C56.4765 81.1543 56.4654 81.1377 56.4544 81.1196L54.4973 78.0104L51.6819 73.5378C50.9753 72.3457 51.9424 72.9209 52.8641 73.4851C52.8641 73.4851 52.467 73.4257 53.2911 74.7765C54.1148 76.1267 57.0252 80.7427 57.83 82.0191C58.6341 83.2946 59.6671 83.558 60.1795 83.597L60.1794 83.597Z" fill="#FAA933"/>
<path fill-rule="evenodd" clip-rule="evenodd" d="M74.9076 87.0861C72.054 86.8915 69.6426 85.3584 68.4163 82.754C68.1433 82.1739 67.9593 81.5736 67.8588 80.9698L69.804 79.7422C69.7968 80.8907 70.0469 82.0346 70.5462 83.0958C71.4557 85.0273 73.0556 86.4103 74.9077 87.0862L74.9076 87.0861Z" fill="#FA5C98"/>
<path fill-rule="evenodd" clip-rule="evenodd" d="M74.9076 87.0861C72.054 86.8915 69.6426 85.3584 68.4163 82.754C68.1433 82.1739 67.9593 81.5736 67.8588 80.9699L68.5987 80.5025C69.8364 86.3472 74.9076 87.0861 74.9076 87.0861Z" fill="#CF4782"/>
<path fill-rule="evenodd" clip-rule="evenodd" d="M90.19 47.4905C91.7765 50.8602 90.3492 54.8659 87.0033 56.438C85.2381 57.2673 83.292 57.2538 81.6141 56.5614L86.9997 65.1163C87.6457 66.1443 87.3405 67.5119 86.3204 68.1544L78.3795 73.1652C80.5538 73.4705 82.5427 74.8403 83.5526 76.9855C83.5777 77.0389 83.601 77.0916 83.6243 77.1445C83.6476 77.1972 83.671 77.2499 83.6929 77.3032C83.715 77.3566 83.7352 77.4093 83.7559 77.4632C84.9985 80.7218 83.5341 84.3897 80.3657 85.9325C77.0183 87.505 73.0213 86.0487 71.4345 82.6784C70.6781 81.0714 70.6071 79.318 71.1033 77.7534L67.7687 79.8575L65.6247 81.2098L63.0944 82.8071C62.0739 83.4498 60.711 83.1359 60.0636 82.1071L55.2913 74.526C56.6276 74.7812 58.0518 74.6342 59.3742 74.013C62.7201 72.4412 64.1467 68.434 62.5607 65.065C61.7326 63.3061 60.2476 62.0693 58.5406 61.5113L58.5389 61.5111C56.976 61.0002 55.2281 61.0598 53.6295 61.8108C51.9969 62.5778 50.8277 63.9257 50.2297 65.4925C49.9962 66.1037 49.9228 65.9976 49.6503 65.5644L45.3281 58.6982C44.6813 57.6704 44.9865 56.304 46.0061 55.6606L69.2335 41.0078C70.2351 40.3755 71.5692 40.6692 72.229 41.6546L72.2295 41.6553L72.2302 41.6568L72.2304 41.6577H72.2321L72.2333 41.6601L72.2335 41.6608L72.2341 41.6618L72.2348 41.6632L72.235 41.664L72.2355 41.6649H72.2372C72.2451 41.6784 72.2542 41.6914 72.2619 41.7046L72.2624 41.7053L72.2626 41.7063L72.2632 41.707L77.4346 49.9223C77.5686 47.5423 78.9615 45.3151 81.2588 44.2359C84.6047 42.664 88.6039 44.1213 90.1899 47.4904L90.19 47.4905Z" fill="#FA5C98"/>
<path fill-rule="evenodd" clip-rule="evenodd" d="M75.9034 49.4227L71.8583 42.997C70.7677 41.2643 69.6344 42.0429 69.6344 42.0429L69.2914 40.973C70.2855 40.3874 71.5829 40.6877 72.2292 41.6547L72.2297 41.6554L72.2304 41.6569L72.2306 41.6578H72.2323L72.2335 41.6602L72.2338 41.6609L72.2343 41.6619L72.235 41.6633L72.2352 41.664L72.2357 41.665H72.2374L72.2436 41.6754L72.2441 41.6761L72.2444 41.6768L72.2449 41.6778L72.2454 41.6785L76.7927 48.9024L77.4349 49.9225C77.4349 49.9225 76.717 50.7147 75.9037 49.4234L75.9035 49.4227H75.9034ZM71.1035 77.7535L70.3884 78.2045L67.7688 79.8576L65.6248 81.2098L63.0945 82.8072C62.3052 83.3038 61.3113 83.2286 60.6025 82.6946C60.7598 82.1438 60.9034 81.7173 60.9678 81.7382C61.1434 81.7926 61.591 82.5252 63.4414 81.3344C64.0908 80.9175 66.7774 79.2202 70.0562 77.1517C71.4335 76.5699 71.1035 77.7535 71.1035 77.7535V77.7535ZM81.6146 56.5622L81.6141 56.5614L86.9997 65.1164C87.6457 66.1444 87.3412 67.5101 86.3218 68.1538L80.1031 72.0774L78.3795 73.1653C80.5538 73.4705 82.5427 74.8403 83.5526 76.9856C83.5777 77.039 83.601 77.0917 83.6243 77.1446C83.6476 77.1973 83.671 77.2499 83.6929 77.3033C83.715 77.3567 83.7352 77.4094 83.7559 77.4632C84.6408 79.7821 84.153 82.3091 82.6582 84.1286C82.7275 84.0168 84.9811 80.3245 82.365 76.9997C80.7886 74.995 78.2482 74.4762 76.4445 74.385C75.0146 74.2256 75.9521 73.4371 75.956 73.4323C80.4329 70.6112 84.5357 68.028 85.2116 67.6018C86.7142 66.6536 86.4241 66.1357 85.5063 64.6777L79.8732 55.728C79.872 55.7254 79.3484 54.2166 80.468 54.7397C80.4709 54.7423 84.3265 57.0687 87.7165 54.9738C91.0842 52.8939 90.45 48.1643 90.4404 48.0948C91.6007 51.3258 90.1508 54.9593 87.0033 56.4381C85.2381 57.2675 83.292 57.254 81.6146 56.5622V56.5622Z" fill="#FDC6DB"/>
<path fill-rule="evenodd" clip-rule="evenodd" d="M77.4348 49.9225C77.5688 47.5425 78.9616 45.3152 81.2589 44.236C84.1171 42.8934 87.4529 43.7612 89.3523 46.1436C81.1339 40.8863 77.4348 49.9225 77.4348 49.9225V49.9225Z" fill="#CF4782"/>
<path fill-rule="evenodd" clip-rule="evenodd" d="M81.8017 84.9969C81.3736 85.3596 80.8935 85.6768 80.3658 85.9325C77.0184 87.5051 73.0215 86.0487 71.4347 82.6785C70.6783 81.0715 70.6073 79.3181 71.1035 77.7535C71.1035 77.7535 70.8251 80.1775 73.2095 83.358C75.5955 86.5377 79.815 86.3032 81.8017 84.9969Z" fill="#CF4782"/>
<path fill-rule="evenodd" clip-rule="evenodd" d="M57.086 77.3768L55.2914 74.5261C56.6278 74.7813 58.0519 74.6343 59.3744 74.0131C62.7203 72.4412 64.1468 68.4341 62.5609 65.0651C62.4485 64.8265 62.3242 64.5982 62.1888 64.3796C62.1888 64.3796 64.7633 68.2356 63.1564 71.5479C62.2523 73.41 60.742 74.4597 59.5406 75.1594C58.3604 75.8458 57.3482 75.8054 57.7612 76.6446C58.2339 77.605 57.6099 77.1384 57.0861 77.3768H57.086Z" fill="#FAA933"/>
<path fill-rule="evenodd" clip-rule="evenodd" d="M50.555 64.769C50.4324 65.0033 50.3239 65.245 50.2298 65.4925C49.9963 66.1037 49.9229 65.9976 49.6504 65.5644L45.3282 58.6982C44.6814 57.6704 44.9866 56.304 46.0062 55.6606L69.2336 41.0078C70.065 40.4833 71.126 40.5963 71.8394 41.2137C71.8361 41.2125 71.1486 41.054 68.6631 42.6215C66.1707 44.194 51.8528 53.2283 48.9425 55.0638C46.0332 56.8997 45.9795 57.9286 47.6055 60.5114C49.2312 63.0944 48.8959 62.5616 49.5068 63.5319C49.8791 64.1236 50.2904 64.5361 50.555 64.7689V64.769ZM62.4162 83.0869C61.533 83.2858 60.5753 82.9202 60.0636 82.1073L55.2914 74.5262C55.8243 74.6274 56.3718 74.6654 56.9205 74.6347C56.8341 74.7217 56.7263 75.0007 57.2495 75.8317C57.9477 76.9408 60.1904 80.5032 60.9677 81.7383C61.5611 82.6807 62.1639 82.9926 62.4162 83.0869Z" fill="#CF4782"/>
<path fill-rule="evenodd" clip-rule="evenodd" d="M76.1788 46.0842C76.8094 44.6901 77.9161 43.5045 79.4087 42.8138C81.7123 41.7478 83.8531 41.9262 85.6501 42.7799C84.0802 42.4511 82.3975 42.6101 80.8382 43.3425C79.0653 44.1754 77.7157 45.6356 77.0047 47.3963L76.1788 46.0843V46.0842Z" fill="#FA5C98"/>
<path fill-rule="evenodd" clip-rule="evenodd" d="M76.1788 46.0842C76.8094 44.6901 77.9161 43.5045 79.4088 42.8138C81.7123 41.7478 83.8531 41.9262 85.6501 42.7799C85.6501 42.7799 79.6406 40.4911 76.591 46.7406L76.1787 46.0842H76.1788Z" fill="#CF4782"/>
<path fill-rule="evenodd" clip-rule="evenodd" d="M58.2703 78.1357L60.9728 82.4754C61.8981 83.9616 61.4389 85.9363 59.9525 86.8616L36.9411 101.191C36.8168 101.281 36.6763 101.363 36.5462 101.439C36.436 101.506 36.3215 101.567 36.2047 101.621C33.2513 103.106 30.4042 102.317 28.6046 99.4837C28.59 99.4615 28.576 99.4401 28.5613 99.4178L26.1171 95.4931L18.0687 82.5685L13.992 76.0214C13.0667 74.535 13.5239 72.5603 15.0113 71.634L21.1736 67.7972C19.571 67.0383 18.256 65.7374 17.4861 64.0782C15.6942 60.2133 17.3995 55.6837 21.2226 53.8535C24.5638 52.2536 28.6252 51.9784 31.7583 54.2126C32.951 55.0631 33.872 56.1996 34.488 57.5264C34.7317 58.0534 34.9154 58.6019 35.036 59.1646L38.3225 57.1184C39.0898 56.6054 40.1964 56.2431 41.0998 56.1549C43.3915 55.93 45.163 57.1263 46.361 59.0142C46.3749 59.0354 46.3886 59.0568 46.4029 59.0796L47.8701 61.4353L48.1808 61.9344C48.4146 61.708 48.663 61.4954 48.925 61.2987C49.1614 61.112 49.407 60.9343 49.6621 60.7683C52.5821 58.8634 56.359 58.517 59.4815 60.1494C60.789 60.8332 61.8909 61.8268 62.6981 63.0638C65.5637 67.4565 63.7891 73.1516 59.546 75.9189C58.9081 76.335 58.2289 76.6763 57.5256 76.9397L58.2702 78.1356L58.2703 78.1357Z" fill="#1272D4"/>
<path fill-rule="evenodd" clip-rule="evenodd" d="M27.1254 53.6032C29.9838 53.8052 32.3876 55.3403 33.594 57.9408C33.8639 58.5219 34.0435 59.1213 34.1374 59.7238L32.1788 60.944C32.1954 59.7996 31.9551 58.6557 31.4637 57.5947C30.5692 55.6662 28.977 54.2813 27.1254 53.6033V53.6032Z" fill="#39D5FE"/>
<path fill-rule="evenodd" clip-rule="evenodd" d="M27.1254 53.6032C29.9838 53.8052 32.3876 55.3403 33.594 57.9408C33.8639 58.5219 34.0435 59.1213 34.1374 59.7238L33.4264 60.1674C33.4264 60.1674 32.6394 54.8894 27.1254 53.6033V53.6032Z" fill="#3BB5FE"/>
<path fill-rule="evenodd" clip-rule="evenodd" d="M46.5816 64.1663L42.7943 58.0849C42.5463 57.6866 42.2235 57.3626 41.855 57.1192C43.0449 57.18 44.3974 57.7542 45.5343 59.5492C45.5451 59.5655 45.5557 59.5821 45.566 59.5989L47.495 62.696C47.1378 63.15 46.8304 63.6429 46.5814 64.1663H46.5816Z" fill="#39D5FE"/>
<path fill-rule="evenodd" clip-rule="evenodd" d="M42.8124 57.2837C43.736 57.5627 44.6945 58.2229 45.5344 59.5492C45.5452 59.5655 45.5558 59.5821 45.5661 59.5989L47.4951 62.696C47.3611 62.8656 47.2351 63.0413 47.1155 63.221C47.1155 63.221 44.2405 57.8376 42.8123 57.2837H42.8124ZM42.5723 57.2197C42.605 57.2271 42.6375 57.2351 42.6707 57.244C42.6341 57.2377 42.6021 57.2295 42.5723 57.2197Z" fill="#3BB5FE"/>
<path fill-rule="evenodd" clip-rule="evenodd" d="M56.3818 76.9663L56.8443 77.7085L60.1368 82.996C60.7764 84.0228 60.4593 85.3861 59.432 86.0257L36.3908 100.374C36.3908 100.374 36.2662 100.466 36.0438 100.592L36.0363 100.596C35.9523 100.649 35.8663 100.694 35.779 100.733C34.8837 101.186 33.1423 101.802 31.4382 100.911C31.9577 100.884 32.4787 100.73 32.9487 100.437L56.344 85.867C57.8304 84.9417 58.2896 82.967 57.3641 81.4808L53.8779 75.8828L56.3818 76.9664L56.3818 76.9663Z" fill="#39D5FE"/>
<path fill-rule="evenodd" clip-rule="evenodd" d="M56.3818 76.9663L56.8443 77.7085L59.2711 81.6057L58.043 81.1939L55.3013 76.4987L56.3818 76.9663Z" fill="#3BB5FE"/>
<path fill-rule="evenodd" clip-rule="evenodd" d="M40.3725 97.8959L36.3909 100.374C36.3909 100.374 36.2663 100.466 36.0438 100.592L36.0364 100.596C35.9524 100.649 35.8663 100.694 35.779 100.733C35.0243 101.114 33.6699 101.612 32.2416 101.226C32.2474 101.226 34.9324 101.077 38.377 98.0917C39.3679 97.2321 39.9889 97.3264 40.3726 97.8959H40.3725Z" fill="#3BB5FE"/>
<path fill-rule="evenodd" clip-rule="evenodd" d="M55.8129 60.1173C58.2426 60.2977 60.5019 61.5001 61.8736 63.6023C64.3048 67.3295 63.0218 72.4748 59.0075 75.094C58.3946 75.4952 57.629 75.8837 56.8685 76.1341L54.4979 75.108C55.2873 75.0062 56.0695 74.7833 56.7817 74.453C58.7051 73.5607 60.1705 71.928 60.8497 69.9196C61.4844 68.0418 61.3723 66.0102 60.5257 64.2166C59.5693 62.1904 57.8229 60.7467 55.8129 60.1173Z" fill="#39D5FE"/>
<path fill-rule="evenodd" clip-rule="evenodd" d="M55.8128 60.1173C58.2426 60.2977 60.5019 61.5001 61.8736 63.6023C64.3048 67.3295 63.0218 72.4748 59.0075 75.094C58.3946 75.4952 57.629 75.8837 56.8685 76.1341L55.9908 75.7538C55.9908 75.7538 60.3722 74.6003 61.8687 70.3579C63.3674 66.1174 60.7551 60.9628 55.8128 60.1173H55.8128Z" fill="#3BB5FE"/>
<path fill-rule="evenodd" clip-rule="evenodd" d="M20.152 84.0511L14.8281 75.5007C14.1878 74.4746 14.5041 73.1101 15.5321 72.4701L23.5317 67.4888C21.3542 67.1779 19.3742 65.8061 18.3803 63.664C18.3549 63.6106 18.3313 63.5575 18.3084 63.5055C18.2868 63.4526 18.2632 63.3994 18.2416 63.3465C18.2209 63.2927 18.1993 63.2397 18.1807 63.186C16.9615 59.9313 18.4592 56.2734 21.6483 54.742C25.0137 53.1802 29.0088 54.6426 30.5704 58.01C31.3145 59.6157 31.3716 61.3648 30.8607 62.9251L34.2189 60.833L36.3778 59.4884L38.9281 57.901C39.9546 57.2605 41.3189 57.5785 41.9585 58.6052L46.8875 66.5206C47.1982 64.3434 48.5699 62.3634 50.7131 61.3691C50.7652 61.3443 50.8191 61.3219 50.8715 61.2986C50.9242 61.2755 50.9776 61.2536 51.0306 61.232V61.2318C51.0835 61.2103 51.1371 61.1897 51.1903 61.1699L51.1905 61.1697C54.4455 59.9519 58.1034 61.4499 59.6351 64.6368C61.1973 68.0037 59.7337 71.998 56.3678 73.56C54.7613 74.3047 53.0118 74.3605 51.4527 73.8506L56.5283 82.001C57.1675 83.028 56.8506 84.3913 55.8235 85.0306L32.4282 99.6009C31.418 100.23 30.0833 99.9345 29.4311 98.949L29.4301 98.9481L29.4294 98.9468L29.4277 98.9428L29.4268 98.9416L29.426 98.9406L29.4251 98.9394L29.4242 98.9384C29.4155 98.9257 29.4068 98.9127 29.3994 98.899L29.3985 98.898L29.3975 98.8968L24.285 90.6862L20.1523 84.0509L20.152 84.0511Z" fill="#39D5FE"/>
<path fill-rule="evenodd" clip-rule="evenodd" d="M30.8607 62.9251L34.2189 60.833L36.3778 59.4885L38.9281 57.9011C39.7843 57.3674 40.8746 57.4991 41.5839 58.1531L40.7421 59.1368C40.7421 59.1368 40.4181 58.4421 38.0225 59.9337L31.822 63.7948C30.4273 64.0868 30.8607 62.9251 30.8607 62.9251V62.9251ZM20.1521 84.0511L14.8281 75.5007C14.2008 74.4949 14.4916 73.1657 15.4703 72.5118L20.2129 69.556L23.5317 67.4889C21.3542 67.1779 19.3742 65.8062 18.3803 63.6641C18.3549 63.6107 18.3313 63.5575 18.3084 63.5056C18.2868 63.4527 18.2632 63.3995 18.2416 63.3466C18.2209 63.2927 18.1993 63.2397 18.1807 63.1861C17.2102 60.5971 17.9616 57.7524 19.9125 55.9264C19.7987 56.0394 17.3769 58.48 19.2162 62.6127C21.0995 66.843 24.912 66.6287 24.912 66.6287C26.4138 66.8361 25.3788 67.808 25.3767 67.8097L16.5684 73.2965C15.0786 74.2242 15.6362 74.5373 16.5408 75.9899C17.4456 77.4422 28.6942 95.5072 29.8687 97.3924C31.0432 99.2779 31.5587 98.8589 31.5587 98.8589L31.2592 99.9324C30.5468 99.9278 29.8486 99.5798 29.431 98.9491L29.43 98.9482L29.4293 98.9469L29.4276 98.9429L29.4267 98.9416L29.426 98.9407L29.425 98.9394L29.4241 98.9385C29.4155 98.9257 29.4067 98.9127 29.3993 98.899L29.3984 98.8981L29.3975 98.8968L24.2849 90.6863L20.1522 84.051L20.1521 84.0511Z" fill="#8FE9FF"/>
<path fill-rule="evenodd" clip-rule="evenodd" d="M40.2707 94.7179L32.4282 99.601C31.418 100.23 30.0833 99.9346 29.4311 98.9492L29.4301 98.9482L29.4294 98.947L29.4277 98.9429L29.4268 98.9417L29.426 98.9408L29.4251 98.9395L29.4242 98.9386C29.4155 98.9258 29.4068 98.9128 29.3994 98.8991L29.3985 98.8982L29.3975 98.8969L29.0255 98.2997C29.0255 98.2997 30.2291 99.701 31.7843 98.7339C33.3378 97.7645 39.6345 93.8445 39.6345 93.8445L40.2709 94.7178L40.2707 94.7179Z" fill="#3BB5FE"/>
<path fill-rule="evenodd" clip-rule="evenodd" d="M45.7085 66.7575L42.1699 61.0756C40.1112 57.7698 38.9533 57.9384 38.6096 58.0989L38.9281 57.9012C39.9535 57.2616 41.3146 57.5769 41.9553 58.6009L46.8875 66.5208C46.8863 66.5254 46.6229 67.1998 45.7084 66.7575H45.7085ZM57.2772 61.9028C58.2598 62.5649 59.0848 63.4922 59.6351 64.6371C61.1973 68.0039 59.7337 71.9983 56.3678 73.5602C54.7614 74.3049 53.0118 74.3607 51.4527 73.8508L52.6864 75.8325L56.5336 82.0096C56.9617 82.704 56.954 83.5511 56.5863 84.2241L50.0075 73.6605C50.0075 73.6605 49.3496 72.5765 50.8012 72.8048C50.8012 72.8048 54.9625 74.0439 57.7312 70.9566C60.5008 67.8701 60.019 64.2299 57.2773 61.9028H57.2772Z" fill="#3BB5FE"/>
<path fill-rule="evenodd" clip-rule="evenodd" d="M21.6483 54.7421C25.0137 53.1803 29.0088 54.6427 30.5704 58.0101C31.3145 59.6158 31.3716 61.3648 30.8607 62.9252C30.8607 62.9252 30.6538 53.544 21.6483 54.7421Z" fill="#3BB5FE"/>
<path fill-rule="evenodd" clip-rule="evenodd" d="M64.0306 101.271C65.4639 101.351 66.8636 100.895 67.9783 99.9803C69.1311 99.0351 69.8612 97.6956 70.0375 96.2164C70.1563 95.2218 70.4979 94.7225 71.5365 94.5554C72.3637 94.4221 73.2423 94.385 74.0711 94.5226C75.1046 94.6956 75.578 95.0826 76.3162 95.7861L81.8345 101.045C83.102 102.253 83.1514 104.28 81.9432 105.548L63.2417 125.172C63.1438 125.289 63.0283 125.405 62.9196 125.51C62.8301 125.602 62.7354 125.69 62.6356 125.772C60.1454 127.948 57.1923 127.895 54.7423 125.601C54.7221 125.583 54.7035 125.565 54.6836 125.547L51.3372 122.359C50.9254 123.892 50.0451 125.276 48.7802 126.301C46.6576 128.022 44.1184 128.648 41.4589 127.982C39.2684 127.432 37.229 126.045 35.8034 124.306C33.1062 121.017 33.5863 116.162 36.8757 113.465C37.8832 112.638 39.0659 112.092 40.3144 111.853L34.7311 106.534C33.4636 105.326 33.4143 103.299 34.6229 102.031L39.6311 96.7753C37.8891 96.4407 36.2896 95.5089 35.1312 94.0961C32.4294 90.8011 32.9501 85.9892 36.1948 83.2617C39.0291 80.8776 42.8944 79.5964 46.4854 80.9772C47.8532 81.5028 49.0294 82.3737 49.9569 83.5049C50.3239 83.9523 50.6393 84.4386 50.8959 84.9547L53.5674 82.1514C54.1822 81.4625 55.1635 80.8355 56.0162 80.524C58.1795 79.7342 60.1932 80.4495 61.8249 81.9782C61.8446 81.9963 61.8624 82.0126 61.8816 82.0311L68.3536 88.1984L68.3633 88.2083C68.8184 88.666 69.3458 89.2113 68.9954 89.9261C68.7038 90.5207 68.0958 90.5784 67.5284 90.4902C66.7797 90.373 66.0121 90.3963 65.2744 90.5727L65.2602 90.5765C64.4206 90.7788 63.6441 91.1684 62.9764 91.7161C60.5274 93.7243 60.17 97.3367 62.1782 99.7857C62.6871 100.406 63.3151 100.912 64.0307 101.272L64.0306 101.271Z" fill="#C77802"/>
<path fill-rule="evenodd" clip-rule="evenodd" d="M72.6652 95.4275C73.1917 95.4121 73.5597 95.4359 73.909 95.4941C74.6808 95.6233 74.9817 95.8748 75.6371 96.4995L81.1552 101.758C82.0309 102.593 82.0651 103.992 81.2302 104.868L62.5044 124.518C62.5044 124.518 62.406 124.637 62.2213 124.816L62.2163 124.821C62.1482 124.892 62.0755 124.959 62.0012 125.018C61.2484 125.68 59.7155 126.712 57.8435 126.274C58.3395 126.119 58.8044 125.84 59.1864 125.439L78.2008 105.486C79.4082 104.218 79.3594 102.191 78.0919 100.983L72.6789 95.8251C72.4032 95.5624 72.3642 95.4362 72.6651 95.4275L72.6652 95.4275Z" fill="#FEDC34"/>
<path fill-rule="evenodd" clip-rule="evenodd" d="M73.0323 95.4231C73.3745 95.4262 73.647 95.4507 73.909 95.4941C74.6809 95.6233 74.9818 95.8748 75.6372 96.4995L81.1553 101.758C82.031 102.593 82.0652 103.992 81.2303 104.868L62.5045 124.518C62.5045 124.518 62.4061 124.637 62.2214 124.816L62.2163 124.821C62.1483 124.892 62.0756 124.959 62.0013 125.018C61.3978 125.549 60.2926 126.318 58.9142 126.375C58.9885 126.369 59.723 126.248 61.6527 124.224C63.6931 122.083 76.5169 108.625 78.8988 106.127C81.2802 103.627 81.0835 102.616 78.8825 100.519C76.6809 98.4211 75.5007 97.2965 74.6731 96.5077C73.8454 95.719 73.0322 95.4232 73.0322 95.4232L73.0323 95.4231Z" fill="#FAA933"/>
<path fill-rule="evenodd" clip-rule="evenodd" d="M64.4229 89.7963C63.6888 90.0483 62.987 90.4335 62.3517 90.9544C59.4823 93.3072 59.0638 97.5411 61.4164 100.41C61.4534 100.455 61.4914 100.499 61.5294 100.543C60.9266 100.204 60.3744 99.7494 59.909 99.1818C57.9009 96.7327 58.2583 93.1203 60.7071 91.1124C61.641 90.3465 62.778 89.898 63.9826 89.8231L64.4229 89.7962L64.4229 89.7963Z" fill="#FEDC34"/>
<path fill-rule="evenodd" clip-rule="evenodd" d="M64.4229 89.7963C63.6888 90.0483 62.987 90.4335 62.3518 90.9544C59.4823 93.3072 59.0638 97.5411 61.4164 100.41C61.4534 100.455 61.4914 100.499 61.5294 100.543C61.5294 100.543 58.7673 97.9219 59.5156 94.6091C60.2646 91.2952 62.8877 90.1459 64.423 89.7962L64.4229 89.7963Z" fill="#FAA933"/>
<path fill-rule="evenodd" clip-rule="evenodd" d="M56.9883 81.2688C58.1558 81.0309 59.609 81.2488 61.1578 82.7025C61.1725 82.7157 61.1871 82.7292 61.2023 82.7439L63.8524 85.2694L67.6645 88.9018C68.8351 90.0794 67.0389 89.3816 65.9264 89.0641C65.5758 88.964 65.329 88.8209 64.8725 88.3859L58.1388 81.9689C57.7995 81.6456 57.4066 81.4133 56.9884 81.2687L56.9883 81.2688Z" fill="#FEDC34"/>
<path fill-rule="evenodd" clip-rule="evenodd" d="M56.9883 81.2688C58.1558 81.0309 59.609 81.2488 61.1578 82.7025C61.1725 82.7157 61.1871 82.7292 61.2023 82.7439L63.8524 85.2694L67.6645 88.9018C68.6381 89.8812 67.5606 89.5639 66.5297 89.2462C66.5297 89.2462 66.9294 89.2053 65.8035 88.1015C64.6781 86.9985 60.7391 83.2504 59.6497 82.214C58.5615 81.1783 57.4951 81.1794 56.9883 81.2687V81.2688Z" fill="#FAA933"/>
<path fill-rule="evenodd" clip-rule="evenodd" d="M41.8485 81.5446C44.6655 81.0249 47.3765 81.9112 49.1954 84.1293C49.6004 84.6234 49.9237 85.1589 50.1671 85.7187L48.5751 87.3901C48.305 86.2763 47.7861 85.2304 47.0451 84.3268C45.6965 82.6821 43.8096 81.7397 41.8486 81.5446H41.8485Z" fill="#FEDC34"/>
<path fill-rule="evenodd" clip-rule="evenodd" d="M41.8485 81.5446C44.6655 81.0249 47.3765 81.9112 49.1954 84.1293C49.6004 84.6234 49.9237 85.1589 50.1671 85.7187L49.5615 86.3549C46.9499 81.002 41.8486 81.5446 41.8486 81.5446H41.8485Z" fill="#FAA933"/>
<path fill-rule="evenodd" clip-rule="evenodd" d="M36.5652 123.682C34.2121 120.812 34.6312 116.579 37.5004 114.226C39.014 112.985 40.9064 112.515 42.7022 112.769L35.41 105.821C34.535 104.986 34.501 103.586 35.3364 102.71L41.8366 95.8873C39.6518 96.1312 37.3907 95.298 35.8928 93.4712C35.8555 93.4258 35.8201 93.3806 35.7848 93.3351C35.7494 93.2898 35.7143 93.2446 35.6799 93.1984C35.6457 93.1522 35.6133 93.106 35.5801 93.0589C33.5879 90.2116 34.1245 86.2964 36.8282 84.0159C39.6984 81.6624 43.9302 82.0809 46.2834 84.9511C47.4057 86.3197 47.8976 88 47.7932 89.6384L50.5229 86.7733L52.278 84.9319L54.3489 82.7573C55.1848 81.8816 56.5834 81.8472 57.4603 82.683L63.922 88.8404C62.563 88.9248 61.2159 89.4207 60.0823 90.3504C57.2131 92.703 56.7951 96.9374 59.1473 99.8063C60.3757 101.304 62.1159 102.134 63.9076 102.251L63.9092 102.25C65.5499 102.357 67.2323 101.866 68.6031 100.742C70.0029 99.594 70.8127 97.9986 71.0153 96.3329C71.0944 95.6831 71.1913 95.7677 71.5603 96.1194L77.4127 101.696C78.2888 102.531 78.3221 103.93 77.4873 104.806L58.4736 124.76C57.6537 125.62 56.2877 125.667 55.4095 124.877L55.4088 124.876L55.4078 124.875L55.4073 124.874L55.4057 124.874L55.404 124.872L55.4035 124.871L55.403 124.871L55.4017 124.87L55.4012 124.869L55.4005 124.868L55.3991 124.868C55.388 124.857 55.3762 124.847 55.3654 124.836L55.3647 124.835L55.3642 124.835L55.3636 124.834L48.361 118.161C48.805 120.5 47.9904 123.002 46.0207 124.617C43.1515 126.969 38.9176 126.55 36.565 123.682L36.5652 123.682Z" fill="#FEDC34"/>
<path fill-rule="evenodd" clip-rule="evenodd" d="M49.9686 118.266L55.4459 123.485C56.9224 124.892 57.8347 123.857 57.8347 123.857L58.4259 124.808C57.6021 125.622 56.2703 125.653 55.4095 124.877L55.4088 124.876L55.4078 124.875L55.4073 124.874L55.4057 124.874L55.404 124.872L55.4035 124.872L55.403 124.871L55.4017 124.87L55.4012 124.869L55.4005 124.868L55.3991 124.868L55.3904 124.86L55.3897 124.859L55.3892 124.859L55.3887 124.858L55.388 124.857L49.2306 118.99L48.3611 118.161C48.3611 118.161 48.8669 117.216 49.9678 118.265L49.9685 118.265L49.9686 118.266ZM47.7931 89.6385L48.3785 89.0245L50.5228 86.7734L52.2779 84.932L54.3488 82.7574C54.9953 82.0803 55.9783 81.9067 56.7954 82.248C56.7755 82.8204 56.7389 83.269 56.6713 83.2647C56.4878 83.2557 55.8767 82.6571 54.3676 84.2696C53.8377 84.8343 51.6389 87.1448 48.9549 89.9615C47.7582 90.8667 47.7931 89.6385 47.7931 89.6385H47.7931ZM42.7016 112.769L42.7021 112.77L35.4099 105.821C34.5349 104.986 34.5007 103.588 35.3351 102.711L40.4255 97.3685L41.8365 95.8874C39.6518 96.1313 37.3906 95.2981 35.8927 93.4714C35.8554 93.4259 35.82 93.3807 35.7847 93.3352C35.7493 93.29 35.7142 93.2448 35.6798 93.1986C35.6456 93.1524 35.6132 93.1062 35.58 93.0591C34.1617 91.0331 34.0255 88.465 35.0379 86.3321C34.9978 86.4574 33.7006 90.5922 37.0424 93.1629C39.0566 94.7134 41.6477 94.5851 43.4207 94.226C44.8472 94.0257 44.1276 95.0217 44.1249 95.0274C40.4593 98.8703 37.0994 102.39 36.5463 102.97C35.3165 104.261 35.7229 104.691 36.9657 105.875L44.5935 113.145C44.5952 113.147 45.4678 114.478 44.2544 114.249C44.251 114.247 39.9466 112.951 37.1613 115.821C34.3936 118.671 36.1504 123.094 36.1764 123.159C34.2707 120.318 34.8016 116.439 37.5004 114.226C39.0141 112.985 40.9065 112.515 42.7018 112.769L42.7016 112.769Z" fill="#FFF0A8"/>
<path fill-rule="evenodd" clip-rule="evenodd" d="M48.3612 118.162C48.8052 120.5 47.9906 123.002 46.0209 124.617C43.57 126.627 40.122 126.614 37.7036 124.778C46.9503 127.83 48.3611 118.162 48.3611 118.162H48.3612Z" fill="#FAA933"/>
<path fill-rule="evenodd" clip-rule="evenodd" d="M35.6599 85.2783C35.9877 84.8211 36.3773 84.3946 36.828 84.0161C39.6982 81.6626 43.93 82.0811 46.2833 84.9512C47.4055 86.3198 47.8974 88.0001 47.793 89.6386C47.793 89.6386 47.4784 87.222 44.3964 84.7338C41.3131 82.2465 37.2733 83.5206 35.6599 85.2784V85.2783Z" fill="#FAA933"/>
<path fill-rule="evenodd" clip-rule="evenodd" d="M61.4921 86.5252L63.9219 88.8404C62.5629 88.9248 61.2158 89.4208 60.0822 90.3505C57.213 92.703 56.795 96.9375 59.1473 99.8064C59.3142 100.01 59.49 100.2 59.674 100.378C59.674 100.378 56.2444 97.2826 57.0054 93.6759C57.4338 91.6486 58.6467 90.2571 59.6442 89.2815C60.6243 88.324 61.6165 88.1119 61.0132 87.4016C60.3227 86.5889 61.0409 86.8859 61.4921 86.5252Z" fill="#FAA933"/>
<path fill-rule="evenodd" clip-rule="evenodd" d="M70.8741 97.1143C70.9366 96.8569 70.9835 96.5959 71.0152 96.333C71.0943 95.6831 71.1913 95.7678 71.5602 96.1194L77.4127 101.696C78.2887 102.531 78.3221 103.93 77.4872 104.806L58.4735 124.76C57.7928 125.474 56.7355 125.628 55.8941 125.207C55.8978 125.207 56.6032 125.19 58.638 123.055C60.6784 120.914 72.3984 108.612 74.7808 106.113C77.1623 103.613 76.9662 102.603 74.7647 100.505C72.5632 98.4074 73.0173 98.8402 72.1901 98.052C71.6858 97.5715 71.1871 97.2739 70.874 97.1143H70.8741ZM54.9398 82.318C55.7492 81.9062 56.7673 82.0226 57.4603 82.6831L63.9219 88.8405C63.38 88.8746 62.8396 88.9737 62.3142 89.1399C62.377 89.0338 62.4145 88.737 61.7059 88.0621C60.7607 87.1611 57.7241 84.2678 56.6713 83.2646C55.8679 82.499 55.2078 82.3465 54.9398 82.3179V82.318Z" fill="#FAA933"/>
<path fill-rule="evenodd" clip-rule="evenodd" d="M50.5067 121.567C50.2308 123.073 49.4423 124.496 48.1601 125.536C46.1811 127.14 44.0596 127.498 42.109 127.117C43.7125 127.046 45.3077 126.475 46.6448 125.378C48.1649 124.132 49.1227 122.383 49.3883 120.501L50.5067 121.567V121.567Z" fill="#FEDC34"/>
<path fill-rule="evenodd" clip-rule="evenodd" d="M50.5067 121.567C50.2308 123.073 49.4423 124.496 48.1601 125.536C46.1811 127.14 44.0596 127.498 42.109 127.117C42.109 127.117 48.4951 127.843 49.9479 121.034L50.5067 121.567V121.567Z" fill="#FAA933"/>
<path d="M26.5909 74.2709C26.9536 74.251 27.3163 74.2411 27.6781 74.2411C27.8626 74.2411 28.0463 74.2435 28.2298 74.249C28.245 74.2492 28.2604 74.2497 28.2758 74.2497C28.2753 74.2497 28.2748 74.2497 28.2746 74.2497C28.2599 74.2497 28.2449 74.2497 28.2305 74.2492C28.0465 74.2439 27.8621 74.2415 27.6769 74.2415C27.3158 74.2415 26.9531 74.2514 26.5909 74.2709V74.2709ZM29.493 73.6251C29.7028 73.3369 29.8058 72.9824 29.7833 72.6265C29.8079 72.9851 29.7061 73.3348 29.493 73.6251ZM29.5967 71.6316L29.5883 71.5905C29.5854 71.5773 29.583 71.5645 29.5796 71.5515C29.583 71.5647 29.5859 71.5782 29.5883 71.5914L29.5967 71.6316V71.6316Z" fill="#250C60"/>
<path d="M28.7816 74.3792V74.3785C28.9474 74.3267 29.1049 74.2502 29.2485 74.1507C29.1049 74.2505 28.9478 74.3275 28.7816 74.3792Z" fill="#000072"/>
<path d="M29.7935 71.5578L29.7918 71.5492C29.7885 71.5338 29.7851 71.5184 29.7817 71.503C29.7856 71.5184 29.7889 71.5343 29.7921 71.5499V71.5504L29.7936 71.5579L29.7935 71.5578Z" fill="#0D50B6"/>
<path fill-rule="evenodd" clip-rule="evenodd" d="M23.2185 45.6226C31.9608 38.6368 43.0461 34.4604 55.1069 34.4604C83.3411 34.4604 106.229 57.3484 106.229 85.5823C106.229 100.059 100.211 113.131 90.5414 122.432C102.265 113.064 109.775 98.6452 109.775 82.4721C109.775 54.2382 86.8866 31.3502 58.6527 31.3502C44.8957 31.3502 32.4077 36.7841 23.2185 45.6226Z" fill="#EC239B" fill-opacity="0.2"/>
<path fill-rule="evenodd" clip-rule="evenodd" d="M64.2105 127.55C37.8653 127.55 16.5079 106.193 16.5079 79.847C16.5079 60.5033 28.0213 43.849 44.5691 36.3626C24.8199 42.3873 10.4532 60.7518 10.4532 82.4721C10.4532 109.092 32.0327 130.672 58.6528 130.672C68.4938 130.672 77.6458 127.722 85.2735 122.66C78.9212 125.791 71.7714 127.55 64.2105 127.55V127.55Z" fill="#EC239B" fill-opacity="0.2"/>
<path fill-rule="evenodd" clip-rule="evenodd" d="M46.393 39.6006C44.9575 40.2587 42.377 43.2785 42.2074 44.8484C41.8074 48.5505 42.5555 53.6345 45.5665 56.1698C52.4402 61.9573 63.0209 62.3391 69.7645 68.051C79.5322 76.3245 74.1351 93.8934 76.4205 105.872C77.5632 111.862 82.8368 120.562 89.6702 115.701C102.293 106.721 106.139 82.5284 99.3741 67.3047C88.6218 43.1077 58.6537 33.9803 46.393 39.6006Z" fill="url(#paint2_radial_71_12188)" fill-opacity="0.34902"/>
<path fill-rule="evenodd" clip-rule="evenodd" d="M75.2133 46.0272C79.921 46.2034 86.0571 50.4364 88.9183 55.4814C91.7798 60.5264 90.2833 64.4732 85.5758 64.2968C80.868 64.1203 74.732 59.8876 71.8707 54.8426C69.0092 49.7974 70.5057 45.8506 75.2133 46.0272Z" fill="url(#paint3_radial_71_12188)" fill-opacity="0.2"/>
<path d="M79.8834 16.0356C80.8708 16.0356 81.6713 15.2351 81.6713 14.2477C81.6713 13.2603 80.8708 12.4598 79.8834 12.4598C78.8959 12.4598 78.0955 13.2603 78.0955 14.2477C78.0955 15.2351 78.8959 16.0356 79.8834 16.0356Z" fill="#232851"/>
<path d="M92.2381 32.9776C92.7521 32.9776 93.1688 32.5609 93.1688 32.0469C93.1688 31.5329 92.7521 31.1163 92.2381 31.1163C91.7241 31.1163 91.3074 31.5329 91.3074 32.0469C91.3074 32.5609 91.7241 32.9776 92.2381 32.9776Z" fill="#232851"/>
<path d="M107.12 40.3515C108.107 40.3515 108.908 39.551 108.908 38.5636C108.908 37.5762 108.107 36.7757 107.12 36.7757C106.132 36.7757 105.332 37.5762 105.332 38.5636C105.332 39.551 106.132 40.3515 107.12 40.3515Z" fill="#232851"/>
<path d="M32.4366 29.3491C33.066 29.3491 33.5762 28.8389 33.5762 28.2096C33.5762 27.5803 33.066 27.0701 32.4366 27.0701C31.8073 27.0701 31.2971 27.5803 31.2971 28.2096C31.2971 28.8389 31.8073 29.3491 32.4366 29.3491Z" fill="#2C1538"/>
<path d="M20.5833 35.2747C20.9102 35.2747 21.1752 35.0097 21.1752 34.6827C21.1752 34.3558 20.9102 34.0908 20.5833 34.0908C20.2563 34.0908 19.9913 34.3558 19.9913 34.6827C19.9913 35.0097 20.2563 35.2747 20.5833 35.2747Z" fill="#2C1538"/>
<path d="M10.4994 35.3108C11.0736 35.3108 11.5391 34.8453 11.5391 34.271C11.5391 33.6968 11.0736 33.2313 10.4994 33.2313C9.92513 33.2313 9.45963 33.6968 9.45963 34.271C9.45963 34.8453 9.92513 35.3108 10.4994 35.3108Z" fill="#2C1538"/>
<path fill-rule="evenodd" clip-rule="evenodd" d="M21.3032 41.0019C22.6114 41.0019 23.6719 42.0624 23.6719 43.3706C23.6719 44.6785 22.6114 45.7393 21.3032 45.7393C19.9952 45.7393 18.9345 44.6785 18.9345 43.3706C18.9345 42.0624 19.9952 41.0019 21.3032 41.0019Z" fill="#431D53" fill-opacity="0.501961"/>
<path fill-rule="evenodd" clip-rule="evenodd" d="M28.1762 43.2542C29.3762 43.2542 30.3489 42.2817 30.3489 41.0817C30.3489 40.8725 30.5196 40.7017 30.7289 40.7017C30.9382 40.7017 31.1087 40.8724 31.1087 41.0817C31.1087 42.2815 32.0816 43.2542 33.2814 43.2542C33.4906 43.2542 33.6614 43.4249 33.6614 43.6342C33.6614 43.8432 33.4907 44.014 33.2814 44.014C32.0814 44.014 31.1087 44.9869 31.1087 46.1869C31.1087 46.3959 30.9382 46.5667 30.7289 46.5667C30.5197 46.5667 30.3489 46.3959 30.3489 46.1869C30.3489 44.9869 29.3762 44.014 28.1762 44.014C27.967 44.014 27.7961 43.8432 27.7961 43.6342C27.7961 43.425 27.9669 43.2542 28.1762 43.2542ZM94.1981 112.935C95.6035 112.935 96.7427 111.796 96.7427 110.391C96.7427 110.146 96.9427 109.946 97.1876 109.946C97.4327 109.946 97.6325 110.146 97.6325 110.391C97.6325 111.796 98.7716 112.935 100.177 112.935C100.422 112.935 100.622 113.135 100.622 113.38C100.622 113.625 100.422 113.825 100.177 113.825C98.7714 113.825 97.6325 114.964 97.6325 116.37C97.6325 116.615 97.4327 116.815 97.1876 116.815C96.9427 116.815 96.7427 116.615 96.7427 116.37C96.7427 114.964 95.6036 113.825 94.1981 113.825C93.9531 113.825 93.7529 113.625 93.7529 113.38C93.7529 113.135 93.953 112.935 94.1981 112.935ZM30.5557 111.142C31.6674 111.142 32.5684 110.241 32.5684 109.13C32.5684 108.936 32.7267 108.778 32.9205 108.778C33.1144 108.778 33.2724 108.936 33.2724 109.13C33.2724 110.241 34.1734 111.142 35.2849 111.142C35.4788 111.142 35.6371 111.3 35.6371 111.494C35.6371 111.688 35.4788 111.846 35.2849 111.846C34.1735 111.846 33.2724 112.747 33.2724 113.859C33.2724 114.053 33.1145 114.211 32.9205 114.211C32.7267 114.211 32.5684 114.053 32.5684 113.859C32.5684 112.747 31.6674 111.846 30.5557 111.846C30.3621 111.846 30.2038 111.688 30.2038 111.494C30.2038 111.3 30.3621 111.142 30.5557 111.142ZM65.5416 51.6545C66.0231 51.6545 66.4135 52.0448 66.4135 52.5264C66.4135 53.0079 66.0231 53.3982 65.5416 53.3982C65.0601 53.3982 64.6697 53.0079 64.6697 52.5264C64.6697 52.0448 65.0601 51.6545 65.5416 51.6545ZM30.2406 86.4617C31.5488 86.4617 32.6093 87.5224 32.6093 88.8304C32.6093 90.1383 31.5488 91.199 30.2406 91.199C28.9326 91.199 27.8721 90.1383 27.8721 88.8304C27.8721 87.5224 28.9326 86.4617 30.2406 86.4617ZM31.5091 74.7616C32.0127 74.7616 32.4214 74.3534 32.4214 73.8495C32.4214 73.7617 32.4931 73.6898 32.5808 73.6898C32.6686 73.6898 32.7403 73.7617 32.7403 73.8495C32.7403 74.3534 33.1487 74.7616 33.6524 74.7616C33.7404 74.7616 33.8121 74.8333 33.8121 74.921C33.8121 75.0091 33.7404 75.0808 33.6524 75.0808C33.1487 75.0808 32.7403 75.4892 32.7403 75.9931C32.7403 76.0809 32.6686 76.1525 32.5808 76.1525C32.493 76.1525 32.4214 76.0808 32.4214 75.9931C32.4214 75.4892 32.0127 75.0808 31.5091 75.0808C31.4211 75.0808 31.3494 75.0091 31.3494 74.921C31.3494 74.8332 31.4211 74.7616 31.5091 74.7616ZM32.1169 58.6434C32.7292 58.6434 33.2257 58.1469 33.2257 57.5346C33.2257 57.4277 33.3128 57.3407 33.4195 57.3407C33.5264 57.3407 33.6134 57.4278 33.6134 57.5346C33.6134 58.1469 34.1098 58.6434 34.7219 58.6434C34.829 58.6434 34.9161 58.7305 34.9161 58.8372C34.9161 58.9441 34.829 59.0311 34.7219 59.0311C34.1098 59.0311 33.6134 59.5275 33.6134 60.1399C33.6134 60.2467 33.5263 60.3337 33.4195 60.3337C33.3127 60.3337 33.2257 60.2467 33.2257 60.1399C33.2257 59.5275 32.7292 59.0311 32.1169 59.0311C32.01 59.0311 31.923 58.944 31.923 58.8372C31.923 58.7304 32.0101 58.6434 32.1169 58.6434Z" fill="white" fill-opacity="0.25098"/>
<path fill-rule="evenodd" clip-rule="evenodd" d="M93.705 40.3458C94.6089 40.3458 95.3418 39.6132 95.3418 38.709C95.3418 38.5514 95.4705 38.4228 95.6283 38.4228C95.7858 38.4228 95.9145 38.5514 95.9145 38.709C95.9145 39.6129 96.6474 40.3458 97.5513 40.3458C97.7089 40.3458 97.8375 40.4744 97.8375 40.632C97.8375 40.7898 97.7089 40.9182 97.5513 40.9182C96.6472 40.9182 95.9145 41.6514 95.9145 42.5552C95.9145 42.713 95.7858 42.8415 95.6283 42.8415C95.4705 42.8415 95.3418 42.713 95.3418 42.5552C95.3418 41.6511 94.6092 40.9182 93.705 40.9182C93.5473 40.9182 93.4188 40.7898 93.4188 40.632C93.4188 40.4744 93.5473 40.3458 93.705 40.3458Z" fill="#292E6B"/>
<path fill-rule="evenodd" clip-rule="evenodd" d="M88.5881 19.1065C90.1792 19.1065 91.4689 17.817 91.4689 16.226C91.4689 15.9487 91.6952 15.7221 91.9727 15.7221C92.25 15.7221 92.4764 15.9487 92.4764 16.226C92.4764 17.8168 93.7661 19.1065 95.3569 19.1065C95.6345 19.1065 95.8608 19.3329 95.8608 19.6104C95.8608 19.8877 95.6344 20.114 95.3569 20.114C93.7659 20.114 92.4764 21.4039 92.4764 22.9948C92.4764 23.2724 92.25 23.4987 91.9727 23.4987C91.6952 23.4987 91.4689 23.2723 91.4689 22.9948C91.4689 21.4037 90.1792 20.114 88.5881 20.114C88.3108 20.114 88.0845 19.8877 88.0845 19.6104C88.0845 19.3328 88.3108 19.1065 88.5881 19.1065Z" fill="#3A3E61"/>
<path fill-rule="evenodd" clip-rule="evenodd" d="M125.826 11.8603C129.014 11.8603 131.6 9.27581 131.6 6.08692C131.6 5.5308 132.053 5.07722 132.609 5.07722C133.165 5.07722 133.619 5.53087 133.619 6.08692C133.619 9.27531 136.204 11.8603 139.392 11.8603C139.948 11.8603 140.402 12.3139 140.402 12.87C140.402 13.4261 139.948 13.8796 139.392 13.8796C136.203 13.8796 133.619 16.4648 133.619 19.6534C133.619 20.2092 133.165 20.6631 132.609 20.6631C132.053 20.6631 131.6 20.2092 131.6 19.6534C131.6 16.4645 129.015 13.8796 125.826 13.8796C125.27 13.8796 124.816 13.426 124.816 12.87C124.816 12.3138 125.27 11.8603 125.826 11.8603Z" fill="#3A3E61"/>
<path fill-rule="evenodd" clip-rule="evenodd" d="M39.0919 22.0811C39.9619 21.8026 40.4414 20.8718 40.1629 20.0018C40.1143 19.85 40.1985 19.6867 40.3503 19.6381C40.5018 19.5896 40.6654 19.6737 40.7139 19.8255C40.9923 20.6952 41.9233 21.1748 42.7931 20.8965C42.9448 20.848 43.1082 20.9321 43.1567 21.0837C43.2053 21.2354 43.1211 21.3988 42.9693 21.4473C42.0993 21.7259 41.62 22.6567 41.8985 23.5267C41.9469 23.6784 41.8629 23.8418 41.7111 23.8903C41.5594 23.9389 41.396 23.8547 41.3475 23.7029C41.069 22.833 40.1381 22.3534 39.2682 22.6319C39.1164 22.6805 38.953 22.5963 38.9045 22.4445C38.8559 22.293 38.9401 22.1294 39.0919 22.0811Z" fill="#2C1538"/>
<path fill-rule="evenodd" clip-rule="evenodd" d="M81.5673 3.16699C82.8983 3.01067 83.8505 1.80517 83.694 0.474053C83.6668 0.241967 83.834 0.0304918 84.0661 0.00313208C84.2979 -0.0240825 84.5096 0.143124 84.537 0.374992C84.6933 1.70582 85.8988 2.65804 87.2296 2.50172C87.4617 2.47429 87.6734 2.64149 87.7006 2.87358C87.7278 3.10566 87.5608 3.31714 87.3287 3.3445C85.9977 3.50082 85.0459 4.70661 85.2023 6.03743C85.2295 6.26952 85.0625 6.48121 84.8304 6.50836C84.5983 6.53557 84.3866 6.36858 84.3595 6.1365C84.2029 4.80545 82.9974 3.85345 81.6663 4.00977C81.4342 4.03698 81.2228 3.86999 81.1954 3.63791C81.1682 3.40582 81.3354 3.19413 81.5673 3.16699Z" fill="#3A3E61"/>
<path fill-rule="evenodd" clip-rule="evenodd" d="M41.0936 137.045C41.742 137.419 42.5716 137.197 42.9461 136.548C43.0113 136.435 43.1571 136.396 43.2701 136.462C43.3831 136.527 43.4221 136.673 43.3569 136.786C42.9824 137.434 43.2046 138.264 43.853 138.638C43.9663 138.703 44.0053 138.849 43.9398 138.962C43.8747 139.075 43.7292 139.114 43.6159 139.049C42.9672 138.674 42.1379 138.897 41.7633 139.545C41.6982 139.658 41.5526 139.697 41.4394 139.632C41.3263 139.567 41.2873 139.421 41.3526 139.308C41.7273 138.66 41.505 137.83 40.8564 137.455C40.7431 137.39 40.7041 137.245 40.7696 137.131C40.8348 137.018 40.9803 136.979 41.0936 137.045V137.045Z" fill="#462262"/>
<path d="M65.8743 145.519C66.7389 145.519 67.4399 144.818 67.4399 143.954C67.4399 143.089 66.7389 142.388 65.8743 142.388C65.0096 142.388 64.3087 143.089 64.3087 143.954C64.3087 144.818 65.0096 145.519 65.8743 145.519Z" fill="#4E236C"/>
<path d="M79.8264 145.311C80.2193 145.311 80.5378 144.993 80.5378 144.6C80.5378 144.207 80.2193 143.889 79.8264 143.889C79.4335 143.889 79.115 144.207 79.115 144.6C79.115 144.993 79.4335 145.311 79.8264 145.311Z" fill="#4E236C"/>
<path d="M96.1189 137.347C97.0406 137.347 97.7877 136.6 97.7877 135.678C97.7877 134.757 97.0406 134.01 96.1189 134.01C95.1973 134.01 94.4501 134.757 94.4501 135.678C94.4501 136.6 95.1973 137.347 96.1189 137.347Z" fill="#4E236C"/>
<path d="M80.9453 160C82.5679 160 83.8833 158.684 83.8833 157.062C83.8833 155.439 82.5679 154.124 80.9453 154.124C79.3226 154.124 78.0072 155.439 78.0072 157.062C78.0072 158.684 79.3226 160 80.9453 160Z" fill="#4E236C"/>
</g>
<defs>
<radialGradient id="paint0_radial_71_12188" cx="0" cy="0" r="1" gradientUnits="userSpaceOnUse" gradientTransform="translate(58.6527 82.4721) scale(56.8895 56.8895)">
<stop stop-color="#EE249C"/>
<stop offset="0.890196" stop-color="#852172"/>
<stop offset="1" stop-color="#1C1E48"/>
</radialGradient>
<linearGradient id="paint1_linear_71_12188" x1="12.2446" y1="103.914" x2="105.061" y2="61.0304" gradientUnits="userSpaceOnUse">
<stop stop-color="#783CA1"/>
<stop offset="1" stop-color="#EE229B"/>
</linearGradient>
<radialGradient id="paint2_radial_71_12188" cx="0" cy="0" r="1" gradientUnits="userSpaceOnUse" gradientTransform="translate(72.3889 77.5584) scale(30.2815 39.5621)">
<stop stop-color="#EE249C"/>
<stop offset="1" stop-color="#FFE500"/>
</radialGradient>
<radialGradient id="paint3_radial_71_12188" cx="0" cy="0" r="1" gradientUnits="userSpaceOnUse" gradientTransform="translate(80.3909 55.1628) rotate(2.14616) scale(8.53001 8.93443)">
<stop stop-color="#FCC15B"/>
<stop offset="1" stop-color="white"/>
</radialGradient>
<clipPath id="clip0_71_12188">
<rect width="139.448" height="160" fill="white" transform="translate(0.954407)"/>
</clipPath>
</defs>
</svg>
