<svg width="7" height="11" viewBox="0 0 7 11" fill="none" xmlns="http://www.w3.org/2000/svg">
<path d="M6.30813 5.85375L1.30813 10.8538C1.26167 10.9002 1.20652 10.9371 1.14583 10.9622C1.08513 10.9873 1.02008 11.0003 0.95438 11.0003C0.888682 11.0003 0.823628 10.9873 0.762931 10.9622C0.702235 10.9371 0.647084 10.9002 0.600629 10.8538C0.554174 10.8073 0.517324 10.7521 0.492183 10.6915C0.467041 10.6308 0.454102 10.5657 0.454102 10.5C0.454102 10.4343 0.467041 10.3693 0.492183 10.3086C0.517324 10.2479 0.554174 10.1927 0.600629 10.1463L5.2475 5.5L0.600629 0.853753C0.506809 0.759933 0.454102 0.632685 0.454102 0.500003C0.454102 0.367321 0.506809 0.240074 0.600629 0.146253C0.69445 0.052433 0.821698 -0.000274657 0.95438 -0.000274658C1.08706 -0.000274659 1.21431 0.052433 1.30813 0.146253L6.30813 5.14625C6.35462 5.19269 6.3915 5.24783 6.41666 5.30853C6.44182 5.36923 6.45477 5.4343 6.45477 5.5C6.45477 5.56571 6.44182 5.63077 6.41666 5.69147C6.3915 5.75217 6.35462 5.80732 6.30813 5.85375Z" fill="#2F2E41"/>
</svg>
