<svg width="19" height="18" viewBox="0 0 19 18" fill="none" xmlns="http://www.w3.org/2000/svg">
<path d="M12.2806 9.53063L8.53063 13.2806C8.42573 13.3856 8.29204 13.4572 8.14648 13.4861C8.00092 13.5151 7.85002 13.5003 7.71291 13.4435C7.57579 13.3867 7.45861 13.2904 7.37621 13.167C7.29381 13.0435 7.24988 12.8984 7.25 12.75V9.75H1.25C1.05109 9.75 0.860322 9.67098 0.71967 9.53033C0.579018 9.38968 0.5 9.19891 0.5 9C0.5 8.80109 0.579018 8.61032 0.71967 8.46967C0.860322 8.32902 1.05109 8.25 1.25 8.25H7.25V5.25C7.24988 5.10158 7.29381 4.95646 7.37621 4.83301C7.45861 4.70957 7.57579 4.61335 7.71291 4.55653C7.85002 4.49972 8.00092 4.48487 8.14648 4.51385C8.29204 4.54284 8.42573 4.61437 8.53063 4.71937L12.2806 8.46937C12.3504 8.53903 12.4057 8.62175 12.4434 8.7128C12.4812 8.80384 12.5006 8.90144 12.5006 9C12.5006 9.09856 12.4812 9.19616 12.4434 9.2872C12.4057 9.37825 12.3504 9.46097 12.2806 9.53063ZM17 0H11.75C11.5511 0 11.3603 0.0790178 11.2197 0.21967C11.079 0.360322 11 0.551088 11 0.75C11 0.948912 11.079 1.13968 11.2197 1.28033C11.3603 1.42098 11.5511 1.5 11.75 1.5H17V16.5H11.75C11.5511 16.5 11.3603 16.579 11.2197 16.7197C11.079 16.8603 11 17.0511 11 17.25C11 17.4489 11.079 17.6397 11.2197 17.7803C11.3603 17.921 11.5511 18 11.75 18H17C17.3978 18 17.7794 17.842 18.0607 17.5607C18.342 17.2794 18.5 16.8978 18.5 16.5V1.5C18.5 1.10218 18.342 0.720644 18.0607 0.43934C17.7794 0.158035 17.3978 0 17 0Z" fill="white"/>
</svg>
